<?xml version="1.0" standalone="no"?>
 <!DOCTYPE svg PUBLIC "-//W3C//DTD SVG 1.1//EN" 
 "http://www.w3.org/Graphics/SVG/1.1/DTD/svg11.dtd"> 
<svg xmlns="http://www.w3.org/2000/svg" version="1.1" 
    width="29.7002cm" height="21.0007cm" viewBox="0 0 116930 82680 ">
<title>SVG Picture created as ADC-PCM4202-SE-drl_map.svg date 2016/04/20 14:31:50 </title>
  <desc>Picture generated by PCBNEW </desc>
<g style="fill:#000000; fill-opacity:1;stroke:#000000; stroke-opacity:1;
stroke-linecap:round; stroke-linejoin:round; "
 transform="translate(0 0) scale(1 1)">
</g>
<g style="fill:#000000; fill-opacity:0.0; 
stroke:#000000; stroke-width:-0.000393701; stroke-opacity:1; 
stroke-linecap:round; stroke-linejoin:round;">
</g>
<g style="fill:#000000; fill-opacity:0.0; 
stroke:#000000; stroke-width:59.0551; stroke-opacity:1; 
stroke-linecap:round; stroke-linejoin:round;">
<path d="M77952 59055
L77952 19685
" />
<path d="M77952 59055
L38582 59055
" />
<path d="M38582 19685
L77952 19685
" />
<path d="M38582 59055
L38582 19685
" />
</g>
<g style="fill:#000000; fill-opacity:0.0; 
stroke:#000000; stroke-width:78.7402; stroke-opacity:1; 
stroke-linecap:round; stroke-linejoin:round;">
<path d="M40464 29111
L40661 29308
" />
<path d="M40661 29111
L40464 29308
" />
<path d="M43031 24443
L43228 24640
" />
<path d="M43228 24443
L43031 24640
" />
<path d="M43231 39901
L43428 40098
" />
<path d="M43428 39901
L43231 40098
" />
<path d="M43701 25801
L43898 25998
" />
<path d="M43898 25801
L43701 25998
" />
<path d="M43711 40711
L43908 40908
" />
<path d="M43908 40711
L43711 40908
" />
<path d="M44501 25101
L44698 25298
" />
<path d="M44698 25101
L44501 25298
" />
<path d="M44529 24443
L44726 24640
" />
<path d="M44726 24443
L44529 24640
" />
<path d="M45491 40071
L45688 40268
" />
<path d="M45688 40071
L45491 40268
" />
<path d="M46061 40711
L46258 40908
" />
<path d="M46258 40711
L46061 40908
" />
<path d="M46061 42001
L46258 42198
" />
<path d="M46258 42001
L46061 42198
" />
<path d="M46075 24443
L46272 24640
" />
<path d="M46272 24443
L46075 24640
" />
<path d="M46311 43351
L46508 43548
" />
<path d="M46508 43351
L46311 43548
" />
<path d="M46491 39921
L46688 40118
" />
<path d="M46688 39921
L46491 40118
" />
<path d="M46851 32051
L47048 32248
" />
<path d="M47048 32051
L46851 32248
" />
<path d="M46851 32951
L47048 33148
" />
<path d="M47048 32951
L46851 33148
" />
<path d="M46851 33951
L47048 34148
" />
<path d="M47048 33951
L46851 34148
" />
<path d="M47533 24443
L47730 24640
" />
<path d="M47730 24443
L47533 24640
" />
<path d="M47741 39921
L47938 40118
" />
<path d="M47938 39921
L47741 40118
" />
<path d="M48726 28451
L48923 28648
" />
<path d="M48923 28451
L48726 28648
" />
<path d="M48821 43351
L49018 43548
" />
<path d="M49018 43351
L48821 43548
" />
<path d="M49101 24443
L49298 24640
" />
<path d="M49298 24443
L49101 24640
" />
<path d="M49601 32001
L49798 32198
" />
<path d="M49798 32001
L49601 32198
" />
<path d="M49601 33001
L49798 33198
" />
<path d="M49798 33001
L49601 33198
" />
<path d="M49601 34001
L49798 34198
" />
<path d="M49798 34001
L49601 34198
" />
<path d="M49784 27456
L49981 27653
" />
<path d="M49981 27456
L49784 27653
" />
<path d="M50559 24443
L50756 24640
" />
<path d="M50756 24443
L50559 24640
" />
<path d="M50584 25456
L50781 25653
" />
<path d="M50781 25456
L50584 25653
" />
<path d="M50721 28721
L50918 28918
" />
<path d="M50918 28721
L50721 28918
" />
<path d="M51081 30581
L51278 30778
" />
<path d="M51278 30581
L51081 30778
" />
<path d="M51251 32001
L51448 32198
" />
<path d="M51448 32001
L51251 32198
" />
<path d="M52033 24443
L52230 24640
" />
<path d="M52230 24443
L52033 24640
" />
<path d="M52084 26656
L52281 26853
" />
<path d="M52281 26656
L52084 26853
" />
<path d="M52833 33256
L53030 33453
" />
<path d="M53030 33256
L52833 33453
" />
<path d="M53183 34656
L53380 34853
" />
<path d="M53380 34656
L53183 34853
" />
<path d="M53251 35961
L53448 36158
" />
<path d="M53448 35961
L53251 36158
" />
<path d="M53251 37991
L53448 38188
" />
<path d="M53448 37991
L53251 38188
" />
<path d="M53261 36951
L53458 37148
" />
<path d="M53458 36951
L53261 37148
" />
<path d="M53381 39901
L53578 40098
" />
<path d="M53578 39901
L53381 40098
" />
<path d="M53411 38961
L53608 39158
" />
<path d="M53608 38961
L53411 39158
" />
<path d="M53866 32666
L54063 32863
" />
<path d="M54063 32666
L53866 32863
" />
<path d="M54164 34676
L54361 34873
" />
<path d="M54361 34676
L54164 34873
" />
<path d="M54181 30611
L54378 30808
" />
<path d="M54378 30611
L54181 30808
" />
<path d="M54611 28221
L54808 28418
" />
<path d="M54808 28221
L54611 28418
" />
<path d="M54611 30331
L54808 30528
" />
<path d="M54808 30331
L54611 30528
" />
<path d="M54851 31773
L55048 31970
" />
<path d="M55048 31773
L54851 31970
" />
<path d="M54916 33546
L55113 33743
" />
<path d="M55113 33546
L54916 33743
" />
<path d="M55021 34661
L55218 34858
" />
<path d="M55218 34661
L55021 34858
" />
<path d="M55111 30411
L55308 30608
" />
<path d="M55308 30411
L55111 30608
" />
<path d="M55121 28761
L55318 28958
" />
<path d="M55318 28761
L55121 28958
" />
<path d="M55121 29821
L55318 30018
" />
<path d="M55318 29821
L55121 30018
" />
<path d="M55401 38201
L55598 38398
" />
<path d="M55598 38201
L55401 38398
" />
<path d="M55711 29911
L55908 30108
" />
<path d="M55908 29911
L55711 30108
" />
<path d="M55881 35501
L56078 35698
" />
<path d="M56078 35501
L55881 35698
" />
<path d="M56131 36021
L56328 36218
" />
<path d="M56328 36021
L56131 36218
" />
<path d="M56133 31781
L56330 31978
" />
<path d="M56330 31781
L56133 31978
" />
<path d="M56141 32661
L56338 32858
" />
<path d="M56338 32661
L56141 32858
" />
<path d="M56243 33541
L56440 33738
" />
<path d="M56440 33541
L56243 33738
" />
<path d="M56301 30401
L56498 30598
" />
<path d="M56498 30401
L56301 30598
" />
<path d="M56301 34901
L56498 35098
" />
<path d="M56498 34901
L56301 35098
" />
<path d="M56801 49051
L56998 49248
" />
<path d="M56998 49051
L56801 49248
" />
<path d="M56901 29901
L57098 30098
" />
<path d="M57098 29901
L56901 30098
" />
<path d="M56901 35501
L57098 35698
" />
<path d="M57098 35501
L56901 35698
" />
<path d="M58516 32661
L58713 32858
" />
<path d="M58713 32661
L58516 32858
" />
<circle cx="39500" cy="23700" r="157.48" /> 
<circle cx="39500" cy="28900" r="157.48" /> 
<circle cx="39500" cy="32000" r="157.48" /> 
<circle cx="39500" cy="36500" r="157.48" /> 
<circle cx="39500" cy="41000" r="157.48" /> 
<circle cx="39500" cy="47500" r="157.48" /> 
<circle cx="39500" cy="55500" r="157.48" /> 
<circle cx="39732.7" cy="52455.1" r="157.48" /> 
<circle cx="40582.7" cy="53155.1" r="157.48" /> 
<circle cx="41425" cy="41025" r="157.48" /> 
<circle cx="41450" cy="38025" r="157.48" /> 
<circle cx="41482.7" cy="46155.1" r="157.48" /> 
<circle cx="41500" cy="23500" r="157.48" /> 
<circle cx="41500" cy="26700" r="157.48" /> 
<circle cx="41982.3" cy="48761.6" r="157.48" /> 
<circle cx="41982.3" cy="50155.3" r="157.48" /> 
<circle cx="42100" cy="29100" r="157.48" /> 
<circle cx="42300" cy="25300" r="157.48" /> 
<circle cx="42400" cy="43450" r="157.48" /> 
<circle cx="42400" cy="44600" r="157.48" /> 
<circle cx="42482.7" cy="56155.1" r="157.48" /> 
<circle cx="42500" cy="58000" r="157.48" /> 
<circle cx="42582.3" cy="54055.3" r="157.48" /> 
<circle cx="42582.3" cy="55055.3" r="157.48" /> 
<circle cx="42782.3" cy="47961.6" r="157.48" /> 
<circle cx="42782.3" cy="50955.3" r="157.48" /> 
<circle cx="43000" cy="26700" r="157.48" /> 
<circle cx="43325" cy="38025" r="157.48" /> 
<circle cx="43382.3" cy="53155.3" r="157.48" /> 
<circle cx="43382.3" cy="55055.3" r="157.48" /> 
<circle cx="43482.7" cy="46155.1" r="157.48" /> 
<circle cx="44790.2" cy="48255.3" r="157.48" /> 
<circle cx="45025" cy="45125" r="157.48" /> 
<circle cx="45182.3" cy="55155.3" r="157.48" /> 
<circle cx="45382.7" cy="57555.1" r="157.48" /> 
<circle cx="45675" cy="38050" r="157.48" /> 
<circle cx="45725" cy="28475" r="157.48" /> 
<circle cx="45774.4" cy="48255.3" r="157.48" /> 
<circle cx="45982.3" cy="52755.3" r="157.48" /> 
<circle cx="46350" cy="35600" r="157.48" /> 
<circle cx="46482.3" cy="49455.3" r="157.48" /> 
<circle cx="46482.3" cy="50155.3" r="157.48" /> 
<circle cx="47000" cy="58000" r="157.48" /> 
<circle cx="47182.3" cy="47155.3" r="157.48" /> 
<circle cx="47500" cy="37800" r="157.48" /> 
<circle cx="47682.3" cy="51655.3" r="157.48" /> 
<circle cx="47762.7" cy="26933" r="157.48" /> 
<circle cx="47762.7" cy="27917.2" r="157.48" /> 
<circle cx="47882.3" cy="54055.3" r="157.48" /> 
<circle cx="47882.3" cy="54755.3" r="157.48" /> 
<circle cx="47882.3" cy="55455.3" r="157.48" /> 
<circle cx="48100" cy="49200" r="157.48" /> 
<circle cx="48200" cy="41625" r="157.48" /> 
<circle cx="48340" cy="36010" r="157.48" /> 
<circle cx="48782.7" cy="44955.1" r="157.48" /> 
<circle cx="49300" cy="52600" r="157.48" /> 
<circle cx="49400" cy="38500" r="157.48" /> 
<circle cx="49482.3" cy="55866.3" r="157.48" /> 
<circle cx="49482.3" cy="57244.3" r="157.48" /> 
<circle cx="49482.7" cy="48055.1" r="157.48" /> 
<circle cx="49482.7" cy="50155.1" r="157.48" /> 
<circle cx="50025" cy="40500" r="157.48" /> 
<circle cx="50500" cy="36900" r="157.48" /> 
<circle cx="50900" cy="51850" r="157.48" /> 
<circle cx="50900" cy="53575" r="157.48" /> 
<circle cx="51000" cy="58000" r="157.48" /> 
<circle cx="51575" cy="46925" r="157.48" /> 
<circle cx="51775" cy="43700" r="157.48" /> 
<circle cx="51800" cy="38650" r="157.48" /> 
<circle cx="51900" cy="49750" r="157.48" /> 
<circle cx="52000" cy="56200" r="157.48" /> 
<circle cx="52700" cy="54100" r="157.48" /> 
<circle cx="52777.7" cy="42027.2" r="157.48" /> 
<circle cx="53282.3" cy="47805.1" r="157.48" /> 
<circle cx="53300" cy="51850" r="157.48" /> 
<circle cx="53500" cy="23400" r="157.48" /> 
<circle cx="53761.9" cy="42027.2" r="157.48" /> 
<circle cx="54000" cy="48400" r="157.48" /> 
<circle cx="54000" cy="56200" r="157.48" /> 
<circle cx="54000" cy="58000" r="157.48" /> 
<circle cx="54050" cy="52550" r="157.48" /> 
<circle cx="54125" cy="23375" r="157.48" /> 
<circle cx="54570" cy="45600" r="157.48" /> 
<circle cx="54600" cy="54100" r="157.48" /> 
<circle cx="55025" cy="26250" r="157.48" /> 
<circle cx="55100" cy="20600" r="157.48" /> 
<circle cx="55350" cy="52450" r="157.48" /> 
<circle cx="55700" cy="40600" r="157.48" /> 
<circle cx="55800" cy="27725" r="157.48" /> 
<circle cx="55900" cy="23100" r="157.48" /> 
<circle cx="55940.2" cy="46755.3" r="157.48" /> 
<circle cx="56450" cy="42100" r="157.48" /> 
<circle cx="56500" cy="53350" r="157.48" /> 
<circle cx="56532.3" cy="29205.3" r="157.48" /> 
<circle cx="56550" cy="50850" r="157.48" /> 
<circle cx="56550" cy="51550" r="157.48" /> 
<circle cx="56924.4" cy="46755.3" r="157.48" /> 
<circle cx="57250" cy="43250" r="157.48" /> 
<circle cx="57400" cy="37000" r="157.48" /> 
<circle cx="57400" cy="54500" r="157.48" /> 
<circle cx="57550" cy="48450" r="157.48" /> 
<circle cx="57700" cy="52450" r="157.48" /> 
<circle cx="57800" cy="28100" r="157.48" /> 
<circle cx="58200" cy="23100" r="157.48" /> 
<circle cx="58200" cy="41100" r="157.48" /> 
<circle cx="58250" cy="45000" r="157.48" /> 
<circle cx="58500" cy="20600" r="157.48" /> 
<circle cx="58600" cy="52500" r="157.48" /> 
<circle cx="58800" cy="54500" r="157.48" /> 
<circle cx="58900" cy="36700" r="157.48" /> 
<circle cx="59000" cy="48000" r="157.48" /> 
<circle cx="59082.3" cy="29205.3" r="157.48" /> 
<circle cx="59082.7" cy="30463" r="157.48" /> 
<circle cx="59082.7" cy="31447.2" r="157.48" /> 
<circle cx="59082.7" cy="34063" r="157.48" /> 
<circle cx="59082.7" cy="35047.2" r="157.48" /> 
<circle cx="59223.9" cy="23161.3" r="157.48" /> 
<circle cx="59365.6" cy="26280.1" r="157.48" /> 
<circle cx="59600" cy="52500" r="157.48" /> 
<circle cx="59802.6" cy="37430" r="157.48" /> 
<circle cx="60000" cy="49750" r="157.48" /> 
<circle cx="60000" cy="58000" r="157.48" /> 
<circle cx="60100" cy="32800" r="157.48" /> 
<circle cx="60100" cy="42300" r="157.48" /> 
<circle cx="60300" cy="51850" r="157.48" /> 
<circle cx="60332.3" cy="38905.3" r="157.48" /> 
<circle cx="60349.8" cy="26280.1" r="157.48" /> 
<circle cx="60500" cy="46500" r="157.48" /> 
<circle cx="60612.6" cy="43200" r="157.48" /> 
<circle cx="60750" cy="23975" r="157.48" /> 
<circle cx="60800" cy="45600" r="157.48" /> 
<circle cx="60932.3" cy="27605.3" r="157.48" /> 
<circle cx="60940.6" cy="40255.1" r="157.48" /> 
<circle cx="61000" cy="29900" r="157.48" /> 
<circle cx="61000" cy="44100" r="157.48" /> 
<circle cx="61000" cy="44900" r="157.48" /> 
<circle cx="61032.3" cy="36155.3" r="157.48" /> 
<circle cx="61032.3" cy="36755.3" r="157.48" /> 
<circle cx="61232.3" cy="25455.3" r="157.48" /> 
<circle cx="61300" cy="34000" r="157.48" /> 
<circle cx="61382.7" cy="55455.1" r="157.48" /> 
<circle cx="61800" cy="31300" r="157.48" /> 
<circle cx="61893.7" cy="46805.1" r="157.48" /> 
<circle cx="61893.7" cy="52305.1" r="157.48" /> 
<circle cx="61924.8" cy="40255.1" r="157.48" /> 
<circle cx="62100" cy="20600" r="157.48" /> 
<circle cx="62500" cy="24200" r="157.48" /> 
<circle cx="62500" cy="34000" r="157.48" /> 
<circle cx="62800" cy="41100" r="157.48" /> 
<circle cx="63082.7" cy="55455.1" r="157.48" /> 
<circle cx="63271.7" cy="46805.1" r="157.48" /> 
<circle cx="63271.7" cy="52305.1" r="157.48" /> 
<circle cx="63400" cy="40500" r="157.48" /> 
<circle cx="63500" cy="31300" r="157.48" /> 
<circle cx="63500" cy="32600" r="157.48" /> 
<circle cx="63800" cy="44100" r="157.48" /> 
<circle cx="63800" cy="45300" r="157.48" /> 
<circle cx="64112.6" cy="43200" r="157.48" /> 
<circle cx="64300" cy="22900" r="157.48" /> 
<circle cx="64393.7" cy="25835.1" r="157.48" /> 
<circle cx="64393.7" cy="35185.1" r="157.48" /> 
<circle cx="64590" cy="50460" r="157.48" /> 
<circle cx="64840" cy="52330" r="157.48" /> 
<circle cx="64860" cy="53900" r="157.48" /> 
<circle cx="64860" cy="55455.1" r="157.48" /> 
<circle cx="64880" cy="56540" r="157.48" /> 
<circle cx="64910" cy="44820" r="157.48" /> 
<circle cx="64932.3" cy="41455.3" r="157.48" /> 
<circle cx="65000" cy="20600" r="157.48" /> 
<circle cx="65000" cy="46800" r="157.48" /> 
<circle cx="65000" cy="48500" r="157.48" /> 
<circle cx="65000" cy="58000" r="157.48" /> 
<circle cx="65150" cy="50470" r="157.48" /> 
<circle cx="66100" cy="44100" r="157.48" /> 
<circle cx="66100" cy="45300" r="157.48" /> 
<circle cx="66200" cy="31700" r="157.48" /> 
<circle cx="66200" cy="32500" r="157.48" /> 
<circle cx="66225" cy="27225" r="157.48" /> 
<circle cx="66232.7" cy="36705.1" r="157.48" /> 
<circle cx="66300" cy="22600" r="157.48" /> 
<circle cx="66582.7" cy="52305.1" r="157.48" /> 
<circle cx="66582.7" cy="55455.1" r="157.48" /> 
<circle cx="66643.7" cy="46805.1" r="157.48" /> 
<circle cx="67232.3" cy="41105.3" r="157.48" /> 
<circle cx="67732.3" cy="22905.3" r="157.48" /> 
<circle cx="67732.3" cy="23905.3" r="157.48" /> 
<circle cx="67832.3" cy="20555.3" r="157.48" /> 
<circle cx="67960.6" cy="52305.1" r="157.48" /> 
<circle cx="68021.7" cy="46805.1" r="157.48" /> 
<circle cx="68082.3" cy="41355.3" r="157.48" /> 
<circle cx="68250" cy="36225" r="157.48" /> 
<circle cx="68250" cy="38250" r="157.48" /> 
<circle cx="68275" cy="26875" r="157.48" /> 
<circle cx="68275" cy="28950" r="157.48" /> 
<circle cx="68482.7" cy="32155.1" r="157.48" /> 
<circle cx="68482.7" cy="55455.1" r="157.48" /> 
<circle cx="69032.3" cy="35355.3" r="157.48" /> 
<circle cx="69032.3" cy="39205.3" r="157.48" /> 
<circle cx="69082.3" cy="41055.3" r="157.48" /> 
<circle cx="69082.3" cy="43055.3" r="157.48" /> 
<circle cx="69082.3" cy="43855.1" r="157.48" /> 
<circle cx="69082.3" cy="44855.1" r="157.48" /> 
<circle cx="69082.3" cy="45805.3" r="157.48" /> 
<circle cx="69082.3" cy="48805.3" r="157.48" /> 
<circle cx="69215.4" cy="29755.3" r="157.48" /> 
<circle cx="69300" cy="33400" r="157.48" /> 
<circle cx="69332.3" cy="52305.3" r="157.48" /> 
<circle cx="70000" cy="22000" r="157.48" /> 
<circle cx="70000" cy="23300" r="157.48" /> 
<circle cx="70000" cy="24600" r="157.48" /> 
<circle cx="70000" cy="58000" r="157.48" /> 
<circle cx="70198" cy="26055.3" r="157.48" /> 
<circle cx="70198" cy="35455.3" r="157.48" /> 
<circle cx="70832.3" cy="20555.3" r="157.48" /> 
<circle cx="71082.7" cy="55155.1" r="157.48" /> 
<circle cx="71100" cy="26800" r="157.48" /> 
<circle cx="71100" cy="30600" r="157.48" /> 
<circle cx="71100" cy="39800" r="157.48" /> 
<circle cx="71132.3" cy="33805.3" r="157.48" /> 
<circle cx="71132.3" cy="36155.1" r="157.48" /> 
<circle cx="72166.5" cy="26055.3" r="157.48" /> 
<circle cx="72166.5" cy="35455.3" r="157.48" /> 
<circle cx="72332.3" cy="42305.3" r="157.48" /> 
<circle cx="72332.3" cy="46055.3" r="157.48" /> 
<circle cx="72332.3" cy="49305.3" r="157.48" /> 
<circle cx="72332.3" cy="53055.3" r="157.48" /> 
<circle cx="72332.3" cy="56305.3" r="157.48" /> 
<circle cx="73332.3" cy="20555.3" r="157.48" /> 
<circle cx="73332.3" cy="23805.3" r="157.48" /> 
<circle cx="73482.7" cy="27255.1" r="157.48" /> 
<circle cx="73482.7" cy="30755.1" r="157.48" /> 
<circle cx="73482.7" cy="34655.1" r="157.48" /> 
<circle cx="73482.7" cy="39655.1" r="157.48" /> 
<circle cx="73582.7" cy="36355.1" r="157.48" /> 
<circle cx="73682.7" cy="25255.1" r="157.48" /> 
<circle cx="74500" cy="58000" r="157.48" /> 
<circle cx="74582.7" cy="33255.1" r="157.48" /> 
<circle cx="74582.7" cy="34455.1" r="157.48" /> 
<circle cx="74882.7" cy="42855.1" r="157.48" /> 
<circle cx="75082.3" cy="24305.3" r="157.48" /> 
<circle cx="75082.3" cy="45805.3" r="157.48" /> 
<circle cx="75082.3" cy="49055.3" r="157.48" /> 
<circle cx="75082.3" cy="52305.3" r="157.48" /> 
<circle cx="75082.3" cy="54555.3" r="157.48" /> 
<circle cx="75882.7" cy="47555.1" r="157.48" /> 
<circle cx="76082.7" cy="37955.1" r="157.48" /> 
<circle cx="76182.7" cy="54555.1" r="157.48" /> 
<circle cx="76282.7" cy="28555.1" r="157.48" /> 
<circle cx="76582.7" cy="24355.1" r="157.48" /> 
<circle cx="77082.7" cy="29455.1" r="157.48" /> 
<circle cx="77082.7" cy="33055.1" r="157.48" /> 
<circle cx="77082.7" cy="35455.1" r="157.48" /> 
<circle cx="77182.7" cy="26055.1" r="157.48" /> 
<circle cx="77182.7" cy="39055.1" r="157.48" /> 
<circle cx="77182.7" cy="44555.1" r="157.48" /> 
<circle cx="77182.7" cy="50655.1" r="157.48" /> 
<circle cx="77182.7" cy="54555.1" r="157.48" /> 
<path d="M42332 41858
L42332 42251
" />
<path d="M42135 42055
L42529 42055
" />
<path d="M43082 31358
L43082 31751
" />
<path d="M42885 31555
L43279 31555
" />
<path d="M43082 32358
L43082 32751
" />
<path d="M42885 32555
L43279 32555
" />
<path d="M43082 33358
L43082 33751
" />
<path d="M42885 33555
L43279 33555
" />
<path d="M43082 34358
L43082 34751
" />
<path d="M42885 34555
L43279 34555
" />
<path d="M43082 35358
L43082 35751
" />
<path d="M42885 35555
L43279 35555
" />
<path d="M43132 20858
L43132 21251
" />
<path d="M42935 21055
L43329 21055
" />
<path d="M43132 21858
L43132 22251
" />
<path d="M42935 22055
L43329 22055
" />
<path d="M43332 41858
L43332 42251
" />
<path d="M43135 42055
L43529 42055
" />
<path d="M44082 31358
L44082 31751
" />
<path d="M43885 31555
L44279 31555
" />
<path d="M44082 32358
L44082 32751
" />
<path d="M43885 32555
L44279 32555
" />
<path d="M44082 33358
L44082 33751
" />
<path d="M43885 33555
L44279 33555
" />
<path d="M44082 34358
L44082 34751
" />
<path d="M43885 34555
L44279 34555
" />
<path d="M44082 35358
L44082 35751
" />
<path d="M43885 35555
L44279 35555
" />
<path d="M44632 20858
L44632 21251
" />
<path d="M44435 21055
L44829 21055
" />
<path d="M44632 21858
L44632 22251
" />
<path d="M44435 22055
L44829 22055
" />
<path d="M46132 20858
L46132 21251
" />
<path d="M45935 21055
L46329 21055
" />
<path d="M46132 21858
L46132 22251
" />
<path d="M45935 22055
L46329 22055
" />
<path d="M46882 29458
L46882 29851
" />
<path d="M46685 29655
L47079 29655
" />
<path d="M47632 20858
L47632 21251
" />
<path d="M47435 21055
L47829 21055
" />
<path d="M47632 21858
L47632 22251
" />
<path d="M47435 22055
L47829 22055
" />
<path d="M47882 29458
L47882 29851
" />
<path d="M47685 29655
L48079 29655
" />
<path d="M48882 29458
L48882 29851
" />
<path d="M48685 29655
L49079 29655
" />
<path d="M49132 20858
L49132 21251
" />
<path d="M48935 21055
L49329 21055
" />
<path d="M49132 21858
L49132 22251
" />
<path d="M48935 22055
L49329 22055
" />
<path d="M50632 20858
L50632 21251
" />
<path d="M50435 21055
L50829 21055
" />
<path d="M50632 21858
L50632 22251
" />
<path d="M50435 22055
L50829 22055
" />
<path d="M52132 20858
L52132 21251
" />
<path d="M51935 21055
L52329 21055
" />
<path d="M52132 21858
L52132 22251
" />
<path d="M51935 22055
L52329 22055
" />
<path d="M56332 56358
L56332 56751
" />
<path d="M56135 56555
L56529 56555
" />
<path d="M57582 56358
L57582 56751
" />
<path d="M57385 56555
L57779 56555
" />
<path d="M57279 56712
L57885 56712
" />
<path d="M57279 56397
L57885 56397
" />
<path d="M57885.8 56712.6 A157.48 157.48 0.0 0 0 57885.8 56397.6 " />
<path d="M57279.5 56397.6 A157.48 157.48 0.0 0 0 57279.5 56712.6 " />
<path d="M61832 56358
L61832 56751
" />
<path d="M61635 56555
L62029 56555
" />
<path d="M63082 56358
L63082 56751
" />
<path d="M62885 56555
L63279 56555
" />
<path d="M62779 56712
L63385 56712
" />
<path d="M62779 56397
L63385 56397
" />
<path d="M63385.8 56712.6 A157.48 157.48 0.0 0 0 63385.8 56397.6 " />
<path d="M62779.5 56397.6 A157.48 157.48 0.0 0 0 62779.5 56712.6 " />
<path d="M66582 56358
L66582 56751
" />
<path d="M66385 56555
L66779 56555
" />
<path d="M67832 56358
L67832 56751
" />
<path d="M67635 56555
L68029 56555
" />
<path d="M67529 56712
L68135 56712
" />
<path d="M67529 56397
L68135 56397
" />
<path d="M68135.8 56712.6 A157.48 157.48 0.0 0 0 68135.8 56397.6 " />
<path d="M67529.5 56397.6 A157.48 157.48 0.0 0 0 67529.5 56712.6 " />
<path d="M70198 29208
L70198 29602
" />
<path d="M70001 29405
L70394 29405
" />
<path d="M70198 38658
L70198 39052
" />
<path d="M70001 38855
L70394 38855
" />
<path d="M72166 29208
L72166 29602
" />
<path d="M71969 29405
L72363 29405
" />
<path d="M72166 38658
L72166 39052
" />
<path d="M71969 38855
L72363 38855
" />
<path d="M74782 31558
L74782 31951
" />
<path d="M74585 31755
L74979 31755
" />
<path d="M74782 40958
L74782 41351
" />
<path d="M74585 41155
L74979 41155
" />
<path d="M75782 31558
L75782 31951
" />
<path d="M75585 31755
L75979 31755
" />
<path d="M75782 40958
L75782 41351
" />
<path d="M75585 41155
L75979 41155
" />
<polyline fill="none;"
points="40996,22098
40996,21208
40105,21208
40105,22098
40996,22098
" /> 
<polyline fill="none;"
points="40996,57532
40996,56641
40105,56641
40105,57532
40996,57532
" /> 
<polyline fill="none;"
points="76429,22098
76429,21208
75538,21208
75538,22098
76429,22098
" /> 
<polyline fill="none;"
points="76429,57532
76429,56641
75538,56641
75538,57532
76429,57532
" /> 
</g>
<g style="fill:#000000; fill-opacity:0.0; 
stroke:#000000; stroke-width:118.11; stroke-opacity:1; 
stroke-linecap:round; stroke-linejoin:round;">
<path d="M39621 60918
L39621 59737
L39902 59737
L40071 59793
L40184 59905
L40240 60018
L40296 60243
L40296 60411
L40240 60636
L40184 60749
L40071 60861
L39902 60918
L39621 60918
" />
<path d="M40802 60918
L40802 60130
" />
<path d="M40802 60355
L40859 60243
L40915 60187
L41027 60130
L41140 60130
" />
<path d="M41534 60918
L41534 60130
" />
<path d="M41534 59737
L41477 59793
L41534 59849
L41590 59793
L41534 59737
L41534 59849
" />
<path d="M42265 60918
L42152 60861
L42096 60749
L42096 59737
" />
<path d="M42883 60918
L42771 60861
L42715 60749
L42715 59737
" />
<path d="M44233 60918
L44233 59737
L44627 60580
L45021 59737
L45021 60918
" />
<path d="M46089 60918
L46089 60299
L46033 60187
L45920 60130
L45696 60130
L45583 60187
" />
<path d="M46089 60861
L45977 60918
L45696 60918
L45583 60861
L45527 60749
L45527 60636
L45583 60524
L45696 60468
L45977 60468
L46089 60411
" />
<path d="M46652 60130
L46652 61311
" />
<path d="M46652 60187
L46764 60130
L46989 60130
L47102 60187
L47158 60243
L47214 60355
L47214 60693
L47158 60805
L47102 60861
L46989 60918
L46764 60918
L46652 60861
" />
<path d="M47720 60805
L47776 60861
L47720 60918
L47664 60861
L47720 60805
L47720 60918
" />
<path d="M47720 60187
L47776 60243
L47720 60299
L47664 60243
L47720 60187
L47720 60299
" />
<path d="M38356 62765
L38553 62962
" />
<path d="M38553 62765
L38356 62962
" />
<path d="M39846 62217
L39959 62217
L40071 62273
L40127 62329
L40184 62442
L40240 62667
L40240 62948
L40184 63173
L40127 63285
L40071 63342
L39959 63398
L39846 63398
L39734 63342
L39678 63285
L39621 63173
L39565 62948
L39565 62667
L39621 62442
L39678 62329
L39734 62273
L39846 62217
" />
<path d="M40746 63285
L40802 63342
L40746 63398
L40690 63342
L40746 63285
L40746 63398
" />
<path d="M41871 62217
L41309 62217
L41252 62779
L41309 62723
L41421 62667
L41702 62667
L41815 62723
L41871 62779
L41927 62892
L41927 63173
L41871 63285
L41815 63342
L41702 63398
L41421 63398
L41309 63342
L41252 63285
" />
<path d="M42658 62217
L42771 62217
L42883 62273
L42940 62329
L42996 62442
L43052 62667
L43052 62948
L42996 63173
L42940 63285
L42883 63342
L42771 63398
L42658 63398
L42546 63342
L42490 63285
L42433 63173
L42377 62948
L42377 62667
L42433 62442
L42490 62329
L42546 62273
L42658 62217
" />
<path d="M43558 63398
L43558 62611
" />
<path d="M43558 62723
L43615 62667
L43727 62611
L43896 62611
L44008 62667
L44064 62779
L44064 63398
" />
<path d="M44064 62779
L44121 62667
L44233 62611
L44402 62611
L44514 62667
L44571 62779
L44571 63398
" />
<path d="M45133 63398
L45133 62611
" />
<path d="M45133 62723
L45189 62667
L45302 62611
L45471 62611
L45583 62667
L45639 62779
L45639 63398
" />
<path d="M45639 62779
L45696 62667
L45808 62611
L45977 62611
L46089 62667
L46145 62779
L46145 63398
" />
<path d="M48451 62161
L47439 63679
" />
<path d="M49970 62217
L50082 62217
L50195 62273
L50251 62329
L50307 62442
L50364 62667
L50364 62948
L50307 63173
L50251 63285
L50195 63342
L50082 63398
L49970 63398
L49857 63342
L49801 63285
L49745 63173
L49689 62948
L49689 62667
L49745 62442
L49801 62329
L49857 62273
L49970 62217
" />
<path d="M50870 63285
L50926 63342
L50870 63398
L50814 63342
L50870 63285
L50870 63398
" />
<path d="M51657 62217
L51770 62217
L51882 62273
L51938 62329
L51995 62442
L52051 62667
L52051 62948
L51995 63173
L51938 63285
L51882 63342
L51770 63398
L51657 63398
L51545 63342
L51489 63285
L51432 63173
L51376 62948
L51376 62667
L51432 62442
L51489 62329
L51545 62273
L51657 62217
" />
<path d="M52501 62329
L52557 62273
L52670 62217
L52951 62217
L53063 62273
L53120 62329
L53176 62442
L53176 62554
L53120 62723
L52445 63398
L53176 63398
" />
<path d="M53907 62217
L54019 62217
L54132 62273
L54188 62329
L54244 62442
L54301 62667
L54301 62948
L54244 63173
L54188 63285
L54132 63342
L54019 63398
L53907 63398
L53794 63342
L53738 63285
L53682 63173
L53626 62948
L53626 62667
L53682 62442
L53738 62329
L53794 62273
L53907 62217
" />
<path d="M54751 62217
L54751 62442
" />
<path d="M55201 62217
L55201 62442
" />
<path d="M56944 63848
L56888 63792
L56775 63623
L56719 63510
L56663 63342
L56607 63061
L56607 62836
L56663 62554
L56719 62386
L56775 62273
L56888 62104
L56944 62048
" />
<path d="M57900 62217
L57675 62217
L57563 62273
L57507 62329
L57394 62498
L57338 62723
L57338 63173
L57394 63285
L57450 63342
L57563 63398
L57788 63398
L57900 63342
L57956 63285
L58013 63173
L58013 62892
L57956 62779
L57900 62723
L57788 62667
L57563 62667
L57450 62723
L57394 62779
L57338 62892
" />
<path d="M58406 62217
L59138 62217
L58744 62667
L58913 62667
L59025 62723
L59081 62779
L59138 62892
L59138 63173
L59081 63285
L59025 63342
L58913 63398
L58575 63398
L58463 63342
L58406 63285
" />
<path d="M60544 63398
L60544 62217
" />
<path d="M61050 63398
L61050 62779
L60994 62667
L60881 62611
L60712 62611
L60600 62667
L60544 62723
" />
<path d="M61781 63398
L61669 63342
L61612 63285
L61556 63173
L61556 62836
L61612 62723
L61669 62667
L61781 62611
L61950 62611
L62062 62667
L62118 62723
L62175 62836
L62175 63173
L62118 63285
L62062 63342
L61950 63398
L61781 63398
" />
<path d="M62850 63398
L62737 63342
L62681 63229
L62681 62217
" />
<path d="M63749 63342
L63637 63398
L63412 63398
L63300 63342
L63243 63229
L63243 62779
L63300 62667
L63412 62611
L63637 62611
L63749 62667
L63806 62779
L63806 62892
L63243 63004
" />
<path d="M64256 63342
L64368 63398
L64593 63398
L64706 63342
L64762 63229
L64762 63173
L64706 63061
L64593 63004
L64424 63004
L64312 62948
L64256 62836
L64256 62779
L64312 62667
L64424 62611
L64593 62611
L64706 62667
" />
<path d="M65156 63848
L65212 63792
L65324 63623
L65381 63510
L65437 63342
L65493 63061
L65493 62836
L65437 62554
L65381 62386
L65324 62273
L65212 62104
L65156 62048
" />
<circle cx="38395.7" cy="64423.2" r="157.48" /> 
<path d="M39846 63776
L39959 63776
L40071 63832
L40127 63888
L40184 64001
L40240 64226
L40240 64507
L40184 64732
L40127 64845
L40071 64901
L39959 64957
L39846 64957
L39734 64901
L39678 64845
L39621 64732
L39565 64507
L39565 64226
L39621 64001
L39678 63888
L39734 63832
L39846 63776
" />
<path d="M40746 64845
L40802 64901
L40746 64957
L40690 64901
L40746 64845
L40746 64957
" />
<path d="M41477 64282
L41365 64226
L41309 64170
L41252 64057
L41252 64001
L41309 63888
L41365 63832
L41477 63776
L41702 63776
L41815 63832
L41871 63888
L41927 64001
L41927 64057
L41871 64170
L41815 64226
L41702 64282
L41477 64282
L41365 64338
L41309 64395
L41252 64507
L41252 64732
L41309 64845
L41365 64901
L41477 64957
L41702 64957
L41815 64901
L41871 64845
L41927 64732
L41927 64507
L41871 64395
L41815 64338
L41702 64282
" />
<path d="M42658 63776
L42771 63776
L42883 63832
L42940 63888
L42996 64001
L43052 64226
L43052 64507
L42996 64732
L42940 64845
L42883 64901
L42771 64957
L42658 64957
L42546 64901
L42490 64845
L42433 64732
L42377 64507
L42377 64226
L42433 64001
L42490 63888
L42546 63832
L42658 63776
" />
<path d="M43558 64957
L43558 64170
" />
<path d="M43558 64282
L43615 64226
L43727 64170
L43896 64170
L44008 64226
L44064 64338
L44064 64957
" />
<path d="M44064 64338
L44121 64226
L44233 64170
L44402 64170
L44514 64226
L44571 64338
L44571 64957
" />
<path d="M45133 64957
L45133 64170
" />
<path d="M45133 64282
L45189 64226
L45302 64170
L45471 64170
L45583 64226
L45639 64338
L45639 64957
" />
<path d="M45639 64338
L45696 64226
L45808 64170
L45977 64170
L46089 64226
L46145 64338
L46145 64957
" />
<path d="M48451 63720
L47439 65238
" />
<path d="M49970 63776
L50082 63776
L50195 63832
L50251 63888
L50307 64001
L50364 64226
L50364 64507
L50307 64732
L50251 64845
L50195 64901
L50082 64957
L49970 64957
L49857 64901
L49801 64845
L49745 64732
L49689 64507
L49689 64226
L49745 64001
L49801 63888
L49857 63832
L49970 63776
" />
<path d="M50870 64845
L50926 64901
L50870 64957
L50814 64901
L50870 64845
L50870 64957
" />
<path d="M51657 63776
L51770 63776
L51882 63832
L51938 63888
L51995 64001
L52051 64226
L52051 64507
L51995 64732
L51938 64845
L51882 64901
L51770 64957
L51657 64957
L51545 64901
L51489 64845
L51432 64732
L51376 64507
L51376 64226
L51432 64001
L51489 63888
L51545 63832
L51657 63776
" />
<path d="M52445 63776
L53176 63776
L52782 64226
L52951 64226
L53063 64282
L53120 64338
L53176 64451
L53176 64732
L53120 64845
L53063 64901
L52951 64957
L52613 64957
L52501 64901
L52445 64845
" />
<path d="M54301 64957
L53626 64957
" />
<path d="M53963 64957
L53963 63776
L53851 63945
L53738 64057
L53626 64113
" />
<path d="M54751 63776
L54751 64001
" />
<path d="M55201 63776
L55201 64001
" />
<path d="M56944 65407
L56888 65351
L56775 65182
L56719 65070
L56663 64901
L56607 64620
L56607 64395
L56663 64113
L56719 63945
L56775 63832
L56888 63663
L56944 63607
" />
<path d="M57338 63888
L57394 63832
L57507 63776
L57788 63776
L57900 63832
L57956 63888
L58013 64001
L58013 64113
L57956 64282
L57282 64957
L58013 64957
" />
<path d="M59081 63776
L58519 63776
L58463 64338
L58519 64282
L58631 64226
L58913 64226
L59025 64282
L59081 64338
L59138 64451
L59138 64732
L59081 64845
L59025 64901
L58913 64957
L58631 64957
L58519 64901
L58463 64845
" />
<path d="M59531 63776
L60319 63776
L59812 64957
" />
<path d="M61669 64957
L61669 63776
" />
<path d="M62175 64957
L62175 64338
L62118 64226
L62006 64170
L61837 64170
L61725 64226
L61669 64282
" />
<path d="M62906 64957
L62793 64901
L62737 64845
L62681 64732
L62681 64395
L62737 64282
L62793 64226
L62906 64170
L63075 64170
L63187 64226
L63243 64282
L63300 64395
L63300 64732
L63243 64845
L63187 64901
L63075 64957
L62906 64957
" />
<path d="M63974 64957
L63862 64901
L63806 64788
L63806 63776
" />
<path d="M64874 64901
L64762 64957
L64537 64957
L64424 64901
L64368 64788
L64368 64338
L64424 64226
L64537 64170
L64762 64170
L64874 64226
L64931 64338
L64931 64451
L64368 64563
" />
<path d="M65381 64901
L65493 64957
L65718 64957
L65830 64901
L65887 64788
L65887 64732
L65830 64620
L65718 64563
L65549 64563
L65437 64507
L65381 64395
L65381 64338
L65437 64226
L65549 64170
L65718 64170
L65830 64226
" />
<path d="M66280 65407
L66337 65351
L66449 65182
L66505 65070
L66562 64901
L66618 64620
L66618 64395
L66562 64113
L66505 63945
L66449 63832
L66337 63663
L66280 63607
" />
<path d="M38356 65785
L38356 66179
" />
<path d="M38159 65982
L38553 65982
" />
<path d="M40240 66516
L39565 66516
" />
<path d="M39902 66516
L39902 65335
L39790 65504
L39678 65616
L39565 65672
" />
<path d="M40746 66404
L40802 66460
L40746 66516
L40690 66460
L40746 66404
L40746 66516
" />
<path d="M41534 65335
L41646 65335
L41758 65391
L41815 65447
L41871 65560
L41927 65785
L41927 66066
L41871 66291
L41815 66404
L41758 66460
L41646 66516
L41534 66516
L41421 66460
L41365 66404
L41309 66291
L41252 66066
L41252 65785
L41309 65560
L41365 65447
L41421 65391
L41534 65335
" />
<path d="M42658 65335
L42771 65335
L42883 65391
L42940 65447
L42996 65560
L43052 65785
L43052 66066
L42996 66291
L42940 66404
L42883 66460
L42771 66516
L42658 66516
L42546 66460
L42490 66404
L42433 66291
L42377 66066
L42377 65785
L42433 65560
L42490 65447
L42546 65391
L42658 65335
" />
<path d="M43558 66516
L43558 65729
" />
<path d="M43558 65841
L43615 65785
L43727 65729
L43896 65729
L44008 65785
L44064 65897
L44064 66516
" />
<path d="M44064 65897
L44121 65785
L44233 65729
L44402 65729
L44514 65785
L44571 65897
L44571 66516
" />
<path d="M45133 66516
L45133 65729
" />
<path d="M45133 65841
L45189 65785
L45302 65729
L45471 65729
L45583 65785
L45639 65897
L45639 66516
" />
<path d="M45639 65897
L45696 65785
L45808 65729
L45977 65729
L46089 65785
L46145 65897
L46145 66516
" />
<path d="M48451 65279
L47439 66797
" />
<path d="M49970 65335
L50082 65335
L50195 65391
L50251 65447
L50307 65560
L50364 65785
L50364 66066
L50307 66291
L50251 66404
L50195 66460
L50082 66516
L49970 66516
L49857 66460
L49801 66404
L49745 66291
L49689 66066
L49689 65785
L49745 65560
L49801 65447
L49857 65391
L49970 65335
" />
<path d="M50870 66404
L50926 66460
L50870 66516
L50814 66460
L50870 66404
L50870 66516
" />
<path d="M51657 65335
L51770 65335
L51882 65391
L51938 65447
L51995 65560
L52051 65785
L52051 66066
L51995 66291
L51938 66404
L51882 66460
L51770 66516
L51657 66516
L51545 66460
L51489 66404
L51432 66291
L51376 66066
L51376 65785
L51432 65560
L51489 65447
L51545 65391
L51657 65335
" />
<path d="M52445 65335
L53176 65335
L52782 65785
L52951 65785
L53063 65841
L53120 65897
L53176 66010
L53176 66291
L53120 66404
L53063 66460
L52951 66516
L52613 66516
L52501 66460
L52445 66404
" />
<path d="M53738 66516
L53963 66516
L54076 66460
L54132 66404
L54244 66235
L54301 66010
L54301 65560
L54244 65447
L54188 65391
L54076 65335
L53851 65335
L53738 65391
L53682 65447
L53626 65560
L53626 65841
L53682 65954
L53738 66010
L53851 66066
L54076 66066
L54188 66010
L54244 65954
L54301 65841
" />
<path d="M54751 65335
L54751 65560
" />
<path d="M55201 65335
L55201 65560
" />
<path d="M56944 66966
L56888 66910
L56775 66741
L56719 66629
L56663 66460
L56607 66179
L56607 65954
L56663 65672
L56719 65504
L56775 65391
L56888 65223
L56944 65166
" />
<path d="M57900 65729
L57900 66516
" />
<path d="M57619 65279
L57338 66122
L58069 66122
" />
<path d="M58744 65335
L58856 65335
L58969 65391
L59025 65447
L59081 65560
L59138 65785
L59138 66066
L59081 66291
L59025 66404
L58969 66460
L58856 66516
L58744 66516
L58631 66460
L58575 66404
L58519 66291
L58463 66066
L58463 65785
L58519 65560
L58575 65447
L58631 65391
L58744 65335
" />
<path d="M60544 66516
L60544 65335
" />
<path d="M61050 66516
L61050 65897
L60994 65785
L60881 65729
L60712 65729
L60600 65785
L60544 65841
" />
<path d="M61781 66516
L61669 66460
L61612 66404
L61556 66291
L61556 65954
L61612 65841
L61669 65785
L61781 65729
L61950 65729
L62062 65785
L62118 65841
L62175 65954
L62175 66291
L62118 66404
L62062 66460
L61950 66516
L61781 66516
" />
<path d="M62850 66516
L62737 66460
L62681 66347
L62681 65335
" />
<path d="M63749 66460
L63637 66516
L63412 66516
L63300 66460
L63243 66347
L63243 65897
L63300 65785
L63412 65729
L63637 65729
L63749 65785
L63806 65897
L63806 66010
L63243 66122
" />
<path d="M64256 66460
L64368 66516
L64593 66516
L64706 66460
L64762 66347
L64762 66291
L64706 66179
L64593 66122
L64424 66122
L64312 66066
L64256 65954
L64256 65897
L64312 65785
L64424 65729
L64593 65729
L64706 65785
" />
<path d="M66168 66066
L67068 66066
" />
<path d="M66618 66516
L66618 65616
" />
<path d="M68418 65335
L69149 65335
L68755 65785
L68924 65785
L69036 65841
L69093 65897
L69149 66010
L69149 66291
L69093 66404
L69036 66460
L68924 66516
L68586 66516
L68474 66460
L68418 66404
" />
<path d="M70499 66460
L70611 66516
L70836 66516
L70949 66460
L71005 66347
L71005 66291
L70949 66179
L70836 66122
L70667 66122
L70555 66066
L70499 65954
L70499 65897
L70555 65785
L70667 65729
L70836 65729
L70949 65785
" />
<path d="M71680 66516
L71567 66460
L71511 66347
L71511 65335
" />
<path d="M72298 66516
L72186 66460
L72130 66404
L72073 66291
L72073 65954
L72130 65841
L72186 65785
L72298 65729
L72467 65729
L72580 65785
L72636 65841
L72692 65954
L72692 66291
L72636 66404
L72580 66460
L72467 66516
L72298 66516
" />
<path d="M73030 65729
L73480 65729
" />
<path d="M73198 65335
L73198 66347
L73255 66460
L73367 66516
L73480 66516
" />
<path d="M73817 66460
L73929 66516
L74154 66516
L74267 66460
L74323 66347
L74323 66291
L74267 66179
L74154 66122
L73986 66122
L73873 66066
L73817 65954
L73817 65897
L73873 65785
L73986 65729
L74154 65729
L74267 65785
" />
<path d="M74717 66966
L74773 66910
L74886 66741
L74942 66629
L74998 66460
L75054 66179
L75054 65954
L74998 65672
L74942 65504
L74886 65391
L74773 65223
L74717 65166
" />
<polyline fill="none;"
points="38368,67986
38368,67095
37477,67095
37477,67986
38368,67986
" /> 
<path d="M39509 66894
L40240 66894
L39846 67344
L40015 67344
L40127 67400
L40184 67456
L40240 67569
L40240 67850
L40184 67963
L40127 68019
L40015 68075
L39678 68075
L39565 68019
L39509 67963
" />
<path d="M40746 67963
L40802 68019
L40746 68075
L40690 68019
L40746 67963
L40746 68075
" />
<path d="M41252 67007
L41309 66950
L41421 66894
L41702 66894
L41815 66950
L41871 67007
L41927 67119
L41927 67232
L41871 67400
L41196 68075
L41927 68075
" />
<path d="M42658 66894
L42771 66894
L42883 66950
L42940 67007
L42996 67119
L43052 67344
L43052 67625
L42996 67850
L42940 67963
L42883 68019
L42771 68075
L42658 68075
L42546 68019
L42490 67963
L42433 67850
L42377 67625
L42377 67344
L42433 67119
L42490 67007
L42546 66950
L42658 66894
" />
<path d="M43558 68075
L43558 67288
" />
<path d="M43558 67400
L43615 67344
L43727 67288
L43896 67288
L44008 67344
L44064 67456
L44064 68075
" />
<path d="M44064 67456
L44121 67344
L44233 67288
L44402 67288
L44514 67344
L44571 67456
L44571 68075
" />
<path d="M45133 68075
L45133 67288
" />
<path d="M45133 67400
L45189 67344
L45302 67288
L45471 67288
L45583 67344
L45639 67456
L45639 68075
" />
<path d="M45639 67456
L45696 67344
L45808 67288
L45977 67288
L46089 67344
L46145 67456
L46145 68075
" />
<path d="M48451 66838
L47439 68356
" />
<path d="M49970 66894
L50082 66894
L50195 66950
L50251 67007
L50307 67119
L50364 67344
L50364 67625
L50307 67850
L50251 67963
L50195 68019
L50082 68075
L49970 68075
L49857 68019
L49801 67963
L49745 67850
L49689 67625
L49689 67344
L49745 67119
L49801 67007
L49857 66950
L49970 66894
" />
<path d="M50870 67963
L50926 68019
L50870 68075
L50814 68019
L50870 67963
L50870 68075
" />
<path d="M52051 68075
L51376 68075
" />
<path d="M51714 68075
L51714 66894
L51601 67063
L51489 67175
L51376 67232
" />
<path d="M52501 67007
L52557 66950
L52670 66894
L52951 66894
L53063 66950
L53120 67007
L53176 67119
L53176 67232
L53120 67400
L52445 68075
L53176 68075
" />
<path d="M54188 66894
L53963 66894
L53851 66950
L53794 67007
L53682 67175
L53626 67400
L53626 67850
L53682 67963
L53738 68019
L53851 68075
L54076 68075
L54188 68019
L54244 67963
L54301 67850
L54301 67569
L54244 67456
L54188 67400
L54076 67344
L53851 67344
L53738 67400
L53682 67456
L53626 67569
" />
<path d="M54751 66894
L54751 67119
" />
<path d="M55201 66894
L55201 67119
" />
<path d="M56944 68525
L56888 68469
L56775 68300
L56719 68188
L56663 68019
L56607 67738
L56607 67513
L56663 67232
L56719 67063
L56775 66950
L56888 66782
L56944 66725
" />
<path d="M57900 67288
L57900 68075
" />
<path d="M57619 66838
L57338 67681
L58069 67681
" />
<path d="M59419 68075
L59419 66894
" />
<path d="M59925 68075
L59925 67456
L59869 67344
L59756 67288
L59588 67288
L59475 67344
L59419 67400
" />
<path d="M60656 68075
L60544 68019
L60487 67963
L60431 67850
L60431 67513
L60487 67400
L60544 67344
L60656 67288
L60825 67288
L60937 67344
L60994 67400
L61050 67513
L61050 67850
L60994 67963
L60937 68019
L60825 68075
L60656 68075
" />
<path d="M61725 68075
L61612 68019
L61556 67906
L61556 66894
" />
<path d="M62625 68019
L62512 68075
L62287 68075
L62175 68019
L62118 67906
L62118 67456
L62175 67344
L62287 67288
L62512 67288
L62625 67344
L62681 67456
L62681 67569
L62118 67681
" />
<path d="M63131 68019
L63243 68075
L63468 68075
L63581 68019
L63637 67906
L63637 67850
L63581 67738
L63468 67681
L63300 67681
L63187 67625
L63131 67513
L63131 67456
L63187 67344
L63300 67288
L63468 67288
L63581 67344
" />
<path d="M64031 68525
L64087 68469
L64199 68300
L64256 68188
L64312 68019
L64368 67738
L64368 67513
L64312 67232
L64256 67063
L64199 66950
L64087 66782
L64031 66725
" />
<path d="M66168 68525
L66112 68469
L65999 68300
L65943 68188
L65887 68019
L65830 67738
L65830 67513
L65887 67232
L65943 67063
L65999 66950
L66112 66782
L66168 66725
" />
<path d="M66618 67288
L66618 68075
" />
<path d="M66618 67400
L66674 67344
L66787 67288
L66955 67288
L67068 67344
L67124 67456
L67124 68075
" />
<path d="M67855 68075
L67743 68019
L67687 67963
L67630 67850
L67630 67513
L67687 67400
L67743 67344
L67855 67288
L68024 67288
L68136 67344
L68193 67400
L68249 67513
L68249 67850
L68193 67963
L68136 68019
L68024 68075
L67855 68075
" />
<path d="M68586 67288
L69036 67288
" />
<path d="M68755 66894
L68755 67906
L68811 68019
L68924 68075
L69036 68075
" />
<path d="M70330 67288
L70330 68469
" />
<path d="M70330 67344
L70442 67288
L70667 67288
L70780 67344
L70836 67400
L70892 67513
L70892 67850
L70836 67963
L70780 68019
L70667 68075
L70442 68075
L70330 68019
" />
<path d="M71567 68075
L71455 68019
L71399 67906
L71399 66894
" />
<path d="M72523 68075
L72523 67456
L72467 67344
L72355 67288
L72130 67288
L72017 67344
" />
<path d="M72523 68019
L72411 68075
L72130 68075
L72017 68019
L71961 67906
L71961 67794
L72017 67681
L72130 67625
L72411 67625
L72523 67569
" />
<path d="M72917 67288
L73367 67288
" />
<path d="M73086 66894
L73086 67906
L73142 68019
L73255 68075
L73367 68075
" />
<path d="M74211 68019
L74098 68075
L73873 68075
L73761 68019
L73705 67906
L73705 67456
L73761 67344
L73873 67288
L74098 67288
L74211 67344
L74267 67456
L74267 67569
L73705 67681
" />
<path d="M75279 68075
L75279 66894
" />
<path d="M75279 68019
L75167 68075
L74942 68075
L74829 68019
L74773 67963
L74717 67850
L74717 67513
L74773 67400
L74829 67344
L74942 67288
L75167 67288
L75279 67344
" />
<path d="M75729 68525
L75785 68469
L75898 68300
L75954 68188
L76010 68019
L76067 67738
L76067 67513
L76010 67232
L75954 67063
L75898 66950
L75785 66782
L75729 66725
" />
</g> 
</svg>
