G04 #@! TF.FileFunction,Legend,Bot*
%FSLAX46Y46*%
G04 Gerber Fmt 4.6, Leading zero omitted, Abs format (unit mm)*
G04 Created by KiCad (PCBNEW 4.0.2-stable) date 20/04/2016 14:34:56*
%MOMM*%
G01*
G04 APERTURE LIST*
%ADD10C,0.100000*%
%ADD11C,0.150000*%
G04 APERTURE END LIST*
D10*
D11*
X100000000Y0D02*
X100000000Y100000000D01*
X100000000Y0D02*
X0Y0D01*
X0Y100000000D02*
X100000000Y100000000D01*
X0Y0D02*
X0Y100000000D01*
X60960000Y24765000D02*
X60426600Y24765000D01*
X60960000Y24765000D02*
X61493400Y24765000D01*
X60960000Y23495000D02*
X60426600Y23495000D01*
X60960000Y23495000D02*
X61493400Y23495000D01*
X73025000Y24765000D02*
X72491600Y24765000D01*
X73025000Y24765000D02*
X73558400Y24765000D01*
X73025000Y23495000D02*
X72491600Y23495000D01*
X73025000Y23495000D02*
X73558400Y23495000D01*
X60960000Y21590000D02*
X60426600Y21590000D01*
X60960000Y21590000D02*
X61493400Y21590000D01*
X60960000Y20320000D02*
X60426600Y20320000D01*
X60960000Y20320000D02*
X61493400Y20320000D01*
X73025000Y21590000D02*
X72491600Y21590000D01*
X73025000Y21590000D02*
X73558400Y21590000D01*
X73025000Y20320000D02*
X72491600Y20320000D01*
X73025000Y20320000D02*
X73558400Y20320000D01*
X32384000Y8551500D02*
X32384000Y9084900D01*
X32384000Y8551500D02*
X32384000Y8018100D01*
X31114000Y8551500D02*
X31114000Y9084900D01*
X31114000Y8551500D02*
X31114000Y8018100D01*
X60960000Y13970000D02*
X60426600Y13970000D01*
X60960000Y13970000D02*
X61493400Y13970000D01*
X60960000Y12700000D02*
X60426600Y12700000D01*
X60960000Y12700000D02*
X61493400Y12700000D01*
X73025000Y13970000D02*
X72491600Y13970000D01*
X73025000Y13970000D02*
X73558400Y13970000D01*
X73025000Y12700000D02*
X72491600Y12700000D01*
X73025000Y12700000D02*
X73558400Y12700000D01*
X60960000Y38735000D02*
X60426600Y38735000D01*
X60960000Y38735000D02*
X61493400Y38735000D01*
X60960000Y37465000D02*
X60426600Y37465000D01*
X60960000Y37465000D02*
X61493400Y37465000D01*
X73025000Y38735000D02*
X72491600Y38735000D01*
X73025000Y38735000D02*
X73558400Y38735000D01*
X73025000Y37465000D02*
X72491600Y37465000D01*
X73025000Y37465000D02*
X73558400Y37465000D01*
X60960000Y35560000D02*
X60426600Y35560000D01*
X60960000Y35560000D02*
X61493400Y35560000D01*
X60960000Y34290000D02*
X60426600Y34290000D01*
X60960000Y34290000D02*
X61493400Y34290000D01*
X73025000Y35560000D02*
X72491600Y35560000D01*
X73025000Y35560000D02*
X73558400Y35560000D01*
X73025000Y34290000D02*
X72491600Y34290000D01*
X73025000Y34290000D02*
X73558400Y34290000D01*
X60960000Y28575000D02*
X60426600Y28575000D01*
X60960000Y28575000D02*
X61493400Y28575000D01*
X60960000Y27305000D02*
X60426600Y27305000D01*
X60960000Y27305000D02*
X61493400Y27305000D01*
X73025000Y28575000D02*
X72491600Y28575000D01*
X73025000Y28575000D02*
X73558400Y28575000D01*
X73025000Y27305000D02*
X72491600Y27305000D01*
X73025000Y27305000D02*
X73558400Y27305000D01*
X45338000Y28701500D02*
X44804600Y28701500D01*
X45338000Y28701500D02*
X45871400Y28701500D01*
X45338000Y27431500D02*
X44804600Y27431500D01*
X45338000Y27431500D02*
X45871400Y27431500D01*
X45339000Y35051500D02*
X44805600Y35051500D01*
X45339000Y35051500D02*
X45872400Y35051500D01*
X45339000Y33781500D02*
X44805600Y33781500D01*
X45339000Y33781500D02*
X45872400Y33781500D01*
X19507200Y80467200D02*
X19507200Y79933800D01*
X19507200Y80467200D02*
X19507200Y81000600D01*
X20777200Y80467200D02*
X20777200Y79933800D01*
X20777200Y80467200D02*
X20777200Y81000600D01*
X25857200Y80467200D02*
X25857200Y79933800D01*
X25857200Y80467200D02*
X25857200Y81000600D01*
X27127200Y80467200D02*
X27127200Y79933800D01*
X27127200Y80467200D02*
X27127200Y81000600D01*
X37432300Y40965010D02*
X36898900Y40965010D01*
X37432300Y40965010D02*
X37965700Y40965010D01*
X37432300Y39695010D02*
X36898900Y39695010D01*
X37432300Y39695010D02*
X37965700Y39695010D01*
X37432300Y47315010D02*
X36898900Y47315010D01*
X37432300Y47315010D02*
X37965700Y47315010D01*
X37432300Y46045010D02*
X36898900Y46045010D01*
X37432300Y46045010D02*
X37965700Y46045010D01*
X48133000Y71374000D02*
X48133000Y70840600D01*
X48133000Y71374000D02*
X48133000Y71907400D01*
X49403000Y71374000D02*
X49403000Y70840600D01*
X49403000Y71374000D02*
X49403000Y71907400D01*
X49403000Y62230000D02*
X49403000Y62763400D01*
X49403000Y62230000D02*
X49403000Y61696600D01*
X48133000Y62230000D02*
X48133000Y62763400D01*
X48133000Y62230000D02*
X48133000Y61696600D01*
X66928000Y77266300D02*
X65912000Y77266300D01*
X66928000Y77266300D02*
X67944000Y77266300D01*
X66928000Y75640700D02*
X67944000Y75640700D01*
X66928000Y75640700D02*
X65912000Y75640700D01*
X66878200Y53644300D02*
X65862200Y53644300D01*
X66878200Y53644300D02*
X67894200Y53644300D01*
X66878200Y52018700D02*
X67894200Y52018700D01*
X66878200Y52018700D02*
X65862200Y52018700D01*
X66827400Y80136500D02*
X66294000Y80136500D01*
X66827400Y80136500D02*
X67360800Y80136500D01*
X66827400Y78866500D02*
X66294000Y78866500D01*
X66827400Y78866500D02*
X67360800Y78866500D01*
X66801000Y56768500D02*
X66267600Y56768500D01*
X66801000Y56768500D02*
X67334400Y56768500D01*
X66801000Y55498500D02*
X66267600Y55498500D01*
X66801000Y55498500D02*
X67334400Y55498500D01*
X66827400Y83184500D02*
X66294000Y83184500D01*
X66827400Y83184500D02*
X67360800Y83184500D01*
X66827400Y81914500D02*
X66294000Y81914500D01*
X66827400Y81914500D02*
X67360800Y81914500D01*
X66852800Y59690000D02*
X66319400Y59690000D01*
X66852800Y59690000D02*
X67386200Y59690000D01*
X66852800Y58420000D02*
X66319400Y58420000D01*
X66852800Y58420000D02*
X67386200Y58420000D01*
X60146200Y92125800D02*
X60146200Y91109800D01*
X60146200Y92125800D02*
X60146200Y93141800D01*
X61771800Y92125800D02*
X61771800Y93141800D01*
X61771800Y92125800D02*
X61771800Y91109800D01*
X47879000Y47446700D02*
X48895000Y47446700D01*
X47879000Y47446700D02*
X46863000Y47446700D01*
X47879000Y49072300D02*
X46863000Y49072300D01*
X47879000Y49072300D02*
X48895000Y49072300D01*
X56768000Y92278200D02*
X56768000Y91744800D01*
X56768000Y92278200D02*
X56768000Y92811600D01*
X58038000Y92278200D02*
X58038000Y91744800D01*
X58038000Y92278200D02*
X58038000Y92811600D01*
X47752000Y50672500D02*
X48285400Y50672500D01*
X47752000Y50672500D02*
X47218600Y50672500D01*
X47752000Y51942500D02*
X48285400Y51942500D01*
X47752000Y51942500D02*
X47218600Y51942500D01*
X53543200Y92270400D02*
X53543200Y91737000D01*
X53543200Y92270400D02*
X53543200Y92803800D01*
X54813200Y92270400D02*
X54813200Y91737000D01*
X54813200Y92270400D02*
X54813200Y92803800D01*
X47751000Y53720500D02*
X48284400Y53720500D01*
X47751000Y53720500D02*
X47217600Y53720500D01*
X47751000Y54990500D02*
X48284400Y54990500D01*
X47751000Y54990500D02*
X47217600Y54990500D01*
X53975000Y87122000D02*
X53441600Y87122000D01*
X53975000Y87122000D02*
X54508400Y87122000D01*
X53975000Y85852000D02*
X53441600Y85852000D01*
X53975000Y85852000D02*
X54508400Y85852000D01*
X57912000Y45974000D02*
X57378600Y45974000D01*
X57912000Y45974000D02*
X58445400Y45974000D01*
X57912000Y44704000D02*
X57378600Y44704000D01*
X57912000Y44704000D02*
X58445400Y44704000D01*
X53975000Y80708500D02*
X53441600Y80708500D01*
X53975000Y80708500D02*
X54508400Y80708500D01*
X53975000Y79438500D02*
X53441600Y79438500D01*
X53975000Y79438500D02*
X54508400Y79438500D01*
X57912000Y50927000D02*
X57378600Y50927000D01*
X57912000Y50927000D02*
X58445400Y50927000D01*
X57912000Y49657000D02*
X57378600Y49657000D01*
X57912000Y49657000D02*
X58445400Y49657000D01*
X45454000Y23991500D02*
X45454000Y25791500D01*
X46154000Y24891500D02*
X45754000Y24891500D01*
X46654000Y24891500D02*
X47054000Y24891500D01*
X46154000Y24491500D02*
X46154000Y25291500D01*
X46654000Y25291500D02*
X46254000Y24891500D01*
X46654000Y24491500D02*
X46654000Y25291500D01*
X46254000Y24891500D02*
X46654000Y24491500D01*
X47954000Y25791500D02*
X47954000Y25691500D01*
X44954000Y25791500D02*
X47954000Y25791500D01*
X44954000Y25691500D02*
X44954000Y25791500D01*
X47754000Y23991500D02*
X47754000Y24091500D01*
X46354000Y23991500D02*
X47754000Y23991500D01*
X44954000Y23991500D02*
X44954000Y24091500D01*
X46354000Y23991500D02*
X44954000Y23991500D01*
X35813000Y9016500D02*
X36346400Y9016500D01*
X35813000Y9016500D02*
X35279600Y9016500D01*
X35813000Y10286500D02*
X36346400Y10286500D01*
X35813000Y10286500D02*
X35279600Y10286500D01*
X32849000Y5460500D02*
X32315600Y5460500D01*
X32849000Y5460500D02*
X33382400Y5460500D01*
X32849000Y4190500D02*
X32315600Y4190500D01*
X32849000Y4190500D02*
X33382400Y4190500D01*
X17779000Y69214500D02*
X18312400Y69214500D01*
X17779000Y69214500D02*
X17245600Y69214500D01*
X17779000Y70484500D02*
X18312400Y70484500D01*
X17779000Y70484500D02*
X17245600Y70484500D01*
X17780000Y66675000D02*
X18313400Y66675000D01*
X17780000Y66675000D02*
X17246600Y66675000D01*
X17780000Y67945000D02*
X18313400Y67945000D01*
X17780000Y67945000D02*
X17246600Y67945000D01*
X17780000Y64135000D02*
X18313400Y64135000D01*
X17780000Y64135000D02*
X17246600Y64135000D01*
X17780000Y65405000D02*
X18313400Y65405000D01*
X17780000Y65405000D02*
X17246600Y65405000D01*
X17780000Y61595000D02*
X18313400Y61595000D01*
X17780000Y61595000D02*
X17246600Y61595000D01*
X17780000Y62865000D02*
X18313400Y62865000D01*
X17780000Y62865000D02*
X17246600Y62865000D01*
X35061160Y84860900D02*
X35061160Y85394300D01*
X35061160Y84860900D02*
X35061160Y84327500D01*
X33791160Y84860900D02*
X33791160Y85394300D01*
X33791160Y84860900D02*
X33791160Y84327500D01*
X74421000Y62127708D02*
X74954400Y62127708D01*
X74421000Y62127708D02*
X73887600Y62127708D01*
X74421000Y63397708D02*
X74954400Y63397708D01*
X74421000Y63397708D02*
X73887600Y63397708D01*
X74421000Y59502708D02*
X74954400Y59502708D01*
X74421000Y59502708D02*
X73887600Y59502708D01*
X74421000Y60772708D02*
X74954400Y60772708D01*
X74421000Y60772708D02*
X73887600Y60772708D01*
X74167000Y71258384D02*
X74700400Y71258384D01*
X74167000Y71258384D02*
X73633600Y71258384D01*
X74167000Y72528384D02*
X74700400Y72528384D01*
X74167000Y72528384D02*
X73633600Y72528384D01*
X73913000Y49656500D02*
X74446400Y49656500D01*
X73913000Y49656500D02*
X73379600Y49656500D01*
X73913000Y50926500D02*
X74446400Y50926500D01*
X73913000Y50926500D02*
X73379600Y50926500D01*
X74167000Y73671384D02*
X74700400Y73671384D01*
X74167000Y73671384D02*
X73633600Y73671384D01*
X74167000Y74941384D02*
X74700400Y74941384D01*
X74167000Y74941384D02*
X73633600Y74941384D01*
X73913000Y47243500D02*
X74446400Y47243500D01*
X73913000Y47243500D02*
X73379600Y47243500D01*
X73913000Y48513500D02*
X74446400Y48513500D01*
X73913000Y48513500D02*
X73379600Y48513500D01*
X22986000Y70992500D02*
X22986000Y70459100D01*
X22986000Y70992500D02*
X22986000Y71525900D01*
X24256000Y70992500D02*
X24256000Y70459100D01*
X24256000Y70992500D02*
X24256000Y71525900D01*
X42201000Y8751500D02*
X42201000Y10551500D01*
X42901000Y9651500D02*
X42501000Y9651500D01*
X43401000Y9651500D02*
X43801000Y9651500D01*
X42901000Y9251500D02*
X42901000Y10051500D01*
X43401000Y10051500D02*
X43001000Y9651500D01*
X43401000Y9251500D02*
X43401000Y10051500D01*
X43001000Y9651500D02*
X43401000Y9251500D01*
X44701000Y10551500D02*
X44701000Y10451500D01*
X41701000Y10551500D02*
X44701000Y10551500D01*
X41701000Y10451500D02*
X41701000Y10551500D01*
X44501000Y8751500D02*
X44501000Y8851500D01*
X43101000Y8751500D02*
X44501000Y8751500D01*
X41701000Y8751500D02*
X41701000Y8851500D01*
X43101000Y8751500D02*
X41701000Y8751500D01*
X53710000Y11060000D02*
X55510000Y11060000D01*
X54610000Y10360000D02*
X54610000Y10760000D01*
X54610000Y9860000D02*
X54610000Y9460000D01*
X54210000Y10360000D02*
X55010000Y10360000D01*
X55010000Y9860000D02*
X54610000Y10260000D01*
X54210000Y9860000D02*
X55010000Y9860000D01*
X54610000Y10260000D02*
X54210000Y9860000D01*
X55510000Y8560000D02*
X55410000Y8560000D01*
X55510000Y11560000D02*
X55510000Y8560000D01*
X55410000Y11560000D02*
X55510000Y11560000D01*
X53710000Y8760000D02*
X53810000Y8760000D01*
X53710000Y10160000D02*
X53710000Y8760000D01*
X53710000Y11560000D02*
X53810000Y11560000D01*
X53710000Y10160000D02*
X53710000Y11560000D01*
X80275000Y9260000D02*
X78475000Y9260000D01*
X79375000Y9960000D02*
X79375000Y9560000D01*
X79375000Y10460000D02*
X79375000Y10860000D01*
X79775000Y9960000D02*
X78975000Y9960000D01*
X78975000Y10460000D02*
X79375000Y10060000D01*
X79775000Y10460000D02*
X78975000Y10460000D01*
X79375000Y10060000D02*
X79775000Y10460000D01*
X78475000Y11760000D02*
X78575000Y11760000D01*
X78475000Y8760000D02*
X78475000Y11760000D01*
X78575000Y8760000D02*
X78475000Y8760000D01*
X80275000Y11560000D02*
X80175000Y11560000D01*
X80275000Y10160000D02*
X80275000Y11560000D01*
X80275000Y8760000D02*
X80175000Y8760000D01*
X80275000Y10160000D02*
X80275000Y8760000D01*
X58268047Y23645357D02*
X58315666Y23597738D01*
X58458523Y23550119D01*
X58553761Y23550119D01*
X58696619Y23597738D01*
X58791857Y23692976D01*
X58839476Y23788214D01*
X58887095Y23978690D01*
X58887095Y24121548D01*
X58839476Y24312024D01*
X58791857Y24407262D01*
X58696619Y24502500D01*
X58553761Y24550119D01*
X58458523Y24550119D01*
X58315666Y24502500D01*
X58268047Y24454881D01*
X57887095Y24454881D02*
X57839476Y24502500D01*
X57744238Y24550119D01*
X57506142Y24550119D01*
X57410904Y24502500D01*
X57363285Y24454881D01*
X57315666Y24359643D01*
X57315666Y24264405D01*
X57363285Y24121548D01*
X57934714Y23550119D01*
X57315666Y23550119D01*
X56696619Y24550119D02*
X56601380Y24550119D01*
X56506142Y24502500D01*
X56458523Y24454881D01*
X56410904Y24359643D01*
X56363285Y24169167D01*
X56363285Y23931071D01*
X56410904Y23740595D01*
X56458523Y23645357D01*
X56506142Y23597738D01*
X56601380Y23550119D01*
X56696619Y23550119D01*
X56791857Y23597738D01*
X56839476Y23645357D01*
X56887095Y23740595D01*
X56934714Y23931071D01*
X56934714Y24169167D01*
X56887095Y24359643D01*
X56839476Y24454881D01*
X56791857Y24502500D01*
X56696619Y24550119D01*
X56029952Y24550119D02*
X55410904Y24550119D01*
X55744238Y24169167D01*
X55601380Y24169167D01*
X55506142Y24121548D01*
X55458523Y24073929D01*
X55410904Y23978690D01*
X55410904Y23740595D01*
X55458523Y23645357D01*
X55506142Y23597738D01*
X55601380Y23550119D01*
X55887095Y23550119D01*
X55982333Y23597738D01*
X56029952Y23645357D01*
X77953047Y23645357D02*
X78000666Y23597738D01*
X78143523Y23550119D01*
X78238761Y23550119D01*
X78381619Y23597738D01*
X78476857Y23692976D01*
X78524476Y23788214D01*
X78572095Y23978690D01*
X78572095Y24121548D01*
X78524476Y24312024D01*
X78476857Y24407262D01*
X78381619Y24502500D01*
X78238761Y24550119D01*
X78143523Y24550119D01*
X78000666Y24502500D01*
X77953047Y24454881D01*
X77572095Y24454881D02*
X77524476Y24502500D01*
X77429238Y24550119D01*
X77191142Y24550119D01*
X77095904Y24502500D01*
X77048285Y24454881D01*
X77000666Y24359643D01*
X77000666Y24264405D01*
X77048285Y24121548D01*
X77619714Y23550119D01*
X77000666Y23550119D01*
X76381619Y24550119D02*
X76286380Y24550119D01*
X76191142Y24502500D01*
X76143523Y24454881D01*
X76095904Y24359643D01*
X76048285Y24169167D01*
X76048285Y23931071D01*
X76095904Y23740595D01*
X76143523Y23645357D01*
X76191142Y23597738D01*
X76286380Y23550119D01*
X76381619Y23550119D01*
X76476857Y23597738D01*
X76524476Y23645357D01*
X76572095Y23740595D01*
X76619714Y23931071D01*
X76619714Y24169167D01*
X76572095Y24359643D01*
X76524476Y24454881D01*
X76476857Y24502500D01*
X76381619Y24550119D01*
X75191142Y24216786D02*
X75191142Y23550119D01*
X75429238Y24597738D02*
X75667333Y23883452D01*
X75048285Y23883452D01*
X58268047Y20470357D02*
X58315666Y20422738D01*
X58458523Y20375119D01*
X58553761Y20375119D01*
X58696619Y20422738D01*
X58791857Y20517976D01*
X58839476Y20613214D01*
X58887095Y20803690D01*
X58887095Y20946548D01*
X58839476Y21137024D01*
X58791857Y21232262D01*
X58696619Y21327500D01*
X58553761Y21375119D01*
X58458523Y21375119D01*
X58315666Y21327500D01*
X58268047Y21279881D01*
X57887095Y21279881D02*
X57839476Y21327500D01*
X57744238Y21375119D01*
X57506142Y21375119D01*
X57410904Y21327500D01*
X57363285Y21279881D01*
X57315666Y21184643D01*
X57315666Y21089405D01*
X57363285Y20946548D01*
X57934714Y20375119D01*
X57315666Y20375119D01*
X56696619Y21375119D02*
X56601380Y21375119D01*
X56506142Y21327500D01*
X56458523Y21279881D01*
X56410904Y21184643D01*
X56363285Y20994167D01*
X56363285Y20756071D01*
X56410904Y20565595D01*
X56458523Y20470357D01*
X56506142Y20422738D01*
X56601380Y20375119D01*
X56696619Y20375119D01*
X56791857Y20422738D01*
X56839476Y20470357D01*
X56887095Y20565595D01*
X56934714Y20756071D01*
X56934714Y20994167D01*
X56887095Y21184643D01*
X56839476Y21279881D01*
X56791857Y21327500D01*
X56696619Y21375119D01*
X55458523Y21375119D02*
X55934714Y21375119D01*
X55982333Y20898929D01*
X55934714Y20946548D01*
X55839476Y20994167D01*
X55601380Y20994167D01*
X55506142Y20946548D01*
X55458523Y20898929D01*
X55410904Y20803690D01*
X55410904Y20565595D01*
X55458523Y20470357D01*
X55506142Y20422738D01*
X55601380Y20375119D01*
X55839476Y20375119D01*
X55934714Y20422738D01*
X55982333Y20470357D01*
X77953047Y20597357D02*
X78000666Y20549738D01*
X78143523Y20502119D01*
X78238761Y20502119D01*
X78381619Y20549738D01*
X78476857Y20644976D01*
X78524476Y20740214D01*
X78572095Y20930690D01*
X78572095Y21073548D01*
X78524476Y21264024D01*
X78476857Y21359262D01*
X78381619Y21454500D01*
X78238761Y21502119D01*
X78143523Y21502119D01*
X78000666Y21454500D01*
X77953047Y21406881D01*
X77572095Y21406881D02*
X77524476Y21454500D01*
X77429238Y21502119D01*
X77191142Y21502119D01*
X77095904Y21454500D01*
X77048285Y21406881D01*
X77000666Y21311643D01*
X77000666Y21216405D01*
X77048285Y21073548D01*
X77619714Y20502119D01*
X77000666Y20502119D01*
X76381619Y21502119D02*
X76286380Y21502119D01*
X76191142Y21454500D01*
X76143523Y21406881D01*
X76095904Y21311643D01*
X76048285Y21121167D01*
X76048285Y20883071D01*
X76095904Y20692595D01*
X76143523Y20597357D01*
X76191142Y20549738D01*
X76286380Y20502119D01*
X76381619Y20502119D01*
X76476857Y20549738D01*
X76524476Y20597357D01*
X76572095Y20692595D01*
X76619714Y20883071D01*
X76619714Y21121167D01*
X76572095Y21311643D01*
X76524476Y21406881D01*
X76476857Y21454500D01*
X76381619Y21502119D01*
X75191142Y21502119D02*
X75381619Y21502119D01*
X75476857Y21454500D01*
X75524476Y21406881D01*
X75619714Y21264024D01*
X75667333Y21073548D01*
X75667333Y20692595D01*
X75619714Y20597357D01*
X75572095Y20549738D01*
X75476857Y20502119D01*
X75286380Y20502119D01*
X75191142Y20549738D01*
X75143523Y20597357D01*
X75095904Y20692595D01*
X75095904Y20930690D01*
X75143523Y21025929D01*
X75191142Y21073548D01*
X75286380Y21121167D01*
X75476857Y21121167D01*
X75572095Y21073548D01*
X75619714Y21025929D01*
X75667333Y20930690D01*
X30456143Y9755047D02*
X30503762Y9802666D01*
X30551381Y9945523D01*
X30551381Y10040761D01*
X30503762Y10183619D01*
X30408524Y10278857D01*
X30313286Y10326476D01*
X30122810Y10374095D01*
X29979952Y10374095D01*
X29789476Y10326476D01*
X29694238Y10278857D01*
X29599000Y10183619D01*
X29551381Y10040761D01*
X29551381Y9945523D01*
X29599000Y9802666D01*
X29646619Y9755047D01*
X29646619Y9374095D02*
X29599000Y9326476D01*
X29551381Y9231238D01*
X29551381Y8993142D01*
X29599000Y8897904D01*
X29646619Y8850285D01*
X29741857Y8802666D01*
X29837095Y8802666D01*
X29979952Y8850285D01*
X30551381Y9421714D01*
X30551381Y8802666D01*
X29551381Y8183619D02*
X29551381Y8088380D01*
X29599000Y7993142D01*
X29646619Y7945523D01*
X29741857Y7897904D01*
X29932333Y7850285D01*
X30170429Y7850285D01*
X30360905Y7897904D01*
X30456143Y7945523D01*
X30503762Y7993142D01*
X30551381Y8088380D01*
X30551381Y8183619D01*
X30503762Y8278857D01*
X30456143Y8326476D01*
X30360905Y8374095D01*
X30170429Y8421714D01*
X29932333Y8421714D01*
X29741857Y8374095D01*
X29646619Y8326476D01*
X29599000Y8278857D01*
X29551381Y8183619D01*
X29551381Y7516952D02*
X29551381Y6850285D01*
X30551381Y7278857D01*
X62079047Y11072857D02*
X62126666Y11025238D01*
X62269523Y10977619D01*
X62364761Y10977619D01*
X62507619Y11025238D01*
X62602857Y11120476D01*
X62650476Y11215714D01*
X62698095Y11406190D01*
X62698095Y11549048D01*
X62650476Y11739524D01*
X62602857Y11834762D01*
X62507619Y11930000D01*
X62364761Y11977619D01*
X62269523Y11977619D01*
X62126666Y11930000D01*
X62079047Y11882381D01*
X61698095Y11882381D02*
X61650476Y11930000D01*
X61555238Y11977619D01*
X61317142Y11977619D01*
X61221904Y11930000D01*
X61174285Y11882381D01*
X61126666Y11787143D01*
X61126666Y11691905D01*
X61174285Y11549048D01*
X61745714Y10977619D01*
X61126666Y10977619D01*
X60507619Y11977619D02*
X60412380Y11977619D01*
X60317142Y11930000D01*
X60269523Y11882381D01*
X60221904Y11787143D01*
X60174285Y11596667D01*
X60174285Y11358571D01*
X60221904Y11168095D01*
X60269523Y11072857D01*
X60317142Y11025238D01*
X60412380Y10977619D01*
X60507619Y10977619D01*
X60602857Y11025238D01*
X60650476Y11072857D01*
X60698095Y11168095D01*
X60745714Y11358571D01*
X60745714Y11596667D01*
X60698095Y11787143D01*
X60650476Y11882381D01*
X60602857Y11930000D01*
X60507619Y11977619D01*
X59602857Y11549048D02*
X59698095Y11596667D01*
X59745714Y11644286D01*
X59793333Y11739524D01*
X59793333Y11787143D01*
X59745714Y11882381D01*
X59698095Y11930000D01*
X59602857Y11977619D01*
X59412380Y11977619D01*
X59317142Y11930000D01*
X59269523Y11882381D01*
X59221904Y11787143D01*
X59221904Y11739524D01*
X59269523Y11644286D01*
X59317142Y11596667D01*
X59412380Y11549048D01*
X59602857Y11549048D01*
X59698095Y11501429D01*
X59745714Y11453810D01*
X59793333Y11358571D01*
X59793333Y11168095D01*
X59745714Y11072857D01*
X59698095Y11025238D01*
X59602857Y10977619D01*
X59412380Y10977619D01*
X59317142Y11025238D01*
X59269523Y11072857D01*
X59221904Y11168095D01*
X59221904Y11358571D01*
X59269523Y11453810D01*
X59317142Y11501429D01*
X59412380Y11549048D01*
X74143047Y11072857D02*
X74190666Y11025238D01*
X74333523Y10977619D01*
X74428761Y10977619D01*
X74571619Y11025238D01*
X74666857Y11120476D01*
X74714476Y11215714D01*
X74762095Y11406190D01*
X74762095Y11549048D01*
X74714476Y11739524D01*
X74666857Y11834762D01*
X74571619Y11930000D01*
X74428761Y11977619D01*
X74333523Y11977619D01*
X74190666Y11930000D01*
X74143047Y11882381D01*
X73762095Y11882381D02*
X73714476Y11930000D01*
X73619238Y11977619D01*
X73381142Y11977619D01*
X73285904Y11930000D01*
X73238285Y11882381D01*
X73190666Y11787143D01*
X73190666Y11691905D01*
X73238285Y11549048D01*
X73809714Y10977619D01*
X73190666Y10977619D01*
X72571619Y11977619D02*
X72476380Y11977619D01*
X72381142Y11930000D01*
X72333523Y11882381D01*
X72285904Y11787143D01*
X72238285Y11596667D01*
X72238285Y11358571D01*
X72285904Y11168095D01*
X72333523Y11072857D01*
X72381142Y11025238D01*
X72476380Y10977619D01*
X72571619Y10977619D01*
X72666857Y11025238D01*
X72714476Y11072857D01*
X72762095Y11168095D01*
X72809714Y11358571D01*
X72809714Y11596667D01*
X72762095Y11787143D01*
X72714476Y11882381D01*
X72666857Y11930000D01*
X72571619Y11977619D01*
X71762095Y10977619D02*
X71571619Y10977619D01*
X71476380Y11025238D01*
X71428761Y11072857D01*
X71333523Y11215714D01*
X71285904Y11406190D01*
X71285904Y11787143D01*
X71333523Y11882381D01*
X71381142Y11930000D01*
X71476380Y11977619D01*
X71666857Y11977619D01*
X71762095Y11930000D01*
X71809714Y11882381D01*
X71857333Y11787143D01*
X71857333Y11549048D01*
X71809714Y11453810D01*
X71762095Y11406190D01*
X71666857Y11358571D01*
X71476380Y11358571D01*
X71381142Y11406190D01*
X71333523Y11453810D01*
X71285904Y11549048D01*
X62333047Y39520857D02*
X62380666Y39473238D01*
X62523523Y39425619D01*
X62618761Y39425619D01*
X62761619Y39473238D01*
X62856857Y39568476D01*
X62904476Y39663714D01*
X62952095Y39854190D01*
X62952095Y39997048D01*
X62904476Y40187524D01*
X62856857Y40282762D01*
X62761619Y40378000D01*
X62618761Y40425619D01*
X62523523Y40425619D01*
X62380666Y40378000D01*
X62333047Y40330381D01*
X61952095Y40330381D02*
X61904476Y40378000D01*
X61809238Y40425619D01*
X61571142Y40425619D01*
X61475904Y40378000D01*
X61428285Y40330381D01*
X61380666Y40235143D01*
X61380666Y40139905D01*
X61428285Y39997048D01*
X61999714Y39425619D01*
X61380666Y39425619D01*
X60428285Y39425619D02*
X60999714Y39425619D01*
X60714000Y39425619D02*
X60714000Y40425619D01*
X60809238Y40282762D01*
X60904476Y40187524D01*
X60999714Y40139905D01*
X59856857Y39997048D02*
X59952095Y40044667D01*
X59999714Y40092286D01*
X60047333Y40187524D01*
X60047333Y40235143D01*
X59999714Y40330381D01*
X59952095Y40378000D01*
X59856857Y40425619D01*
X59666380Y40425619D01*
X59571142Y40378000D01*
X59523523Y40330381D01*
X59475904Y40235143D01*
X59475904Y40187524D01*
X59523523Y40092286D01*
X59571142Y40044667D01*
X59666380Y39997048D01*
X59856857Y39997048D01*
X59952095Y39949429D01*
X59999714Y39901810D01*
X60047333Y39806571D01*
X60047333Y39616095D01*
X59999714Y39520857D01*
X59952095Y39473238D01*
X59856857Y39425619D01*
X59666380Y39425619D01*
X59571142Y39473238D01*
X59523523Y39520857D01*
X59475904Y39616095D01*
X59475904Y39806571D01*
X59523523Y39901810D01*
X59571142Y39949429D01*
X59666380Y39997048D01*
X74017047Y39266857D02*
X74064666Y39219238D01*
X74207523Y39171619D01*
X74302761Y39171619D01*
X74445619Y39219238D01*
X74540857Y39314476D01*
X74588476Y39409714D01*
X74636095Y39600190D01*
X74636095Y39743048D01*
X74588476Y39933524D01*
X74540857Y40028762D01*
X74445619Y40124000D01*
X74302761Y40171619D01*
X74207523Y40171619D01*
X74064666Y40124000D01*
X74017047Y40076381D01*
X73636095Y40076381D02*
X73588476Y40124000D01*
X73493238Y40171619D01*
X73255142Y40171619D01*
X73159904Y40124000D01*
X73112285Y40076381D01*
X73064666Y39981143D01*
X73064666Y39885905D01*
X73112285Y39743048D01*
X73683714Y39171619D01*
X73064666Y39171619D01*
X72112285Y39171619D02*
X72683714Y39171619D01*
X72398000Y39171619D02*
X72398000Y40171619D01*
X72493238Y40028762D01*
X72588476Y39933524D01*
X72683714Y39885905D01*
X71636095Y39171619D02*
X71445619Y39171619D01*
X71350380Y39219238D01*
X71302761Y39266857D01*
X71207523Y39409714D01*
X71159904Y39600190D01*
X71159904Y39981143D01*
X71207523Y40076381D01*
X71255142Y40124000D01*
X71350380Y40171619D01*
X71540857Y40171619D01*
X71636095Y40124000D01*
X71683714Y40076381D01*
X71731333Y39981143D01*
X71731333Y39743048D01*
X71683714Y39647810D01*
X71636095Y39600190D01*
X71540857Y39552571D01*
X71350380Y39552571D01*
X71255142Y39600190D01*
X71207523Y39647810D01*
X71159904Y39743048D01*
X62333047Y32916857D02*
X62380666Y32869238D01*
X62523523Y32821619D01*
X62618761Y32821619D01*
X62761619Y32869238D01*
X62856857Y32964476D01*
X62904476Y33059714D01*
X62952095Y33250190D01*
X62952095Y33393048D01*
X62904476Y33583524D01*
X62856857Y33678762D01*
X62761619Y33774000D01*
X62618761Y33821619D01*
X62523523Y33821619D01*
X62380666Y33774000D01*
X62333047Y33726381D01*
X61952095Y33726381D02*
X61904476Y33774000D01*
X61809238Y33821619D01*
X61571142Y33821619D01*
X61475904Y33774000D01*
X61428285Y33726381D01*
X61380666Y33631143D01*
X61380666Y33535905D01*
X61428285Y33393048D01*
X61999714Y32821619D01*
X61380666Y32821619D01*
X60999714Y33726381D02*
X60952095Y33774000D01*
X60856857Y33821619D01*
X60618761Y33821619D01*
X60523523Y33774000D01*
X60475904Y33726381D01*
X60428285Y33631143D01*
X60428285Y33535905D01*
X60475904Y33393048D01*
X61047333Y32821619D01*
X60428285Y32821619D01*
X59809238Y33821619D02*
X59713999Y33821619D01*
X59618761Y33774000D01*
X59571142Y33726381D01*
X59523523Y33631143D01*
X59475904Y33440667D01*
X59475904Y33202571D01*
X59523523Y33012095D01*
X59571142Y32916857D01*
X59618761Y32869238D01*
X59713999Y32821619D01*
X59809238Y32821619D01*
X59904476Y32869238D01*
X59952095Y32916857D01*
X59999714Y33012095D01*
X60047333Y33202571D01*
X60047333Y33440667D01*
X59999714Y33631143D01*
X59952095Y33726381D01*
X59904476Y33774000D01*
X59809238Y33821619D01*
X74017047Y32916857D02*
X74064666Y32869238D01*
X74207523Y32821619D01*
X74302761Y32821619D01*
X74445619Y32869238D01*
X74540857Y32964476D01*
X74588476Y33059714D01*
X74636095Y33250190D01*
X74636095Y33393048D01*
X74588476Y33583524D01*
X74540857Y33678762D01*
X74445619Y33774000D01*
X74302761Y33821619D01*
X74207523Y33821619D01*
X74064666Y33774000D01*
X74017047Y33726381D01*
X73636095Y33726381D02*
X73588476Y33774000D01*
X73493238Y33821619D01*
X73255142Y33821619D01*
X73159904Y33774000D01*
X73112285Y33726381D01*
X73064666Y33631143D01*
X73064666Y33535905D01*
X73112285Y33393048D01*
X73683714Y32821619D01*
X73064666Y32821619D01*
X72683714Y33726381D02*
X72636095Y33774000D01*
X72540857Y33821619D01*
X72302761Y33821619D01*
X72207523Y33774000D01*
X72159904Y33726381D01*
X72112285Y33631143D01*
X72112285Y33535905D01*
X72159904Y33393048D01*
X72731333Y32821619D01*
X72112285Y32821619D01*
X71159904Y32821619D02*
X71731333Y32821619D01*
X71445619Y32821619D02*
X71445619Y33821619D01*
X71540857Y33678762D01*
X71636095Y33583524D01*
X71731333Y33535905D01*
X58268047Y27455357D02*
X58315666Y27407738D01*
X58458523Y27360119D01*
X58553761Y27360119D01*
X58696619Y27407738D01*
X58791857Y27502976D01*
X58839476Y27598214D01*
X58887095Y27788690D01*
X58887095Y27931548D01*
X58839476Y28122024D01*
X58791857Y28217262D01*
X58696619Y28312500D01*
X58553761Y28360119D01*
X58458523Y28360119D01*
X58315666Y28312500D01*
X58268047Y28264881D01*
X57887095Y28264881D02*
X57839476Y28312500D01*
X57744238Y28360119D01*
X57506142Y28360119D01*
X57410904Y28312500D01*
X57363285Y28264881D01*
X57315666Y28169643D01*
X57315666Y28074405D01*
X57363285Y27931548D01*
X57934714Y27360119D01*
X57315666Y27360119D01*
X56934714Y28264881D02*
X56887095Y28312500D01*
X56791857Y28360119D01*
X56553761Y28360119D01*
X56458523Y28312500D01*
X56410904Y28264881D01*
X56363285Y28169643D01*
X56363285Y28074405D01*
X56410904Y27931548D01*
X56982333Y27360119D01*
X56363285Y27360119D01*
X55982333Y28264881D02*
X55934714Y28312500D01*
X55839476Y28360119D01*
X55601380Y28360119D01*
X55506142Y28312500D01*
X55458523Y28264881D01*
X55410904Y28169643D01*
X55410904Y28074405D01*
X55458523Y27931548D01*
X56029952Y27360119D01*
X55410904Y27360119D01*
X78081047Y27582857D02*
X78128666Y27535238D01*
X78271523Y27487619D01*
X78366761Y27487619D01*
X78509619Y27535238D01*
X78604857Y27630476D01*
X78652476Y27725714D01*
X78700095Y27916190D01*
X78700095Y28059048D01*
X78652476Y28249524D01*
X78604857Y28344762D01*
X78509619Y28440000D01*
X78366761Y28487619D01*
X78271523Y28487619D01*
X78128666Y28440000D01*
X78081047Y28392381D01*
X77700095Y28392381D02*
X77652476Y28440000D01*
X77557238Y28487619D01*
X77319142Y28487619D01*
X77223904Y28440000D01*
X77176285Y28392381D01*
X77128666Y28297143D01*
X77128666Y28201905D01*
X77176285Y28059048D01*
X77747714Y27487619D01*
X77128666Y27487619D01*
X76747714Y28392381D02*
X76700095Y28440000D01*
X76604857Y28487619D01*
X76366761Y28487619D01*
X76271523Y28440000D01*
X76223904Y28392381D01*
X76176285Y28297143D01*
X76176285Y28201905D01*
X76223904Y28059048D01*
X76795333Y27487619D01*
X76176285Y27487619D01*
X75842952Y28487619D02*
X75223904Y28487619D01*
X75557238Y28106667D01*
X75414380Y28106667D01*
X75319142Y28059048D01*
X75271523Y28011429D01*
X75223904Y27916190D01*
X75223904Y27678095D01*
X75271523Y27582857D01*
X75319142Y27535238D01*
X75414380Y27487619D01*
X75700095Y27487619D01*
X75795333Y27535238D01*
X75842952Y27582857D01*
X50394047Y28217357D02*
X50441666Y28169738D01*
X50584523Y28122119D01*
X50679761Y28122119D01*
X50822619Y28169738D01*
X50917857Y28264976D01*
X50965476Y28360214D01*
X51013095Y28550690D01*
X51013095Y28693548D01*
X50965476Y28884024D01*
X50917857Y28979262D01*
X50822619Y29074500D01*
X50679761Y29122119D01*
X50584523Y29122119D01*
X50441666Y29074500D01*
X50394047Y29026881D01*
X50013095Y29026881D02*
X49965476Y29074500D01*
X49870238Y29122119D01*
X49632142Y29122119D01*
X49536904Y29074500D01*
X49489285Y29026881D01*
X49441666Y28931643D01*
X49441666Y28836405D01*
X49489285Y28693548D01*
X50060714Y28122119D01*
X49441666Y28122119D01*
X49108333Y29122119D02*
X48489285Y29122119D01*
X48822619Y28741167D01*
X48679761Y28741167D01*
X48584523Y28693548D01*
X48536904Y28645929D01*
X48489285Y28550690D01*
X48489285Y28312595D01*
X48536904Y28217357D01*
X48584523Y28169738D01*
X48679761Y28122119D01*
X48965476Y28122119D01*
X49060714Y28169738D01*
X49108333Y28217357D01*
X48108333Y29026881D02*
X48060714Y29074500D01*
X47965476Y29122119D01*
X47727380Y29122119D01*
X47632142Y29074500D01*
X47584523Y29026881D01*
X47536904Y28931643D01*
X47536904Y28836405D01*
X47584523Y28693548D01*
X48155952Y28122119D01*
X47536904Y28122119D01*
X50521047Y33424357D02*
X50568666Y33376738D01*
X50711523Y33329119D01*
X50806761Y33329119D01*
X50949619Y33376738D01*
X51044857Y33471976D01*
X51092476Y33567214D01*
X51140095Y33757690D01*
X51140095Y33900548D01*
X51092476Y34091024D01*
X51044857Y34186262D01*
X50949619Y34281500D01*
X50806761Y34329119D01*
X50711523Y34329119D01*
X50568666Y34281500D01*
X50521047Y34233881D01*
X50140095Y34233881D02*
X50092476Y34281500D01*
X49997238Y34329119D01*
X49759142Y34329119D01*
X49663904Y34281500D01*
X49616285Y34233881D01*
X49568666Y34138643D01*
X49568666Y34043405D01*
X49616285Y33900548D01*
X50187714Y33329119D01*
X49568666Y33329119D01*
X49235333Y34329119D02*
X48616285Y34329119D01*
X48949619Y33948167D01*
X48806761Y33948167D01*
X48711523Y33900548D01*
X48663904Y33852929D01*
X48616285Y33757690D01*
X48616285Y33519595D01*
X48663904Y33424357D01*
X48711523Y33376738D01*
X48806761Y33329119D01*
X49092476Y33329119D01*
X49187714Y33376738D01*
X49235333Y33424357D01*
X48282952Y34329119D02*
X47663904Y34329119D01*
X47997238Y33948167D01*
X47854380Y33948167D01*
X47759142Y33900548D01*
X47711523Y33852929D01*
X47663904Y33757690D01*
X47663904Y33519595D01*
X47711523Y33424357D01*
X47759142Y33376738D01*
X47854380Y33329119D01*
X48140095Y33329119D01*
X48235333Y33376738D01*
X48282952Y33424357D01*
X18644143Y82017547D02*
X18691762Y82065166D01*
X18739381Y82208023D01*
X18739381Y82303261D01*
X18691762Y82446119D01*
X18596524Y82541357D01*
X18501286Y82588976D01*
X18310810Y82636595D01*
X18167952Y82636595D01*
X17977476Y82588976D01*
X17882238Y82541357D01*
X17787000Y82446119D01*
X17739381Y82303261D01*
X17739381Y82208023D01*
X17787000Y82065166D01*
X17834619Y82017547D01*
X17739381Y81684214D02*
X17739381Y81065166D01*
X18120333Y81398500D01*
X18120333Y81255642D01*
X18167952Y81160404D01*
X18215571Y81112785D01*
X18310810Y81065166D01*
X18548905Y81065166D01*
X18644143Y81112785D01*
X18691762Y81160404D01*
X18739381Y81255642D01*
X18739381Y81541357D01*
X18691762Y81636595D01*
X18644143Y81684214D01*
X17739381Y80446119D02*
X17739381Y80350880D01*
X17787000Y80255642D01*
X17834619Y80208023D01*
X17929857Y80160404D01*
X18120333Y80112785D01*
X18358429Y80112785D01*
X18548905Y80160404D01*
X18644143Y80208023D01*
X18691762Y80255642D01*
X18739381Y80350880D01*
X18739381Y80446119D01*
X18691762Y80541357D01*
X18644143Y80588976D01*
X18548905Y80636595D01*
X18358429Y80684214D01*
X18120333Y80684214D01*
X17929857Y80636595D01*
X17834619Y80588976D01*
X17787000Y80541357D01*
X17739381Y80446119D01*
X17739381Y79779452D02*
X17739381Y79160404D01*
X18120333Y79493738D01*
X18120333Y79350880D01*
X18167952Y79255642D01*
X18215571Y79208023D01*
X18310810Y79160404D01*
X18548905Y79160404D01*
X18644143Y79208023D01*
X18691762Y79255642D01*
X18739381Y79350880D01*
X18739381Y79636595D01*
X18691762Y79731833D01*
X18644143Y79779452D01*
X26773143Y85447047D02*
X26820762Y85494666D01*
X26868381Y85637523D01*
X26868381Y85732761D01*
X26820762Y85875619D01*
X26725524Y85970857D01*
X26630286Y86018476D01*
X26439810Y86066095D01*
X26296952Y86066095D01*
X26106476Y86018476D01*
X26011238Y85970857D01*
X25916000Y85875619D01*
X25868381Y85732761D01*
X25868381Y85637523D01*
X25916000Y85494666D01*
X25963619Y85447047D01*
X25868381Y85113714D02*
X25868381Y84494666D01*
X26249333Y84828000D01*
X26249333Y84685142D01*
X26296952Y84589904D01*
X26344571Y84542285D01*
X26439810Y84494666D01*
X26677905Y84494666D01*
X26773143Y84542285D01*
X26820762Y84589904D01*
X26868381Y84685142D01*
X26868381Y84970857D01*
X26820762Y85066095D01*
X26773143Y85113714D01*
X25868381Y83875619D02*
X25868381Y83780380D01*
X25916000Y83685142D01*
X25963619Y83637523D01*
X26058857Y83589904D01*
X26249333Y83542285D01*
X26487429Y83542285D01*
X26677905Y83589904D01*
X26773143Y83637523D01*
X26820762Y83685142D01*
X26868381Y83780380D01*
X26868381Y83875619D01*
X26820762Y83970857D01*
X26773143Y84018476D01*
X26677905Y84066095D01*
X26487429Y84113714D01*
X26249333Y84113714D01*
X26058857Y84066095D01*
X25963619Y84018476D01*
X25916000Y83970857D01*
X25868381Y83875619D01*
X26201714Y82685142D02*
X26868381Y82685142D01*
X25820762Y82923238D02*
X26535048Y83161333D01*
X26535048Y82542285D01*
X42520047Y39901357D02*
X42567666Y39853738D01*
X42710523Y39806119D01*
X42805761Y39806119D01*
X42948619Y39853738D01*
X43043857Y39948976D01*
X43091476Y40044214D01*
X43139095Y40234690D01*
X43139095Y40377548D01*
X43091476Y40568024D01*
X43043857Y40663262D01*
X42948619Y40758500D01*
X42805761Y40806119D01*
X42710523Y40806119D01*
X42567666Y40758500D01*
X42520047Y40710881D01*
X42186714Y40806119D02*
X41567666Y40806119D01*
X41901000Y40425167D01*
X41758142Y40425167D01*
X41662904Y40377548D01*
X41615285Y40329929D01*
X41567666Y40234690D01*
X41567666Y39996595D01*
X41615285Y39901357D01*
X41662904Y39853738D01*
X41758142Y39806119D01*
X42043857Y39806119D01*
X42139095Y39853738D01*
X42186714Y39901357D01*
X40615285Y39806119D02*
X41186714Y39806119D01*
X40901000Y39806119D02*
X40901000Y40806119D01*
X40996238Y40663262D01*
X41091476Y40568024D01*
X41186714Y40520405D01*
X39996238Y40806119D02*
X39900999Y40806119D01*
X39805761Y40758500D01*
X39758142Y40710881D01*
X39710523Y40615643D01*
X39662904Y40425167D01*
X39662904Y40187071D01*
X39710523Y39996595D01*
X39758142Y39901357D01*
X39805761Y39853738D01*
X39900999Y39806119D01*
X39996238Y39806119D01*
X40091476Y39853738D01*
X40139095Y39901357D01*
X40186714Y39996595D01*
X40234333Y40187071D01*
X40234333Y40425167D01*
X40186714Y40615643D01*
X40139095Y40710881D01*
X40091476Y40758500D01*
X39996238Y40806119D01*
X34646047Y46251357D02*
X34693666Y46203738D01*
X34836523Y46156119D01*
X34931761Y46156119D01*
X35074619Y46203738D01*
X35169857Y46298976D01*
X35217476Y46394214D01*
X35265095Y46584690D01*
X35265095Y46727548D01*
X35217476Y46918024D01*
X35169857Y47013262D01*
X35074619Y47108500D01*
X34931761Y47156119D01*
X34836523Y47156119D01*
X34693666Y47108500D01*
X34646047Y47060881D01*
X34312714Y47156119D02*
X33693666Y47156119D01*
X34027000Y46775167D01*
X33884142Y46775167D01*
X33788904Y46727548D01*
X33741285Y46679929D01*
X33693666Y46584690D01*
X33693666Y46346595D01*
X33741285Y46251357D01*
X33788904Y46203738D01*
X33884142Y46156119D01*
X34169857Y46156119D01*
X34265095Y46203738D01*
X34312714Y46251357D01*
X32741285Y46156119D02*
X33312714Y46156119D01*
X33027000Y46156119D02*
X33027000Y47156119D01*
X33122238Y47013262D01*
X33217476Y46918024D01*
X33312714Y46870405D01*
X31788904Y46156119D02*
X32360333Y46156119D01*
X32074619Y46156119D02*
X32074619Y47156119D01*
X32169857Y47013262D01*
X32265095Y46918024D01*
X32360333Y46870405D01*
X47347143Y72239047D02*
X47394762Y72286666D01*
X47442381Y72429523D01*
X47442381Y72524761D01*
X47394762Y72667619D01*
X47299524Y72762857D01*
X47204286Y72810476D01*
X47013810Y72858095D01*
X46870952Y72858095D01*
X46680476Y72810476D01*
X46585238Y72762857D01*
X46490000Y72667619D01*
X46442381Y72524761D01*
X46442381Y72429523D01*
X46490000Y72286666D01*
X46537619Y72239047D01*
X46442381Y71905714D02*
X46442381Y71286666D01*
X46823333Y71620000D01*
X46823333Y71477142D01*
X46870952Y71381904D01*
X46918571Y71334285D01*
X47013810Y71286666D01*
X47251905Y71286666D01*
X47347143Y71334285D01*
X47394762Y71381904D01*
X47442381Y71477142D01*
X47442381Y71762857D01*
X47394762Y71858095D01*
X47347143Y71905714D01*
X47442381Y70334285D02*
X47442381Y70905714D01*
X47442381Y70620000D02*
X46442381Y70620000D01*
X46585238Y70715238D01*
X46680476Y70810476D01*
X46728095Y70905714D01*
X46442381Y69429523D02*
X46442381Y69905714D01*
X46918571Y69953333D01*
X46870952Y69905714D01*
X46823333Y69810476D01*
X46823333Y69572380D01*
X46870952Y69477142D01*
X46918571Y69429523D01*
X47013810Y69381904D01*
X47251905Y69381904D01*
X47347143Y69429523D01*
X47394762Y69477142D01*
X47442381Y69572380D01*
X47442381Y69810476D01*
X47394762Y69905714D01*
X47347143Y69953333D01*
X47347143Y63603047D02*
X47394762Y63650666D01*
X47442381Y63793523D01*
X47442381Y63888761D01*
X47394762Y64031619D01*
X47299524Y64126857D01*
X47204286Y64174476D01*
X47013810Y64222095D01*
X46870952Y64222095D01*
X46680476Y64174476D01*
X46585238Y64126857D01*
X46490000Y64031619D01*
X46442381Y63888761D01*
X46442381Y63793523D01*
X46490000Y63650666D01*
X46537619Y63603047D01*
X46442381Y63269714D02*
X46442381Y62650666D01*
X46823333Y62984000D01*
X46823333Y62841142D01*
X46870952Y62745904D01*
X46918571Y62698285D01*
X47013810Y62650666D01*
X47251905Y62650666D01*
X47347143Y62698285D01*
X47394762Y62745904D01*
X47442381Y62841142D01*
X47442381Y63126857D01*
X47394762Y63222095D01*
X47347143Y63269714D01*
X46537619Y62269714D02*
X46490000Y62222095D01*
X46442381Y62126857D01*
X46442381Y61888761D01*
X46490000Y61793523D01*
X46537619Y61745904D01*
X46632857Y61698285D01*
X46728095Y61698285D01*
X46870952Y61745904D01*
X47442381Y62317333D01*
X47442381Y61698285D01*
X47442381Y61222095D02*
X47442381Y61031619D01*
X47394762Y60936380D01*
X47347143Y60888761D01*
X47204286Y60793523D01*
X47013810Y60745904D01*
X46632857Y60745904D01*
X46537619Y60793523D01*
X46490000Y60841142D01*
X46442381Y60936380D01*
X46442381Y61126857D01*
X46490000Y61222095D01*
X46537619Y61269714D01*
X46632857Y61317333D01*
X46870952Y61317333D01*
X46966190Y61269714D01*
X47013810Y61222095D01*
X47061429Y61126857D01*
X47061429Y60936380D01*
X47013810Y60841142D01*
X46966190Y60793523D01*
X46870952Y60745904D01*
X67159047Y74140057D02*
X67206666Y74092438D01*
X67349523Y74044819D01*
X67444761Y74044819D01*
X67587619Y74092438D01*
X67682857Y74187676D01*
X67730476Y74282914D01*
X67778095Y74473390D01*
X67778095Y74616248D01*
X67730476Y74806724D01*
X67682857Y74901962D01*
X67587619Y74997200D01*
X67444761Y75044819D01*
X67349523Y75044819D01*
X67206666Y74997200D01*
X67159047Y74949581D01*
X66301904Y74711486D02*
X66301904Y74044819D01*
X66540000Y75092438D02*
X66778095Y74378152D01*
X66159047Y74378152D01*
X65254285Y74044819D02*
X65825714Y74044819D01*
X65540000Y74044819D02*
X65540000Y75044819D01*
X65635238Y74901962D01*
X65730476Y74806724D01*
X65825714Y74759105D01*
X64778095Y74044819D02*
X64587619Y74044819D01*
X64492380Y74092438D01*
X64444761Y74140057D01*
X64349523Y74282914D01*
X64301904Y74473390D01*
X64301904Y74854343D01*
X64349523Y74949581D01*
X64397142Y74997200D01*
X64492380Y75044819D01*
X64682857Y75044819D01*
X64778095Y74997200D01*
X64825714Y74949581D01*
X64873333Y74854343D01*
X64873333Y74616248D01*
X64825714Y74521010D01*
X64778095Y74473390D01*
X64682857Y74425771D01*
X64492380Y74425771D01*
X64397142Y74473390D01*
X64349523Y74521010D01*
X64301904Y74616248D01*
X67997247Y50696857D02*
X68044866Y50649238D01*
X68187723Y50601619D01*
X68282961Y50601619D01*
X68425819Y50649238D01*
X68521057Y50744476D01*
X68568676Y50839714D01*
X68616295Y51030190D01*
X68616295Y51173048D01*
X68568676Y51363524D01*
X68521057Y51458762D01*
X68425819Y51554000D01*
X68282961Y51601619D01*
X68187723Y51601619D01*
X68044866Y51554000D01*
X67997247Y51506381D01*
X67140104Y51268286D02*
X67140104Y50601619D01*
X67378200Y51649238D02*
X67616295Y50934952D01*
X66997247Y50934952D01*
X66663914Y51506381D02*
X66616295Y51554000D01*
X66521057Y51601619D01*
X66282961Y51601619D01*
X66187723Y51554000D01*
X66140104Y51506381D01*
X66092485Y51411143D01*
X66092485Y51315905D01*
X66140104Y51173048D01*
X66711533Y50601619D01*
X66092485Y50601619D01*
X65473438Y51601619D02*
X65378199Y51601619D01*
X65282961Y51554000D01*
X65235342Y51506381D01*
X65187723Y51411143D01*
X65140104Y51220667D01*
X65140104Y50982571D01*
X65187723Y50792095D01*
X65235342Y50696857D01*
X65282961Y50649238D01*
X65378199Y50601619D01*
X65473438Y50601619D01*
X65568676Y50649238D01*
X65616295Y50696857D01*
X65663914Y50792095D01*
X65711533Y50982571D01*
X65711533Y51220667D01*
X65663914Y51411143D01*
X65616295Y51506381D01*
X65568676Y51554000D01*
X65473438Y51601619D01*
X64237047Y79093057D02*
X64284666Y79045438D01*
X64427523Y78997819D01*
X64522761Y78997819D01*
X64665619Y79045438D01*
X64760857Y79140676D01*
X64808476Y79235914D01*
X64856095Y79426390D01*
X64856095Y79569248D01*
X64808476Y79759724D01*
X64760857Y79854962D01*
X64665619Y79950200D01*
X64522761Y79997819D01*
X64427523Y79997819D01*
X64284666Y79950200D01*
X64237047Y79902581D01*
X63379904Y79664486D02*
X63379904Y78997819D01*
X63618000Y80045438D02*
X63856095Y79331152D01*
X63237047Y79331152D01*
X62903714Y79902581D02*
X62856095Y79950200D01*
X62760857Y79997819D01*
X62522761Y79997819D01*
X62427523Y79950200D01*
X62379904Y79902581D01*
X62332285Y79807343D01*
X62332285Y79712105D01*
X62379904Y79569248D01*
X62951333Y78997819D01*
X62332285Y78997819D01*
X61379904Y78997819D02*
X61951333Y78997819D01*
X61665619Y78997819D02*
X61665619Y79997819D01*
X61760857Y79854962D01*
X61856095Y79759724D01*
X61951333Y79712105D01*
X64185247Y55775857D02*
X64232866Y55728238D01*
X64375723Y55680619D01*
X64470961Y55680619D01*
X64613819Y55728238D01*
X64709057Y55823476D01*
X64756676Y55918714D01*
X64804295Y56109190D01*
X64804295Y56252048D01*
X64756676Y56442524D01*
X64709057Y56537762D01*
X64613819Y56633000D01*
X64470961Y56680619D01*
X64375723Y56680619D01*
X64232866Y56633000D01*
X64185247Y56585381D01*
X63328104Y56347286D02*
X63328104Y55680619D01*
X63566200Y56728238D02*
X63804295Y56013952D01*
X63185247Y56013952D01*
X62851914Y56585381D02*
X62804295Y56633000D01*
X62709057Y56680619D01*
X62470961Y56680619D01*
X62375723Y56633000D01*
X62328104Y56585381D01*
X62280485Y56490143D01*
X62280485Y56394905D01*
X62328104Y56252048D01*
X62899533Y55680619D01*
X62280485Y55680619D01*
X61899533Y56585381D02*
X61851914Y56633000D01*
X61756676Y56680619D01*
X61518580Y56680619D01*
X61423342Y56633000D01*
X61375723Y56585381D01*
X61328104Y56490143D01*
X61328104Y56394905D01*
X61375723Y56252048D01*
X61947152Y55680619D01*
X61328104Y55680619D01*
X71730047Y82115657D02*
X71777666Y82068038D01*
X71920523Y82020419D01*
X72015761Y82020419D01*
X72158619Y82068038D01*
X72253857Y82163276D01*
X72301476Y82258514D01*
X72349095Y82448990D01*
X72349095Y82591848D01*
X72301476Y82782324D01*
X72253857Y82877562D01*
X72158619Y82972800D01*
X72015761Y83020419D01*
X71920523Y83020419D01*
X71777666Y82972800D01*
X71730047Y82925181D01*
X70872904Y82687086D02*
X70872904Y82020419D01*
X71111000Y83068038D02*
X71349095Y82353752D01*
X70730047Y82353752D01*
X70396714Y82925181D02*
X70349095Y82972800D01*
X70253857Y83020419D01*
X70015761Y83020419D01*
X69920523Y82972800D01*
X69872904Y82925181D01*
X69825285Y82829943D01*
X69825285Y82734705D01*
X69872904Y82591848D01*
X70444333Y82020419D01*
X69825285Y82020419D01*
X69491952Y83020419D02*
X68872904Y83020419D01*
X69206238Y82639467D01*
X69063380Y82639467D01*
X68968142Y82591848D01*
X68920523Y82544229D01*
X68872904Y82448990D01*
X68872904Y82210895D01*
X68920523Y82115657D01*
X68968142Y82068038D01*
X69063380Y82020419D01*
X69349095Y82020419D01*
X69444333Y82068038D01*
X69491952Y82115657D01*
X64111047Y58633857D02*
X64158666Y58586238D01*
X64301523Y58538619D01*
X64396761Y58538619D01*
X64539619Y58586238D01*
X64634857Y58681476D01*
X64682476Y58776714D01*
X64730095Y58967190D01*
X64730095Y59110048D01*
X64682476Y59300524D01*
X64634857Y59395762D01*
X64539619Y59491000D01*
X64396761Y59538619D01*
X64301523Y59538619D01*
X64158666Y59491000D01*
X64111047Y59443381D01*
X63253904Y59205286D02*
X63253904Y58538619D01*
X63492000Y59586238D02*
X63730095Y58871952D01*
X63111047Y58871952D01*
X62777714Y59443381D02*
X62730095Y59491000D01*
X62634857Y59538619D01*
X62396761Y59538619D01*
X62301523Y59491000D01*
X62253904Y59443381D01*
X62206285Y59348143D01*
X62206285Y59252905D01*
X62253904Y59110048D01*
X62825333Y58538619D01*
X62206285Y58538619D01*
X61349142Y59205286D02*
X61349142Y58538619D01*
X61587238Y59586238D02*
X61825333Y58871952D01*
X61206285Y58871952D01*
X63349143Y93244847D02*
X63396762Y93292466D01*
X63444381Y93435323D01*
X63444381Y93530561D01*
X63396762Y93673419D01*
X63301524Y93768657D01*
X63206286Y93816276D01*
X63015810Y93863895D01*
X62872952Y93863895D01*
X62682476Y93816276D01*
X62587238Y93768657D01*
X62492000Y93673419D01*
X62444381Y93530561D01*
X62444381Y93435323D01*
X62492000Y93292466D01*
X62539619Y93244847D01*
X62777714Y92387704D02*
X63444381Y92387704D01*
X62396762Y92625800D02*
X63111048Y92863895D01*
X63111048Y92244847D01*
X62444381Y91959133D02*
X62444381Y91340085D01*
X62825333Y91673419D01*
X62825333Y91530561D01*
X62872952Y91435323D01*
X62920571Y91387704D01*
X63015810Y91340085D01*
X63253905Y91340085D01*
X63349143Y91387704D01*
X63396762Y91435323D01*
X63444381Y91530561D01*
X63444381Y91816276D01*
X63396762Y91911514D01*
X63349143Y91959133D01*
X62444381Y90435323D02*
X62444381Y90911514D01*
X62920571Y90959133D01*
X62872952Y90911514D01*
X62825333Y90816276D01*
X62825333Y90578180D01*
X62872952Y90482942D01*
X62920571Y90435323D01*
X63015810Y90387704D01*
X63253905Y90387704D01*
X63349143Y90435323D01*
X63396762Y90482942D01*
X63444381Y90578180D01*
X63444381Y90816276D01*
X63396762Y90911514D01*
X63349143Y90959133D01*
X44553047Y47902857D02*
X44600666Y47855238D01*
X44743523Y47807619D01*
X44838761Y47807619D01*
X44981619Y47855238D01*
X45076857Y47950476D01*
X45124476Y48045714D01*
X45172095Y48236190D01*
X45172095Y48379048D01*
X45124476Y48569524D01*
X45076857Y48664762D01*
X44981619Y48760000D01*
X44838761Y48807619D01*
X44743523Y48807619D01*
X44600666Y48760000D01*
X44553047Y48712381D01*
X43695904Y48474286D02*
X43695904Y47807619D01*
X43934000Y48855238D02*
X44172095Y48140952D01*
X43553047Y48140952D01*
X43267333Y48807619D02*
X42648285Y48807619D01*
X42981619Y48426667D01*
X42838761Y48426667D01*
X42743523Y48379048D01*
X42695904Y48331429D01*
X42648285Y48236190D01*
X42648285Y47998095D01*
X42695904Y47902857D01*
X42743523Y47855238D01*
X42838761Y47807619D01*
X43124476Y47807619D01*
X43219714Y47855238D01*
X43267333Y47902857D01*
X41791142Y48807619D02*
X41981619Y48807619D01*
X42076857Y48760000D01*
X42124476Y48712381D01*
X42219714Y48569524D01*
X42267333Y48379048D01*
X42267333Y47998095D01*
X42219714Y47902857D01*
X42172095Y47855238D01*
X42076857Y47807619D01*
X41886380Y47807619D01*
X41791142Y47855238D01*
X41743523Y47902857D01*
X41695904Y47998095D01*
X41695904Y48236190D01*
X41743523Y48331429D01*
X41791142Y48379048D01*
X41886380Y48426667D01*
X42076857Y48426667D01*
X42172095Y48379048D01*
X42219714Y48331429D01*
X42267333Y48236190D01*
X57809943Y97131047D02*
X57857562Y97178666D01*
X57905181Y97321523D01*
X57905181Y97416761D01*
X57857562Y97559619D01*
X57762324Y97654857D01*
X57667086Y97702476D01*
X57476610Y97750095D01*
X57333752Y97750095D01*
X57143276Y97702476D01*
X57048038Y97654857D01*
X56952800Y97559619D01*
X56905181Y97416761D01*
X56905181Y97321523D01*
X56952800Y97178666D01*
X57000419Y97131047D01*
X57238514Y96273904D02*
X57905181Y96273904D01*
X56857562Y96512000D02*
X57571848Y96750095D01*
X57571848Y96131047D01*
X56905181Y95845333D02*
X56905181Y95226285D01*
X57286133Y95559619D01*
X57286133Y95416761D01*
X57333752Y95321523D01*
X57381371Y95273904D01*
X57476610Y95226285D01*
X57714705Y95226285D01*
X57809943Y95273904D01*
X57857562Y95321523D01*
X57905181Y95416761D01*
X57905181Y95702476D01*
X57857562Y95797714D01*
X57809943Y95845333D01*
X56905181Y94892952D02*
X56905181Y94226285D01*
X57905181Y94654857D01*
X45060047Y50949857D02*
X45107666Y50902238D01*
X45250523Y50854619D01*
X45345761Y50854619D01*
X45488619Y50902238D01*
X45583857Y50997476D01*
X45631476Y51092714D01*
X45679095Y51283190D01*
X45679095Y51426048D01*
X45631476Y51616524D01*
X45583857Y51711762D01*
X45488619Y51807000D01*
X45345761Y51854619D01*
X45250523Y51854619D01*
X45107666Y51807000D01*
X45060047Y51759381D01*
X44202904Y51521286D02*
X44202904Y50854619D01*
X44441000Y51902238D02*
X44679095Y51187952D01*
X44060047Y51187952D01*
X43774333Y51854619D02*
X43155285Y51854619D01*
X43488619Y51473667D01*
X43345761Y51473667D01*
X43250523Y51426048D01*
X43202904Y51378429D01*
X43155285Y51283190D01*
X43155285Y51045095D01*
X43202904Y50949857D01*
X43250523Y50902238D01*
X43345761Y50854619D01*
X43631476Y50854619D01*
X43726714Y50902238D01*
X43774333Y50949857D01*
X42583857Y51426048D02*
X42679095Y51473667D01*
X42726714Y51521286D01*
X42774333Y51616524D01*
X42774333Y51664143D01*
X42726714Y51759381D01*
X42679095Y51807000D01*
X42583857Y51854619D01*
X42393380Y51854619D01*
X42298142Y51807000D01*
X42250523Y51759381D01*
X42202904Y51664143D01*
X42202904Y51616524D01*
X42250523Y51521286D01*
X42298142Y51473667D01*
X42393380Y51426048D01*
X42583857Y51426048D01*
X42679095Y51378429D01*
X42726714Y51330810D01*
X42774333Y51235571D01*
X42774333Y51045095D01*
X42726714Y50949857D01*
X42679095Y50902238D01*
X42583857Y50854619D01*
X42393380Y50854619D01*
X42298142Y50902238D01*
X42250523Y50949857D01*
X42202904Y51045095D01*
X42202904Y51235571D01*
X42250523Y51330810D01*
X42298142Y51378429D01*
X42393380Y51426048D01*
X54459143Y97131047D02*
X54506762Y97178666D01*
X54554381Y97321523D01*
X54554381Y97416761D01*
X54506762Y97559619D01*
X54411524Y97654857D01*
X54316286Y97702476D01*
X54125810Y97750095D01*
X53982952Y97750095D01*
X53792476Y97702476D01*
X53697238Y97654857D01*
X53602000Y97559619D01*
X53554381Y97416761D01*
X53554381Y97321523D01*
X53602000Y97178666D01*
X53649619Y97131047D01*
X53887714Y96273904D02*
X54554381Y96273904D01*
X53506762Y96512000D02*
X54221048Y96750095D01*
X54221048Y96131047D01*
X53554381Y95845333D02*
X53554381Y95226285D01*
X53935333Y95559619D01*
X53935333Y95416761D01*
X53982952Y95321523D01*
X54030571Y95273904D01*
X54125810Y95226285D01*
X54363905Y95226285D01*
X54459143Y95273904D01*
X54506762Y95321523D01*
X54554381Y95416761D01*
X54554381Y95702476D01*
X54506762Y95797714D01*
X54459143Y95845333D01*
X54554381Y94750095D02*
X54554381Y94559619D01*
X54506762Y94464380D01*
X54459143Y94416761D01*
X54316286Y94321523D01*
X54125810Y94273904D01*
X53744857Y94273904D01*
X53649619Y94321523D01*
X53602000Y94369142D01*
X53554381Y94464380D01*
X53554381Y94654857D01*
X53602000Y94750095D01*
X53649619Y94797714D01*
X53744857Y94845333D01*
X53982952Y94845333D01*
X54078190Y94797714D01*
X54125810Y94750095D01*
X54173429Y94654857D01*
X54173429Y94464380D01*
X54125810Y94369142D01*
X54078190Y94321523D01*
X53982952Y94273904D01*
X45059047Y53870857D02*
X45106666Y53823238D01*
X45249523Y53775619D01*
X45344761Y53775619D01*
X45487619Y53823238D01*
X45582857Y53918476D01*
X45630476Y54013714D01*
X45678095Y54204190D01*
X45678095Y54347048D01*
X45630476Y54537524D01*
X45582857Y54632762D01*
X45487619Y54728000D01*
X45344761Y54775619D01*
X45249523Y54775619D01*
X45106666Y54728000D01*
X45059047Y54680381D01*
X44201904Y54442286D02*
X44201904Y53775619D01*
X44440000Y54823238D02*
X44678095Y54108952D01*
X44059047Y54108952D01*
X43249523Y54442286D02*
X43249523Y53775619D01*
X43487619Y54823238D02*
X43725714Y54108952D01*
X43106666Y54108952D01*
X42535238Y54775619D02*
X42439999Y54775619D01*
X42344761Y54728000D01*
X42297142Y54680381D01*
X42249523Y54585143D01*
X42201904Y54394667D01*
X42201904Y54156571D01*
X42249523Y53966095D01*
X42297142Y53870857D01*
X42344761Y53823238D01*
X42439999Y53775619D01*
X42535238Y53775619D01*
X42630476Y53823238D01*
X42678095Y53870857D01*
X42725714Y53966095D01*
X42773333Y54156571D01*
X42773333Y54394667D01*
X42725714Y54585143D01*
X42678095Y54680381D01*
X42630476Y54728000D01*
X42535238Y54775619D01*
X51283047Y86129357D02*
X51330666Y86081738D01*
X51473523Y86034119D01*
X51568761Y86034119D01*
X51711619Y86081738D01*
X51806857Y86176976D01*
X51854476Y86272214D01*
X51902095Y86462690D01*
X51902095Y86605548D01*
X51854476Y86796024D01*
X51806857Y86891262D01*
X51711619Y86986500D01*
X51568761Y87034119D01*
X51473523Y87034119D01*
X51330666Y86986500D01*
X51283047Y86938881D01*
X50425904Y86700786D02*
X50425904Y86034119D01*
X50664000Y87081738D02*
X50902095Y86367452D01*
X50283047Y86367452D01*
X49473523Y86700786D02*
X49473523Y86034119D01*
X49711619Y87081738D02*
X49949714Y86367452D01*
X49330666Y86367452D01*
X48425904Y86034119D02*
X48997333Y86034119D01*
X48711619Y86034119D02*
X48711619Y87034119D01*
X48806857Y86891262D01*
X48902095Y86796024D01*
X48997333Y86748405D01*
X59030047Y43330857D02*
X59077666Y43283238D01*
X59220523Y43235619D01*
X59315761Y43235619D01*
X59458619Y43283238D01*
X59553857Y43378476D01*
X59601476Y43473714D01*
X59649095Y43664190D01*
X59649095Y43807048D01*
X59601476Y43997524D01*
X59553857Y44092762D01*
X59458619Y44188000D01*
X59315761Y44235619D01*
X59220523Y44235619D01*
X59077666Y44188000D01*
X59030047Y44140381D01*
X58172904Y43902286D02*
X58172904Y43235619D01*
X58411000Y44283238D02*
X58649095Y43568952D01*
X58030047Y43568952D01*
X57220523Y43902286D02*
X57220523Y43235619D01*
X57458619Y44283238D02*
X57696714Y43568952D01*
X57077666Y43568952D01*
X56744333Y44140381D02*
X56696714Y44188000D01*
X56601476Y44235619D01*
X56363380Y44235619D01*
X56268142Y44188000D01*
X56220523Y44140381D01*
X56172904Y44045143D01*
X56172904Y43949905D01*
X56220523Y43807048D01*
X56791952Y43235619D01*
X56172904Y43235619D01*
X51156047Y79652357D02*
X51203666Y79604738D01*
X51346523Y79557119D01*
X51441761Y79557119D01*
X51584619Y79604738D01*
X51679857Y79699976D01*
X51727476Y79795214D01*
X51775095Y79985690D01*
X51775095Y80128548D01*
X51727476Y80319024D01*
X51679857Y80414262D01*
X51584619Y80509500D01*
X51441761Y80557119D01*
X51346523Y80557119D01*
X51203666Y80509500D01*
X51156047Y80461881D01*
X50298904Y80223786D02*
X50298904Y79557119D01*
X50537000Y80604738D02*
X50775095Y79890452D01*
X50156047Y79890452D01*
X49346523Y80223786D02*
X49346523Y79557119D01*
X49584619Y80604738D02*
X49822714Y79890452D01*
X49203666Y79890452D01*
X48917952Y80557119D02*
X48298904Y80557119D01*
X48632238Y80176167D01*
X48489380Y80176167D01*
X48394142Y80128548D01*
X48346523Y80080929D01*
X48298904Y79985690D01*
X48298904Y79747595D01*
X48346523Y79652357D01*
X48394142Y79604738D01*
X48489380Y79557119D01*
X48775095Y79557119D01*
X48870333Y79604738D01*
X48917952Y79652357D01*
X62967047Y49934357D02*
X63014666Y49886738D01*
X63157523Y49839119D01*
X63252761Y49839119D01*
X63395619Y49886738D01*
X63490857Y49981976D01*
X63538476Y50077214D01*
X63586095Y50267690D01*
X63586095Y50410548D01*
X63538476Y50601024D01*
X63490857Y50696262D01*
X63395619Y50791500D01*
X63252761Y50839119D01*
X63157523Y50839119D01*
X63014666Y50791500D01*
X62967047Y50743881D01*
X62109904Y50505786D02*
X62109904Y49839119D01*
X62348000Y50886738D02*
X62586095Y50172452D01*
X61967047Y50172452D01*
X61157523Y50505786D02*
X61157523Y49839119D01*
X61395619Y50886738D02*
X61633714Y50172452D01*
X61014666Y50172452D01*
X60205142Y50505786D02*
X60205142Y49839119D01*
X60443238Y50886738D02*
X60681333Y50172452D01*
X60062285Y50172452D01*
X48044476Y22739119D02*
X48044476Y23739119D01*
X47806381Y23739119D01*
X47663523Y23691500D01*
X47568285Y23596262D01*
X47520666Y23501024D01*
X47473047Y23310548D01*
X47473047Y23167690D01*
X47520666Y22977214D01*
X47568285Y22881976D01*
X47663523Y22786738D01*
X47806381Y22739119D01*
X48044476Y22739119D01*
X47092095Y23643881D02*
X47044476Y23691500D01*
X46949238Y23739119D01*
X46711142Y23739119D01*
X46615904Y23691500D01*
X46568285Y23643881D01*
X46520666Y23548643D01*
X46520666Y23453405D01*
X46568285Y23310548D01*
X47139714Y22739119D01*
X46520666Y22739119D01*
X45901619Y23739119D02*
X45806380Y23739119D01*
X45711142Y23691500D01*
X45663523Y23643881D01*
X45615904Y23548643D01*
X45568285Y23358167D01*
X45568285Y23120071D01*
X45615904Y22929595D01*
X45663523Y22834357D01*
X45711142Y22786738D01*
X45806380Y22739119D01*
X45901619Y22739119D01*
X45996857Y22786738D01*
X46044476Y22834357D01*
X46092095Y22929595D01*
X46139714Y23120071D01*
X46139714Y23358167D01*
X46092095Y23548643D01*
X46044476Y23643881D01*
X45996857Y23691500D01*
X45901619Y23739119D01*
X45234952Y23739119D02*
X44568285Y23739119D01*
X44996857Y22739119D01*
X43615905Y24439119D02*
X43615905Y25439119D01*
X43044476Y24439119D02*
X43473048Y25010548D01*
X43044476Y25439119D02*
X43615905Y24867690D01*
X49592095Y24724833D02*
X49115904Y24724833D01*
X49687333Y24439119D02*
X49354000Y25439119D01*
X49020666Y24439119D01*
X36931047Y10850619D02*
X37407238Y10850619D01*
X37407238Y11850619D01*
X36645333Y11755381D02*
X36597714Y11803000D01*
X36502476Y11850619D01*
X36264380Y11850619D01*
X36169142Y11803000D01*
X36121523Y11755381D01*
X36073904Y11660143D01*
X36073904Y11564905D01*
X36121523Y11422048D01*
X36692952Y10850619D01*
X36073904Y10850619D01*
X35454857Y11850619D02*
X35359618Y11850619D01*
X35264380Y11803000D01*
X35216761Y11755381D01*
X35169142Y11660143D01*
X35121523Y11469667D01*
X35121523Y11231571D01*
X35169142Y11041095D01*
X35216761Y10945857D01*
X35264380Y10898238D01*
X35359618Y10850619D01*
X35454857Y10850619D01*
X35550095Y10898238D01*
X35597714Y10945857D01*
X35645333Y11041095D01*
X35692952Y11231571D01*
X35692952Y11469667D01*
X35645333Y11660143D01*
X35597714Y11755381D01*
X35550095Y11803000D01*
X35454857Y11850619D01*
X34169142Y10850619D02*
X34740571Y10850619D01*
X34454857Y10850619D02*
X34454857Y11850619D01*
X34550095Y11707762D01*
X34645333Y11612524D01*
X34740571Y11564905D01*
X37949047Y4373619D02*
X38282381Y4849810D01*
X38520476Y4373619D02*
X38520476Y5373619D01*
X38139523Y5373619D01*
X38044285Y5326000D01*
X37996666Y5278381D01*
X37949047Y5183143D01*
X37949047Y5040286D01*
X37996666Y4945048D01*
X38044285Y4897429D01*
X38139523Y4849810D01*
X38520476Y4849810D01*
X37568095Y5278381D02*
X37520476Y5326000D01*
X37425238Y5373619D01*
X37187142Y5373619D01*
X37091904Y5326000D01*
X37044285Y5278381D01*
X36996666Y5183143D01*
X36996666Y5087905D01*
X37044285Y4945048D01*
X37615714Y4373619D01*
X36996666Y4373619D01*
X36377619Y5373619D02*
X36282380Y5373619D01*
X36187142Y5326000D01*
X36139523Y5278381D01*
X36091904Y5183143D01*
X36044285Y4992667D01*
X36044285Y4754571D01*
X36091904Y4564095D01*
X36139523Y4468857D01*
X36187142Y4421238D01*
X36282380Y4373619D01*
X36377619Y4373619D01*
X36472857Y4421238D01*
X36520476Y4468857D01*
X36568095Y4564095D01*
X36615714Y4754571D01*
X36615714Y4992667D01*
X36568095Y5183143D01*
X36520476Y5278381D01*
X36472857Y5326000D01*
X36377619Y5373619D01*
X35091904Y4373619D02*
X35663333Y4373619D01*
X35377619Y4373619D02*
X35377619Y5373619D01*
X35472857Y5230762D01*
X35568095Y5135524D01*
X35663333Y5087905D01*
X18899047Y70921619D02*
X19232381Y71397810D01*
X19470476Y70921619D02*
X19470476Y71921619D01*
X19089523Y71921619D01*
X18994285Y71874000D01*
X18946666Y71826381D01*
X18899047Y71731143D01*
X18899047Y71588286D01*
X18946666Y71493048D01*
X18994285Y71445429D01*
X19089523Y71397810D01*
X19470476Y71397810D01*
X18565714Y71921619D02*
X17946666Y71921619D01*
X18280000Y71540667D01*
X18137142Y71540667D01*
X18041904Y71493048D01*
X17994285Y71445429D01*
X17946666Y71350190D01*
X17946666Y71112095D01*
X17994285Y71016857D01*
X18041904Y70969238D01*
X18137142Y70921619D01*
X18422857Y70921619D01*
X18518095Y70969238D01*
X18565714Y71016857D01*
X16994285Y70921619D02*
X17565714Y70921619D01*
X17280000Y70921619D02*
X17280000Y71921619D01*
X17375238Y71778762D01*
X17470476Y71683524D01*
X17565714Y71635905D01*
X16660952Y71921619D02*
X15994285Y71921619D01*
X16422857Y70921619D01*
X22708047Y66730119D02*
X23041381Y67206310D01*
X23279476Y66730119D02*
X23279476Y67730119D01*
X22898523Y67730119D01*
X22803285Y67682500D01*
X22755666Y67634881D01*
X22708047Y67539643D01*
X22708047Y67396786D01*
X22755666Y67301548D01*
X22803285Y67253929D01*
X22898523Y67206310D01*
X23279476Y67206310D01*
X22374714Y67730119D02*
X21755666Y67730119D01*
X22089000Y67349167D01*
X21946142Y67349167D01*
X21850904Y67301548D01*
X21803285Y67253929D01*
X21755666Y67158690D01*
X21755666Y66920595D01*
X21803285Y66825357D01*
X21850904Y66777738D01*
X21946142Y66730119D01*
X22231857Y66730119D01*
X22327095Y66777738D01*
X22374714Y66825357D01*
X20803285Y66730119D02*
X21374714Y66730119D01*
X21089000Y66730119D02*
X21089000Y67730119D01*
X21184238Y67587262D01*
X21279476Y67492024D01*
X21374714Y67444405D01*
X20231857Y67301548D02*
X20327095Y67349167D01*
X20374714Y67396786D01*
X20422333Y67492024D01*
X20422333Y67539643D01*
X20374714Y67634881D01*
X20327095Y67682500D01*
X20231857Y67730119D01*
X20041380Y67730119D01*
X19946142Y67682500D01*
X19898523Y67634881D01*
X19850904Y67539643D01*
X19850904Y67492024D01*
X19898523Y67396786D01*
X19946142Y67349167D01*
X20041380Y67301548D01*
X20231857Y67301548D01*
X20327095Y67253929D01*
X20374714Y67206310D01*
X20422333Y67111071D01*
X20422333Y66920595D01*
X20374714Y66825357D01*
X20327095Y66777738D01*
X20231857Y66730119D01*
X20041380Y66730119D01*
X19946142Y66777738D01*
X19898523Y66825357D01*
X19850904Y66920595D01*
X19850904Y67111071D01*
X19898523Y67206310D01*
X19946142Y67253929D01*
X20041380Y67301548D01*
X22708047Y64317119D02*
X23041381Y64793310D01*
X23279476Y64317119D02*
X23279476Y65317119D01*
X22898523Y65317119D01*
X22803285Y65269500D01*
X22755666Y65221881D01*
X22708047Y65126643D01*
X22708047Y64983786D01*
X22755666Y64888548D01*
X22803285Y64840929D01*
X22898523Y64793310D01*
X23279476Y64793310D01*
X22374714Y65317119D02*
X21755666Y65317119D01*
X22089000Y64936167D01*
X21946142Y64936167D01*
X21850904Y64888548D01*
X21803285Y64840929D01*
X21755666Y64745690D01*
X21755666Y64507595D01*
X21803285Y64412357D01*
X21850904Y64364738D01*
X21946142Y64317119D01*
X22231857Y64317119D01*
X22327095Y64364738D01*
X22374714Y64412357D01*
X20803285Y64317119D02*
X21374714Y64317119D01*
X21089000Y64317119D02*
X21089000Y65317119D01*
X21184238Y65174262D01*
X21279476Y65079024D01*
X21374714Y65031405D01*
X20327095Y64317119D02*
X20136619Y64317119D01*
X20041380Y64364738D01*
X19993761Y64412357D01*
X19898523Y64555214D01*
X19850904Y64745690D01*
X19850904Y65126643D01*
X19898523Y65221881D01*
X19946142Y65269500D01*
X20041380Y65317119D01*
X20231857Y65317119D01*
X20327095Y65269500D01*
X20374714Y65221881D01*
X20422333Y65126643D01*
X20422333Y64888548D01*
X20374714Y64793310D01*
X20327095Y64745690D01*
X20231857Y64698071D01*
X20041380Y64698071D01*
X19946142Y64745690D01*
X19898523Y64793310D01*
X19850904Y64888548D01*
X22708047Y61777119D02*
X23041381Y62253310D01*
X23279476Y61777119D02*
X23279476Y62777119D01*
X22898523Y62777119D01*
X22803285Y62729500D01*
X22755666Y62681881D01*
X22708047Y62586643D01*
X22708047Y62443786D01*
X22755666Y62348548D01*
X22803285Y62300929D01*
X22898523Y62253310D01*
X23279476Y62253310D01*
X22374714Y62777119D02*
X21755666Y62777119D01*
X22089000Y62396167D01*
X21946142Y62396167D01*
X21850904Y62348548D01*
X21803285Y62300929D01*
X21755666Y62205690D01*
X21755666Y61967595D01*
X21803285Y61872357D01*
X21850904Y61824738D01*
X21946142Y61777119D01*
X22231857Y61777119D01*
X22327095Y61824738D01*
X22374714Y61872357D01*
X21374714Y62681881D02*
X21327095Y62729500D01*
X21231857Y62777119D01*
X20993761Y62777119D01*
X20898523Y62729500D01*
X20850904Y62681881D01*
X20803285Y62586643D01*
X20803285Y62491405D01*
X20850904Y62348548D01*
X21422333Y61777119D01*
X20803285Y61777119D01*
X20184238Y62777119D02*
X20088999Y62777119D01*
X19993761Y62729500D01*
X19946142Y62681881D01*
X19898523Y62586643D01*
X19850904Y62396167D01*
X19850904Y62158071D01*
X19898523Y61967595D01*
X19946142Y61872357D01*
X19993761Y61824738D01*
X20088999Y61777119D01*
X20184238Y61777119D01*
X20279476Y61824738D01*
X20327095Y61872357D01*
X20374714Y61967595D01*
X20422333Y62158071D01*
X20422333Y62396167D01*
X20374714Y62586643D01*
X20327095Y62681881D01*
X20279476Y62729500D01*
X20184238Y62777119D01*
X33122143Y85954547D02*
X33169762Y86002166D01*
X33217381Y86145023D01*
X33217381Y86240261D01*
X33169762Y86383119D01*
X33074524Y86478357D01*
X32979286Y86525976D01*
X32788810Y86573595D01*
X32645952Y86573595D01*
X32455476Y86525976D01*
X32360238Y86478357D01*
X32265000Y86383119D01*
X32217381Y86240261D01*
X32217381Y86145023D01*
X32265000Y86002166D01*
X32312619Y85954547D01*
X32312619Y85573595D02*
X32265000Y85525976D01*
X32217381Y85430738D01*
X32217381Y85192642D01*
X32265000Y85097404D01*
X32312619Y85049785D01*
X32407857Y85002166D01*
X32503095Y85002166D01*
X32645952Y85049785D01*
X33217381Y85621214D01*
X33217381Y85002166D01*
X32217381Y84668833D02*
X32217381Y84049785D01*
X32598333Y84383119D01*
X32598333Y84240261D01*
X32645952Y84145023D01*
X32693571Y84097404D01*
X32788810Y84049785D01*
X33026905Y84049785D01*
X33122143Y84097404D01*
X33169762Y84145023D01*
X33217381Y84240261D01*
X33217381Y84525976D01*
X33169762Y84621214D01*
X33122143Y84668833D01*
X32217381Y83716452D02*
X32217381Y83049785D01*
X33217381Y83478357D01*
X75287047Y63929565D02*
X75334666Y63881946D01*
X75477523Y63834327D01*
X75572761Y63834327D01*
X75715619Y63881946D01*
X75810857Y63977184D01*
X75858476Y64072422D01*
X75906095Y64262898D01*
X75906095Y64405756D01*
X75858476Y64596232D01*
X75810857Y64691470D01*
X75715619Y64786708D01*
X75572761Y64834327D01*
X75477523Y64834327D01*
X75334666Y64786708D01*
X75287047Y64739089D01*
X74429904Y64500994D02*
X74429904Y63834327D01*
X74668000Y64881946D02*
X74906095Y64167660D01*
X74287047Y64167660D01*
X73382285Y63834327D02*
X73953714Y63834327D01*
X73668000Y63834327D02*
X73668000Y64834327D01*
X73763238Y64691470D01*
X73858476Y64596232D01*
X73953714Y64548613D01*
X72763238Y64834327D02*
X72667999Y64834327D01*
X72572761Y64786708D01*
X72525142Y64739089D01*
X72477523Y64643851D01*
X72429904Y64453375D01*
X72429904Y64215279D01*
X72477523Y64024803D01*
X72525142Y63929565D01*
X72572761Y63881946D01*
X72667999Y63834327D01*
X72763238Y63834327D01*
X72858476Y63881946D01*
X72906095Y63929565D01*
X72953714Y64024803D01*
X73001333Y64215279D01*
X73001333Y64453375D01*
X72953714Y64643851D01*
X72906095Y64739089D01*
X72858476Y64786708D01*
X72763238Y64834327D01*
X73763047Y57808857D02*
X73810666Y57761238D01*
X73953523Y57713619D01*
X74048761Y57713619D01*
X74191619Y57761238D01*
X74286857Y57856476D01*
X74334476Y57951714D01*
X74382095Y58142190D01*
X74382095Y58285048D01*
X74334476Y58475524D01*
X74286857Y58570762D01*
X74191619Y58666000D01*
X74048761Y58713619D01*
X73953523Y58713619D01*
X73810666Y58666000D01*
X73763047Y58618381D01*
X72905904Y58380286D02*
X72905904Y57713619D01*
X73144000Y58761238D02*
X73382095Y58046952D01*
X72763047Y58046952D01*
X71858285Y57713619D02*
X72429714Y57713619D01*
X72144000Y57713619D02*
X72144000Y58713619D01*
X72239238Y58570762D01*
X72334476Y58475524D01*
X72429714Y58427905D01*
X71001142Y58713619D02*
X71191619Y58713619D01*
X71286857Y58666000D01*
X71334476Y58618381D01*
X71429714Y58475524D01*
X71477333Y58285048D01*
X71477333Y57904095D01*
X71429714Y57808857D01*
X71382095Y57761238D01*
X71286857Y57713619D01*
X71096380Y57713619D01*
X71001142Y57761238D01*
X70953523Y57808857D01*
X70905904Y57904095D01*
X70905904Y58142190D01*
X70953523Y58237429D01*
X71001142Y58285048D01*
X71096380Y58332667D01*
X71286857Y58332667D01*
X71382095Y58285048D01*
X71429714Y58237429D01*
X71477333Y58142190D01*
X71477047Y71524857D02*
X71524666Y71477238D01*
X71667523Y71429619D01*
X71762761Y71429619D01*
X71905619Y71477238D01*
X72000857Y71572476D01*
X72048476Y71667714D01*
X72096095Y71858190D01*
X72096095Y72001048D01*
X72048476Y72191524D01*
X72000857Y72286762D01*
X71905619Y72382000D01*
X71762761Y72429619D01*
X71667523Y72429619D01*
X71524666Y72382000D01*
X71477047Y72334381D01*
X70619904Y72096286D02*
X70619904Y71429619D01*
X70858000Y72477238D02*
X71096095Y71762952D01*
X70477047Y71762952D01*
X69667523Y72096286D02*
X69667523Y71429619D01*
X69905619Y72477238D02*
X70143714Y71762952D01*
X69524666Y71762952D01*
X69096095Y71429619D02*
X68905619Y71429619D01*
X68810380Y71477238D01*
X68762761Y71524857D01*
X68667523Y71667714D01*
X68619904Y71858190D01*
X68619904Y72239143D01*
X68667523Y72334381D01*
X68715142Y72382000D01*
X68810380Y72429619D01*
X69000857Y72429619D01*
X69096095Y72382000D01*
X69143714Y72334381D01*
X69191333Y72239143D01*
X69191333Y72001048D01*
X69143714Y71905810D01*
X69096095Y71858190D01*
X69000857Y71810571D01*
X68810380Y71810571D01*
X68715142Y71858190D01*
X68667523Y71905810D01*
X68619904Y72001048D01*
X71223047Y49426857D02*
X71270666Y49379238D01*
X71413523Y49331619D01*
X71508761Y49331619D01*
X71651619Y49379238D01*
X71746857Y49474476D01*
X71794476Y49569714D01*
X71842095Y49760190D01*
X71842095Y49903048D01*
X71794476Y50093524D01*
X71746857Y50188762D01*
X71651619Y50284000D01*
X71508761Y50331619D01*
X71413523Y50331619D01*
X71270666Y50284000D01*
X71223047Y50236381D01*
X70365904Y49998286D02*
X70365904Y49331619D01*
X70604000Y50379238D02*
X70842095Y49664952D01*
X70223047Y49664952D01*
X69365904Y50331619D02*
X69842095Y50331619D01*
X69889714Y49855429D01*
X69842095Y49903048D01*
X69746857Y49950667D01*
X69508761Y49950667D01*
X69413523Y49903048D01*
X69365904Y49855429D01*
X69318285Y49760190D01*
X69318285Y49522095D01*
X69365904Y49426857D01*
X69413523Y49379238D01*
X69508761Y49331619D01*
X69746857Y49331619D01*
X69842095Y49379238D01*
X69889714Y49426857D01*
X68699238Y50331619D02*
X68603999Y50331619D01*
X68508761Y50284000D01*
X68461142Y50236381D01*
X68413523Y50141143D01*
X68365904Y49950667D01*
X68365904Y49712571D01*
X68413523Y49522095D01*
X68461142Y49426857D01*
X68508761Y49379238D01*
X68603999Y49331619D01*
X68699238Y49331619D01*
X68794476Y49379238D01*
X68842095Y49426857D01*
X68889714Y49522095D01*
X68937333Y49712571D01*
X68937333Y49950667D01*
X68889714Y50141143D01*
X68842095Y50236381D01*
X68794476Y50284000D01*
X68699238Y50331619D01*
X71477047Y73810857D02*
X71524666Y73763238D01*
X71667523Y73715619D01*
X71762761Y73715619D01*
X71905619Y73763238D01*
X72000857Y73858476D01*
X72048476Y73953714D01*
X72096095Y74144190D01*
X72096095Y74287048D01*
X72048476Y74477524D01*
X72000857Y74572762D01*
X71905619Y74668000D01*
X71762761Y74715619D01*
X71667523Y74715619D01*
X71524666Y74668000D01*
X71477047Y74620381D01*
X70619904Y74382286D02*
X70619904Y73715619D01*
X70858000Y74763238D02*
X71096095Y74048952D01*
X70477047Y74048952D01*
X69619904Y74715619D02*
X70096095Y74715619D01*
X70143714Y74239429D01*
X70096095Y74287048D01*
X70000857Y74334667D01*
X69762761Y74334667D01*
X69667523Y74287048D01*
X69619904Y74239429D01*
X69572285Y74144190D01*
X69572285Y73906095D01*
X69619904Y73810857D01*
X69667523Y73763238D01*
X69762761Y73715619D01*
X70000857Y73715619D01*
X70096095Y73763238D01*
X70143714Y73810857D01*
X68619904Y73715619D02*
X69191333Y73715619D01*
X68905619Y73715619D02*
X68905619Y74715619D01*
X69000857Y74572762D01*
X69096095Y74477524D01*
X69191333Y74429905D01*
X71223047Y47521357D02*
X71270666Y47473738D01*
X71413523Y47426119D01*
X71508761Y47426119D01*
X71651619Y47473738D01*
X71746857Y47568976D01*
X71794476Y47664214D01*
X71842095Y47854690D01*
X71842095Y47997548D01*
X71794476Y48188024D01*
X71746857Y48283262D01*
X71651619Y48378500D01*
X71508761Y48426119D01*
X71413523Y48426119D01*
X71270666Y48378500D01*
X71223047Y48330881D01*
X70365904Y48092786D02*
X70365904Y47426119D01*
X70604000Y48473738D02*
X70842095Y47759452D01*
X70223047Y47759452D01*
X69365904Y48426119D02*
X69842095Y48426119D01*
X69889714Y47949929D01*
X69842095Y47997548D01*
X69746857Y48045167D01*
X69508761Y48045167D01*
X69413523Y47997548D01*
X69365904Y47949929D01*
X69318285Y47854690D01*
X69318285Y47616595D01*
X69365904Y47521357D01*
X69413523Y47473738D01*
X69508761Y47426119D01*
X69746857Y47426119D01*
X69842095Y47473738D01*
X69889714Y47521357D01*
X68937333Y48330881D02*
X68889714Y48378500D01*
X68794476Y48426119D01*
X68556380Y48426119D01*
X68461142Y48378500D01*
X68413523Y48330881D01*
X68365904Y48235643D01*
X68365904Y48140405D01*
X68413523Y47997548D01*
X68984952Y47426119D01*
X68365904Y47426119D01*
X25851381Y72365547D02*
X25375190Y72698881D01*
X25851381Y72936976D02*
X24851381Y72936976D01*
X24851381Y72556023D01*
X24899000Y72460785D01*
X24946619Y72413166D01*
X25041857Y72365547D01*
X25184714Y72365547D01*
X25279952Y72413166D01*
X25327571Y72460785D01*
X25375190Y72556023D01*
X25375190Y72936976D01*
X24851381Y72032214D02*
X24851381Y71413166D01*
X25232333Y71746500D01*
X25232333Y71603642D01*
X25279952Y71508404D01*
X25327571Y71460785D01*
X25422810Y71413166D01*
X25660905Y71413166D01*
X25756143Y71460785D01*
X25803762Y71508404D01*
X25851381Y71603642D01*
X25851381Y71889357D01*
X25803762Y71984595D01*
X25756143Y72032214D01*
X25851381Y70460785D02*
X25851381Y71032214D01*
X25851381Y70746500D02*
X24851381Y70746500D01*
X24994238Y70841738D01*
X25089476Y70936976D01*
X25137095Y71032214D01*
X24851381Y69841738D02*
X24851381Y69746499D01*
X24899000Y69651261D01*
X24946619Y69603642D01*
X25041857Y69556023D01*
X25232333Y69508404D01*
X25470429Y69508404D01*
X25660905Y69556023D01*
X25756143Y69603642D01*
X25803762Y69651261D01*
X25851381Y69746499D01*
X25851381Y69841738D01*
X25803762Y69936976D01*
X25756143Y69984595D01*
X25660905Y70032214D01*
X25470429Y70079833D01*
X25232333Y70079833D01*
X25041857Y70032214D01*
X24946619Y69984595D01*
X24899000Y69936976D01*
X24851381Y69841738D01*
X44743476Y10850619D02*
X44743476Y11850619D01*
X44505381Y11850619D01*
X44362523Y11803000D01*
X44267285Y11707762D01*
X44219666Y11612524D01*
X44172047Y11422048D01*
X44172047Y11279190D01*
X44219666Y11088714D01*
X44267285Y10993476D01*
X44362523Y10898238D01*
X44505381Y10850619D01*
X44743476Y10850619D01*
X43791095Y11755381D02*
X43743476Y11803000D01*
X43648238Y11850619D01*
X43410142Y11850619D01*
X43314904Y11803000D01*
X43267285Y11755381D01*
X43219666Y11660143D01*
X43219666Y11564905D01*
X43267285Y11422048D01*
X43838714Y10850619D01*
X43219666Y10850619D01*
X42600619Y11850619D02*
X42505380Y11850619D01*
X42410142Y11803000D01*
X42362523Y11755381D01*
X42314904Y11660143D01*
X42267285Y11469667D01*
X42267285Y11231571D01*
X42314904Y11041095D01*
X42362523Y10945857D01*
X42410142Y10898238D01*
X42505380Y10850619D01*
X42600619Y10850619D01*
X42695857Y10898238D01*
X42743476Y10945857D01*
X42791095Y11041095D01*
X42838714Y11231571D01*
X42838714Y11469667D01*
X42791095Y11660143D01*
X42743476Y11755381D01*
X42695857Y11803000D01*
X42600619Y11850619D01*
X41314904Y10850619D02*
X41886333Y10850619D01*
X41600619Y10850619D02*
X41600619Y11850619D01*
X41695857Y11707762D01*
X41791095Y11612524D01*
X41886333Y11564905D01*
X40362905Y9199119D02*
X40362905Y10199119D01*
X39791476Y9199119D02*
X40220048Y9770548D01*
X39791476Y10199119D02*
X40362905Y9627690D01*
X46339095Y9484833D02*
X45862904Y9484833D01*
X46434333Y9199119D02*
X46101000Y10199119D01*
X45767666Y9199119D01*
X53362381Y11850476D02*
X52362381Y11850476D01*
X52362381Y11612381D01*
X52410000Y11469523D01*
X52505238Y11374285D01*
X52600476Y11326666D01*
X52790952Y11279047D01*
X52933810Y11279047D01*
X53124286Y11326666D01*
X53219524Y11374285D01*
X53314762Y11469523D01*
X53362381Y11612381D01*
X53362381Y11850476D01*
X52457619Y10898095D02*
X52410000Y10850476D01*
X52362381Y10755238D01*
X52362381Y10517142D01*
X52410000Y10421904D01*
X52457619Y10374285D01*
X52552857Y10326666D01*
X52648095Y10326666D01*
X52790952Y10374285D01*
X53362381Y10945714D01*
X53362381Y10326666D01*
X52362381Y9707619D02*
X52362381Y9612380D01*
X52410000Y9517142D01*
X52457619Y9469523D01*
X52552857Y9421904D01*
X52743333Y9374285D01*
X52981429Y9374285D01*
X53171905Y9421904D01*
X53267143Y9469523D01*
X53314762Y9517142D01*
X53362381Y9612380D01*
X53362381Y9707619D01*
X53314762Y9802857D01*
X53267143Y9850476D01*
X53171905Y9898095D01*
X52981429Y9945714D01*
X52743333Y9945714D01*
X52552857Y9898095D01*
X52457619Y9850476D01*
X52410000Y9802857D01*
X52362381Y9707619D01*
X52457619Y8993333D02*
X52410000Y8945714D01*
X52362381Y8850476D01*
X52362381Y8612380D01*
X52410000Y8517142D01*
X52457619Y8469523D01*
X52552857Y8421904D01*
X52648095Y8421904D01*
X52790952Y8469523D01*
X53362381Y9040952D01*
X53362381Y8421904D01*
X55062381Y13421905D02*
X54062381Y13421905D01*
X55062381Y12850476D02*
X54490952Y13279048D01*
X54062381Y12850476D02*
X54633810Y13421905D01*
X54776667Y7398095D02*
X54776667Y6921904D01*
X55062381Y7493333D02*
X54062381Y7160000D01*
X55062381Y6826666D01*
X81527381Y11850476D02*
X80527381Y11850476D01*
X80527381Y11612381D01*
X80575000Y11469523D01*
X80670238Y11374285D01*
X80765476Y11326666D01*
X80955952Y11279047D01*
X81098810Y11279047D01*
X81289286Y11326666D01*
X81384524Y11374285D01*
X81479762Y11469523D01*
X81527381Y11612381D01*
X81527381Y11850476D01*
X80622619Y10898095D02*
X80575000Y10850476D01*
X80527381Y10755238D01*
X80527381Y10517142D01*
X80575000Y10421904D01*
X80622619Y10374285D01*
X80717857Y10326666D01*
X80813095Y10326666D01*
X80955952Y10374285D01*
X81527381Y10945714D01*
X81527381Y10326666D01*
X80527381Y9707619D02*
X80527381Y9612380D01*
X80575000Y9517142D01*
X80622619Y9469523D01*
X80717857Y9421904D01*
X80908333Y9374285D01*
X81146429Y9374285D01*
X81336905Y9421904D01*
X81432143Y9469523D01*
X81479762Y9517142D01*
X81527381Y9612380D01*
X81527381Y9707619D01*
X81479762Y9802857D01*
X81432143Y9850476D01*
X81336905Y9898095D01*
X81146429Y9945714D01*
X80908333Y9945714D01*
X80717857Y9898095D01*
X80622619Y9850476D01*
X80575000Y9802857D01*
X80527381Y9707619D01*
X80527381Y9040952D02*
X80527381Y8421904D01*
X80908333Y8755238D01*
X80908333Y8612380D01*
X80955952Y8517142D01*
X81003571Y8469523D01*
X81098810Y8421904D01*
X81336905Y8421904D01*
X81432143Y8469523D01*
X81479762Y8517142D01*
X81527381Y8612380D01*
X81527381Y8898095D01*
X81479762Y8993333D01*
X81432143Y9040952D01*
X79827381Y7421905D02*
X78827381Y7421905D01*
X79827381Y6850476D02*
X79255952Y7279048D01*
X78827381Y6850476D02*
X79398810Y7421905D01*
X79541667Y13398095D02*
X79541667Y12921904D01*
X79827381Y13493333D02*
X78827381Y13160000D01*
X79827381Y12826666D01*
M02*
