M48
;DRILL file {KiCad 4.0.2-stable} date 20/04/2016 14:35:13
;FORMAT={-:-/ absolute / metric / decimal}
FMAT,2
METRIC,TZ
T1C0.500
T2C0.800
T3C1.000
T4C3.200
%
G90
G05
M71
T1
X5.029Y75.807
X11.551Y87.663
X12.058Y48.4
X13.252Y84.214
X13.277Y46.343
X15.284Y85.992
X15.356Y87.663
X17.799Y47.968
X19.246Y46.343
X19.246Y43.066
X19.283Y87.663
X19.881Y39.637
X20.339Y48.349
X21.253Y68.339
X21.253Y66.053
X21.253Y63.513
X22.986Y87.663
X23.514Y48.349
X26.015Y77.483
X26.257Y39.637
X26.969Y87.663
X28.238Y68.466
X28.238Y65.926
X28.238Y63.386
X28.702Y80.01
X30.672Y87.663
X30.734Y85.09
X31.083Y76.797
X31.997Y72.073
X32.429Y68.466
X34.415Y87.663
X34.544Y82.042
X36.448Y65.278
X37.337Y61.721
X37.509Y58.408
X37.509Y53.251
X37.534Y55.893
X37.839Y48.4
X37.915Y50.788
X39.071Y66.777
X39.827Y61.671
X39.871Y71.997
X40.963Y78.067
X40.963Y72.708
X41.573Y69.045
X41.738Y64.542
X42.005Y61.71
X42.233Y72.505
X42.259Y76.696
X42.259Y74.003
X42.97Y52.718
X43.757Y73.775
X44.189Y59.576
X44.824Y58.255
X44.829Y69.025
X44.85Y66.79
X45.109Y64.554
X45.256Y72.53
X45.256Y61.1
X46.526Y25.159
X46.78Y73.8
X46.78Y59.576
X50.882Y66.79
T2
X2.33Y89.802
X2.33Y76.594
X2.33Y68.72
X2.33Y57.29
X2.33Y45.86
X2.33Y29.35
X2.33Y9.03
X2.921Y16.764
X5.08Y14.986
X7.22Y45.796
X7.283Y53.416
X7.366Y32.766
X7.41Y90.31
X7.41Y82.182
X8.635Y26.145
X8.635Y22.605
X8.934Y76.086
X9.442Y85.738
X9.696Y39.637
X9.696Y36.716
X9.906Y7.366
X9.95Y2.68
X10.159Y12.699
X10.159Y10.159
X10.667Y28.177
X10.667Y20.573
X11.22Y82.182
X12.045Y53.416
X12.191Y14.986
X12.191Y10.159
X12.446Y32.766
X15.767Y27.431
X16.363Y35.383
X16.763Y9.905
X17.272Y3.81
X18.014Y53.353
X18.142Y77.673
X18.267Y27.431
X18.795Y16.002
X19.729Y59.576
X20.065Y24.383
X20.065Y22.605
X21.38Y2.68
X21.843Y30.226
X22.65Y53.988
X23.113Y18.796
X23.317Y81.59
X23.317Y79.09
X23.621Y12.699
X23.621Y10.921
X23.621Y9.143
X24.174Y25.032
X24.428Y44.273
X24.784Y58.535
X25.908Y35.814
X27.222Y16.396
X27.476Y52.21
X27.685Y8.099
X27.685Y4.599
X27.686Y27.94
X27.686Y22.606
X29.063Y47.13
X30.27Y56.274
X31.286Y18.301
X31.286Y13.919
X31.54Y2.68
X33.Y30.81
X33.508Y39.002
X33.572Y51.829
X33.826Y23.635
X34.08Y7.252
X35.858Y12.586
X36.055Y43.251
X37.337Y28.575
X37.382Y18.301
X37.89Y90.564
X38.555Y43.251
X39.16Y27.064
X39.16Y7.252
X39.16Y2.68
X39.287Y16.523
X39.477Y90.627
X40.608Y34.176
X40.684Y12.586
X41.764Y83.325
X41.954Y97.676
X42.589Y16.777
X43.478Y46.876
X43.732Y79.578
X43.986Y91.326
X44.088Y31.241
X45.383Y43.066
X45.51Y14.491
X45.592Y75.819
X45.637Y20.841
X45.637Y19.063
X46.588Y31.241
X47.415Y40.145
X47.796Y56.02
X47.796Y11.57
X48.177Y26.937
X48.558Y16.777
X48.812Y78.626
X49.828Y91.326
X49.828Y45.606
X49.955Y35.7
X50.59Y97.676
X50.844Y16.65
X51.352Y11.57
X51.606Y56.782
X51.86Y28.08
X52.069Y75.819
X52.07Y72.624
X52.07Y70.124
X52.07Y63.48
X52.07Y60.98
X52.429Y91.17
X52.788Y83.248
X53.384Y16.65
X53.899Y54.928
X54.4Y23.635
X54.4Y2.68
X54.654Y66.688
X54.654Y42.558
X55.162Y18.301
X55.244Y51.18
X55.288Y83.248
X55.67Y31.89
X55.956Y40.272
X56.305Y89.103
X56.432Y34.176
X56.768Y79.882
X56.789Y47.752
X56.94Y74.054
X56.94Y37.986
X56.94Y35.954
X57.022Y58.165
X57.022Y56.642
X57.53Y85.343
X57.702Y63.64
X57.912Y9.144
X58.972Y70.498
X59.21Y31.115
X59.21Y17.145
X59.289Y47.752
X59.734Y97.676
X60.75Y88.532
X60.75Y63.64
X61.512Y45.606
X62.23Y9.144
X62.71Y31.115
X62.71Y17.145
X63.036Y47.13
X63.29Y70.498
X63.29Y67.196
X64.052Y37.986
X64.052Y34.938
X64.846Y40.272
X65.322Y91.834
X65.56Y84.379
X65.56Y60.63
X66.059Y21.832
X66.694Y17.082
X66.744Y13.094
X66.744Y9.144
X66.795Y6.388
X66.871Y36.157
X66.928Y44.703
X67.1Y97.676
X67.1Y31.128
X67.1Y26.81
X67.1Y2.68
X67.481Y21.806
X69.894Y37.986
X69.894Y34.938
X70.148Y69.482
X70.148Y67.45
X70.212Y80.849
X70.231Y56.769
X70.402Y92.596
X71.12Y17.145
X71.12Y9.144
X71.275Y31.115
X72.77Y45.593
X74.04Y91.82
X74.04Y89.28
X74.294Y97.789
X74.62Y17.145
X74.775Y31.115
X74.929Y44.957
X75.355Y57.988
X75.355Y52.845
X75.418Y81.737
X75.418Y76.467
X75.946Y68.326
X75.946Y9.144
X77.342Y60.197
X77.342Y50.418
X77.469Y45.719
X77.469Y40.639
X77.469Y38.608
X77.469Y36.068
X77.469Y33.654
X77.469Y26.034
X77.807Y74.421
X78.022Y65.164
X78.104Y17.145
X79.8Y94.12
X79.8Y90.818
X79.8Y87.516
X79.8Y2.68
X80.303Y83.819
X80.303Y59.944
X81.914Y97.789
X82.55Y9.906
X82.594Y81.928
X82.594Y72.276
X82.594Y48.908
X82.676Y64.135
X82.676Y58.166
X85.303Y83.819
X85.303Y59.944
X85.724Y42.544
X85.724Y33.02
X85.724Y24.764
X85.724Y15.239
X85.724Y6.984
X88.264Y97.789
X88.264Y89.534
X88.646Y80.772
X88.646Y71.882
X88.646Y61.976
X88.646Y49.276
X88.9Y57.658
X89.154Y85.852
X91.23Y2.68
X91.44Y65.532
X91.44Y62.484
X92.202Y41.148
X92.709Y88.264
X92.709Y33.654
X92.709Y25.399
X92.709Y17.145
X92.709Y11.429
X94.742Y29.21
X95.25Y53.594
X95.504Y11.43
X95.758Y77.47
X96.52Y88.138
X97.79Y75.184
X97.79Y66.04
X97.79Y59.944
X98.044Y83.82
X98.044Y50.8
X98.044Y36.83
X98.044Y21.336
X98.044Y11.43
T3
X9.525Y43.18
X11.43Y69.85
X11.43Y67.31
X11.43Y64.77
X11.43Y62.23
X11.43Y59.69
X11.557Y96.52
X11.557Y93.98
X12.065Y43.18
X13.97Y69.85
X13.97Y67.31
X13.97Y64.77
X13.97Y62.23
X13.97Y59.69
X15.367Y96.52
X15.367Y93.98
X19.177Y96.52
X19.177Y93.98
X21.082Y74.676
X22.987Y96.52
X22.987Y93.98
X23.622Y74.676
X26.162Y74.676
X26.797Y96.52
X26.797Y93.98
X30.607Y96.52
X30.607Y93.98
X34.417Y96.52
X34.417Y93.98
X45.085Y6.35
X59.055Y6.35
X71.12Y6.35
X80.303Y75.31
X80.303Y51.307
X85.303Y75.31
X85.303Y51.307
X91.948Y69.342
X91.948Y45.466
X94.488Y69.342
X94.488Y45.466
T4
X5.Y95.
X5.Y5.
X95.Y95.
X95.Y5.
T3
X47.49Y6.35G85X49.03Y6.35
G05
X61.46Y6.35G85X63.Y6.35
G05
X73.525Y6.35G85X75.065Y6.35
G05
T0
M30
