G04 #@! TF.FileFunction,Soldermask,Top*
%FSLAX46Y46*%
G04 Gerber Fmt 4.6, Leading zero omitted, Abs format (unit mm)*
G04 Created by KiCad (PCBNEW 4.0.2-stable) date 20/04/2016 14:34:56*
%MOMM*%
G01*
G04 APERTURE LIST*
%ADD10C,0.100000*%
%ADD11C,0.150000*%
%ADD12R,1.300000X1.700000*%
%ADD13R,1.500000X2.100000*%
%ADD14R,2.100000X1.500000*%
%ADD15C,2.400000*%
%ADD16R,1.700000X1.300000*%
%ADD17C,2.100000*%
%ADD18R,1.300000X1.300000*%
%ADD19C,2.600000*%
%ADD20R,1.400000X1.400000*%
%ADD21C,2.000000*%
%ADD22O,3.600000X2.000000*%
%ADD23R,1.600000X1.050000*%
%ADD24R,4.000000X2.600000*%
%ADD25R,0.950000X2.550000*%
%ADD26R,1.300000X1.600000*%
%ADD27R,1.300000X1.200000*%
%ADD28R,2.600000X1.000000*%
%ADD29R,0.850000X1.900000*%
%ADD30R,1.000000X2.600000*%
%ADD31C,6.200000*%
%ADD32C,3.000000*%
%ADD33R,4.000000X2.400000*%
%ADD34R,1.600000X2.400000*%
G04 APERTURE END LIST*
D10*
D11*
X100000000Y0D02*
X100000000Y100000000D01*
X100000000Y0D02*
X0Y0D01*
X0Y100000000D02*
X100000000Y100000000D01*
X0Y0D02*
X0Y100000000D01*
D12*
X70442000Y74676000D03*
X68242000Y74676000D03*
D13*
X67007000Y71628000D03*
X70407000Y71628000D03*
D14*
X91948000Y52578000D03*
X91948000Y49178000D03*
X91948000Y76454000D03*
X91948000Y73054000D03*
D15*
X59210000Y17145000D03*
X62710000Y17145000D03*
X71120000Y17145000D03*
X74620000Y17145000D03*
X27685000Y8099500D03*
X27685000Y4599500D03*
D16*
X19557000Y5841500D03*
X19557000Y3641500D03*
D12*
X59987000Y25527000D03*
X62187000Y25527000D03*
X71290000Y24130000D03*
X73490000Y24130000D03*
X19557000Y9143500D03*
X21757000Y9143500D03*
D15*
X59210000Y31115000D03*
X62710000Y31115000D03*
D12*
X19557000Y12699500D03*
X21757000Y12699500D03*
D15*
X71275000Y31115000D03*
X74775000Y31115000D03*
D16*
X53340000Y20531000D03*
X53340000Y18331000D03*
X50800000Y20531000D03*
X50800000Y18331000D03*
D12*
X12783000Y26145500D03*
X10583000Y26145500D03*
X12783000Y22605500D03*
X10583000Y22605500D03*
X16171000Y22605500D03*
X18371000Y22605500D03*
D17*
X44088000Y31241500D03*
X46588000Y31241500D03*
D12*
X44365000Y26860000D03*
X46565000Y26860000D03*
X15450000Y82245200D03*
X13250000Y82245200D03*
D17*
X23317200Y79090200D03*
X23317200Y81590200D03*
D18*
X29209000Y77469500D03*
X27309000Y77469500D03*
X29209000Y75437500D03*
X31109000Y75437500D03*
X29209000Y73405500D03*
X31109000Y73405500D03*
D16*
X38702300Y36350010D03*
X38702300Y34150010D03*
D17*
X36055300Y43251010D03*
X38555300Y43251010D03*
X52070000Y70124000D03*
X52070000Y72624000D03*
D18*
X35625000Y54609500D03*
X37525000Y54609500D03*
X35625000Y57149500D03*
X37525000Y57149500D03*
X35625000Y59689500D03*
X37525000Y59689500D03*
D16*
X46736000Y70274000D03*
X46736000Y72474000D03*
X43768000Y70274000D03*
X43768000Y72474000D03*
D12*
X15791000Y43053000D03*
X17991000Y43053000D03*
X15791000Y46355000D03*
X17991000Y46355000D03*
D16*
X12065000Y51900000D03*
X12065000Y49700000D03*
X43768000Y63330000D03*
X43768000Y61130000D03*
X20320000Y51900000D03*
X20320000Y49700000D03*
X46736000Y63330000D03*
X46736000Y61130000D03*
D12*
X9695000Y46355000D03*
X11895000Y46355000D03*
D17*
X52070000Y63480000D03*
X52070000Y60980000D03*
D16*
X30225000Y60155000D03*
X30225000Y57955000D03*
D12*
X58462000Y79882500D03*
X60662000Y79882500D03*
X60662000Y82168500D03*
X58462000Y82168500D03*
D15*
X80303000Y75310500D03*
X85303000Y75310500D03*
D19*
X85303000Y83819500D03*
X80303000Y83819500D03*
D15*
X80303000Y51307500D03*
X85303000Y51307500D03*
D19*
X85303000Y59943500D03*
X80303000Y59943500D03*
D16*
X67310000Y83078000D03*
X67310000Y80878000D03*
X67309000Y59392500D03*
X67309000Y57192500D03*
D12*
X70175000Y50926500D03*
X67975000Y50926500D03*
D16*
X75437000Y80093500D03*
X75437000Y77893500D03*
X75373500Y56344500D03*
X75373500Y54144500D03*
X62738000Y79926000D03*
X62738000Y82126000D03*
X62738000Y55923000D03*
X62738000Y58123000D03*
X37909500Y86720500D03*
X37909500Y88920500D03*
D12*
X41485000Y48005500D03*
X39285000Y48005500D03*
D16*
X40703500Y86720500D03*
X40703500Y88920500D03*
D12*
X41485000Y50799500D03*
X39285000Y50799500D03*
X52430500Y89344500D03*
X54630500Y89344500D03*
X53891000Y53213000D03*
X56091000Y53213000D03*
D16*
X43751500Y81132500D03*
X43751500Y83332500D03*
X45339000Y44747000D03*
X45339000Y46947000D03*
D20*
X16255000Y7365500D03*
X12855000Y7365500D03*
X50037000Y25604500D03*
X50037000Y29004500D03*
X20573000Y19479500D03*
X20573000Y16079500D03*
D14*
X21285200Y34063200D03*
X21285200Y37463200D03*
X30175200Y34063200D03*
X30175200Y37463200D03*
D16*
X58039000Y21887000D03*
X58039000Y24087000D03*
X76200000Y21760000D03*
X76200000Y23960000D03*
D12*
X13962200Y78435200D03*
X16162200Y78435200D03*
D16*
X36162300Y34150010D03*
X36162300Y36350010D03*
D21*
X59055000Y6350000D03*
D22*
X62230000Y6350000D03*
D21*
X71120000Y6350000D03*
D22*
X74295000Y6350000D03*
D21*
X45085000Y6350000D03*
D22*
X48260000Y6350000D03*
D16*
X64135000Y23960000D03*
X64135000Y21760000D03*
X69215000Y21760000D03*
X69215000Y23960000D03*
X39243000Y20404000D03*
X39243000Y18204000D03*
X39243000Y25484000D03*
X39243000Y23284000D03*
X34417000Y89070000D03*
X34417000Y91270000D03*
X18237200Y79367200D03*
X18237200Y81567200D03*
X30607000Y89070000D03*
X30607000Y91270000D03*
X26797000Y89070000D03*
X26797000Y91270000D03*
X22987000Y89070000D03*
X22987000Y91270000D03*
X19177000Y89070000D03*
X19177000Y91270000D03*
D12*
X36332300Y38425010D03*
X38532300Y38425010D03*
D16*
X15367000Y89070000D03*
X15367000Y91270000D03*
X11557000Y89070000D03*
X11557000Y91270000D03*
X9525000Y51900000D03*
X9525000Y49700000D03*
X23495000Y49700000D03*
X23495000Y51900000D03*
X20320000Y56345000D03*
X20320000Y54145000D03*
D12*
X19220000Y69850000D03*
X21420000Y69850000D03*
X23284000Y67310000D03*
X25484000Y67310000D03*
X23284000Y64770000D03*
X25484000Y64770000D03*
X23284000Y62230000D03*
X25484000Y62230000D03*
D16*
X21285200Y45753200D03*
X21285200Y43553200D03*
X18185400Y34068700D03*
X18185400Y31868700D03*
X27000200Y45499200D03*
X27000200Y43299200D03*
D12*
X30207400Y31952700D03*
X28007400Y31952700D03*
D13*
X72594000Y71627500D03*
X75994000Y71627500D03*
X68657000Y86232500D03*
X72057000Y86232500D03*
X72340000Y47751500D03*
X75740000Y47751500D03*
X68403000Y62483500D03*
X71803000Y62483500D03*
X72594000Y74421500D03*
X75994000Y74421500D03*
X74372000Y86232500D03*
X77772000Y86232500D03*
X72340000Y50672500D03*
X75740000Y50672500D03*
X74118000Y62483500D03*
X77518000Y62483500D03*
X68657000Y89407500D03*
X72057000Y89407500D03*
X66613000Y47752000D03*
X70013000Y47752000D03*
X68403000Y65531500D03*
X71803000Y65531500D03*
X62688000Y74548500D03*
X66088000Y74548500D03*
X62688000Y87629500D03*
X66088000Y87629500D03*
X62688000Y50672500D03*
X66088000Y50672500D03*
X62688000Y63753500D03*
X66088000Y63753500D03*
X58243000Y77469500D03*
X61643000Y77469500D03*
X59260000Y84581500D03*
X62660000Y84581500D03*
X59259000Y53466500D03*
X62659000Y53466500D03*
X59259000Y60578500D03*
X62659000Y60578500D03*
D14*
X37909500Y84440500D03*
X37909500Y81040500D03*
X40131000Y53495500D03*
X40131000Y56895500D03*
D13*
X49706000Y83185000D03*
X46306000Y83185000D03*
D14*
X53340000Y46941000D03*
X53340000Y50341000D03*
D23*
X23755200Y40589200D03*
X21355200Y41539200D03*
X21355200Y39639200D03*
X30232200Y40589200D03*
X27832200Y41539200D03*
X27832200Y39639200D03*
D24*
X45593000Y16789400D03*
D25*
X45593000Y23050500D03*
X43053000Y23050500D03*
X48133000Y23050500D03*
X46863000Y23050500D03*
X44323000Y23050500D03*
D26*
X17791000Y49415000D03*
D27*
X17791000Y51115000D03*
X15991000Y51115000D03*
X15991000Y49215000D03*
D28*
X43751500Y89090500D03*
X43751500Y87820500D03*
X43751500Y86550500D03*
X43751500Y85280500D03*
X48951500Y85280500D03*
X48951500Y86550500D03*
X48951500Y87820500D03*
X48951500Y89090500D03*
X45212000Y53213000D03*
X45212000Y51943000D03*
X45212000Y50673000D03*
X45212000Y49403000D03*
X50412000Y49403000D03*
X50412000Y50673000D03*
X50412000Y51943000D03*
X50412000Y53213000D03*
D29*
X40048000Y70250000D03*
X39398000Y70250000D03*
X38748000Y70250000D03*
X38098000Y70250000D03*
X37448000Y70250000D03*
X36798000Y70250000D03*
X36148000Y70250000D03*
X35498000Y70250000D03*
X34848000Y70250000D03*
X34198000Y70250000D03*
X33548000Y70250000D03*
X32898000Y70250000D03*
X32248000Y70250000D03*
X31598000Y70250000D03*
X31598000Y63500000D03*
X32248000Y63500000D03*
X32898000Y63500000D03*
X33548000Y63500000D03*
X34198000Y63500000D03*
X34848000Y63500000D03*
X35498000Y63500000D03*
X36148000Y63500000D03*
X36798000Y63500000D03*
X37448000Y63500000D03*
X38098000Y63500000D03*
X38748000Y63500000D03*
X39398000Y63500000D03*
X40048000Y63500000D03*
D30*
X69596000Y77866488D03*
X70866000Y77866488D03*
X72136000Y77866488D03*
X73406000Y77866488D03*
X73406000Y83066488D03*
X72136000Y83066488D03*
X70866000Y83066488D03*
X69596000Y83066488D03*
X69342000Y54145000D03*
X70612000Y54145000D03*
X71882000Y54145000D03*
X73152000Y54145000D03*
X73152000Y59345000D03*
X71882000Y59345000D03*
X70612000Y59345000D03*
X69342000Y59345000D03*
D17*
X52788500Y83248500D03*
X55288500Y83248500D03*
X56789000Y47752000D03*
X59289000Y47752000D03*
D18*
X39049000Y76707500D03*
X40949000Y76707500D03*
X39049000Y73999500D03*
X40949000Y73999500D03*
X40131000Y59181500D03*
X42031000Y59181500D03*
X42925000Y56895500D03*
X44825000Y56895500D03*
D12*
X92456000Y56134000D03*
X94656000Y56134000D03*
D16*
X23622000Y72050000D03*
X23622000Y69850000D03*
X5079000Y23029500D03*
X5079000Y25229500D03*
D12*
X5885000Y36703000D03*
X8085000Y36703000D03*
X5885000Y39624000D03*
X8085000Y39624000D03*
X4402000Y70739000D03*
X2202000Y70739000D03*
X4402000Y74168000D03*
X2202000Y74168000D03*
D17*
X15767000Y27431500D03*
X18267000Y27431500D03*
D12*
X58589000Y55879500D03*
X60789000Y55879500D03*
X60789000Y58165500D03*
X58589000Y58165500D03*
X92456000Y80010000D03*
X94656000Y80010000D03*
X77807000Y89280500D03*
X75607000Y89280500D03*
X77807000Y91820500D03*
X75607000Y91820500D03*
D21*
X34417000Y93980000D03*
X34417000Y96520000D03*
X30607000Y93980000D03*
X30607000Y96520000D03*
X26797000Y93980000D03*
X26797000Y96520000D03*
X22987000Y93980000D03*
X22987000Y96520000D03*
X19177000Y93980000D03*
X19177000Y96520000D03*
X15367000Y93980000D03*
X15367000Y96520000D03*
X11557000Y93980000D03*
X11557000Y96520000D03*
X9525000Y43180000D03*
X12065000Y43180000D03*
X11430000Y69850000D03*
X13970000Y69850000D03*
X11430000Y67310000D03*
X13970000Y67310000D03*
X11430000Y64770000D03*
X13970000Y64770000D03*
X11430000Y62230000D03*
X13970000Y62230000D03*
X11430000Y59690000D03*
X13970000Y59690000D03*
X26162000Y74676000D03*
X21082000Y74676000D03*
X23622000Y74676000D03*
X91948000Y69342000D03*
X94488000Y69342000D03*
X91948000Y45466000D03*
X94488000Y45466000D03*
D31*
X5000000Y5000000D03*
X95000000Y5000000D03*
X5000000Y95000000D03*
X95000000Y95000000D03*
D32*
X5000000Y12500000D03*
X85500000Y92000000D03*
D33*
X14477000Y19303500D03*
D34*
X14477000Y12699500D03*
X16763000Y12699500D03*
X12191000Y12699500D03*
D13*
X95856000Y83820000D03*
X92456000Y83820000D03*
X95856000Y59944000D03*
X92456000Y59944000D03*
D14*
X5080000Y20242000D03*
X5080000Y16842000D03*
M02*
