G04 #@! TF.FileFunction,Soldermask,Bot*
%FSLAX46Y46*%
G04 Gerber Fmt 4.6, Leading zero omitted, Abs format (unit mm)*
G04 Created by KiCad (PCBNEW 4.0.2-stable) date 20/04/2016 14:34:56*
%MOMM*%
G01*
G04 APERTURE LIST*
%ADD10C,0.100000*%
%ADD11C,0.150000*%
%ADD12C,2.400000*%
%ADD13R,1.300000X1.700000*%
%ADD14R,1.700000X1.300000*%
%ADD15C,2.100000*%
%ADD16C,2.600000*%
%ADD17R,1.500000X2.100000*%
%ADD18R,2.100000X1.500000*%
%ADD19R,1.400000X1.400000*%
%ADD20C,2.000000*%
%ADD21O,3.600000X2.000000*%
%ADD22C,6.200000*%
%ADD23C,3.000000*%
G04 APERTURE END LIST*
D10*
D11*
X100000000Y0D02*
X100000000Y100000000D01*
X100000000Y0D02*
X0Y0D01*
X0Y100000000D02*
X100000000Y100000000D01*
X0Y0D02*
X0Y100000000D01*
D12*
X59210000Y17145000D03*
X62710000Y17145000D03*
X71120000Y17145000D03*
X74620000Y17145000D03*
D13*
X59860000Y24130000D03*
X62060000Y24130000D03*
X71925000Y24130000D03*
X74125000Y24130000D03*
X59860000Y20955000D03*
X62060000Y20955000D03*
X71925000Y20955000D03*
X74125000Y20955000D03*
D14*
X31749000Y9651500D03*
X31749000Y7451500D03*
D13*
X59860000Y13335000D03*
X62060000Y13335000D03*
X71925000Y13335000D03*
X74125000Y13335000D03*
D12*
X27685000Y8099500D03*
X27685000Y4599500D03*
X59210000Y31115000D03*
X62710000Y31115000D03*
X71275000Y31115000D03*
X74775000Y31115000D03*
D13*
X59860000Y38100000D03*
X62060000Y38100000D03*
X71925000Y38100000D03*
X74125000Y38100000D03*
X59860000Y34925000D03*
X62060000Y34925000D03*
X71925000Y34925000D03*
X74125000Y34925000D03*
X59860000Y27940000D03*
X62060000Y27940000D03*
X71925000Y27940000D03*
X74125000Y27940000D03*
D15*
X44088000Y31241500D03*
X46588000Y31241500D03*
D13*
X44238000Y28066500D03*
X46438000Y28066500D03*
X44239000Y34416500D03*
X46439000Y34416500D03*
D15*
X23317200Y79090200D03*
X23317200Y81590200D03*
D14*
X20142200Y79367200D03*
X20142200Y81567200D03*
X26492200Y79367200D03*
X26492200Y81567200D03*
D15*
X36055300Y43251010D03*
X38555300Y43251010D03*
D13*
X36332300Y40330010D03*
X38532300Y40330010D03*
X36332300Y46680010D03*
X38532300Y46680010D03*
D15*
X52070000Y70124000D03*
X52070000Y72624000D03*
D14*
X48768000Y70274000D03*
X48768000Y72474000D03*
X48768000Y63330000D03*
X48768000Y61130000D03*
D15*
X52070000Y63480000D03*
X52070000Y60980000D03*
D12*
X80303000Y75310500D03*
X85303000Y75310500D03*
D16*
X85303000Y83819500D03*
X80303000Y83819500D03*
D12*
X80303000Y51307500D03*
X85303000Y51307500D03*
D16*
X85303000Y59943500D03*
X80303000Y59943500D03*
D17*
X65228000Y76453500D03*
X68628000Y76453500D03*
X65178200Y52831500D03*
X68578200Y52831500D03*
D13*
X65727400Y79501500D03*
X67927400Y79501500D03*
X65701000Y56133500D03*
X67901000Y56133500D03*
X65727400Y82549500D03*
X67927400Y82549500D03*
X65752800Y59055000D03*
X67952800Y59055000D03*
D18*
X60959000Y90425800D03*
X60959000Y93825800D03*
D17*
X49579000Y48259500D03*
X46179000Y48259500D03*
D14*
X57403000Y91178200D03*
X57403000Y93378200D03*
D13*
X48852000Y51307500D03*
X46652000Y51307500D03*
D14*
X54178200Y91170400D03*
X54178200Y93370400D03*
D13*
X48851000Y54355500D03*
X46651000Y54355500D03*
X52875000Y86487000D03*
X55075000Y86487000D03*
X56812000Y45339000D03*
X59012000Y45339000D03*
X52875000Y80073500D03*
X55075000Y80073500D03*
X56812000Y50292000D03*
X59012000Y50292000D03*
D19*
X44654000Y24891500D03*
X48054000Y24891500D03*
D13*
X36913000Y9651500D03*
X34713000Y9651500D03*
D20*
X59055000Y6350000D03*
D21*
X62230000Y6350000D03*
D20*
X71120000Y6350000D03*
D21*
X74295000Y6350000D03*
D20*
X45085000Y6350000D03*
D21*
X48260000Y6350000D03*
D13*
X31749000Y4825500D03*
X33949000Y4825500D03*
X18879000Y69849500D03*
X16679000Y69849500D03*
X18880000Y67310000D03*
X16680000Y67310000D03*
X18880000Y64770000D03*
X16680000Y64770000D03*
X18880000Y62230000D03*
X16680000Y62230000D03*
D15*
X52788500Y83248500D03*
X55288500Y83248500D03*
X56789000Y47752000D03*
X59289000Y47752000D03*
D14*
X34426160Y85960900D03*
X34426160Y83760900D03*
D15*
X15767000Y27431500D03*
X18267000Y27431500D03*
D13*
X75521000Y62762708D03*
X73321000Y62762708D03*
X75521000Y60137708D03*
X73321000Y60137708D03*
X75267000Y71893384D03*
X73067000Y71893384D03*
X75013000Y50291500D03*
X72813000Y50291500D03*
X75267000Y74306384D03*
X73067000Y74306384D03*
X75013000Y47878500D03*
X72813000Y47878500D03*
D14*
X23621000Y69892500D03*
X23621000Y72092500D03*
D20*
X34417000Y93980000D03*
X34417000Y96520000D03*
X30607000Y93980000D03*
X30607000Y96520000D03*
X26797000Y93980000D03*
X26797000Y96520000D03*
X22987000Y93980000D03*
X22987000Y96520000D03*
X19177000Y93980000D03*
X19177000Y96520000D03*
X15367000Y93980000D03*
X15367000Y96520000D03*
X11557000Y93980000D03*
X11557000Y96520000D03*
X9525000Y43180000D03*
X12065000Y43180000D03*
X11430000Y69850000D03*
X13970000Y69850000D03*
X11430000Y67310000D03*
X13970000Y67310000D03*
X11430000Y64770000D03*
X13970000Y64770000D03*
X11430000Y62230000D03*
X13970000Y62230000D03*
X11430000Y59690000D03*
X13970000Y59690000D03*
X26162000Y74676000D03*
X21082000Y74676000D03*
X23622000Y74676000D03*
X91948000Y69342000D03*
X94488000Y69342000D03*
X91948000Y45466000D03*
X94488000Y45466000D03*
D22*
X5000000Y5000000D03*
X95000000Y5000000D03*
X5000000Y95000000D03*
X95000000Y95000000D03*
D23*
X5000000Y12500000D03*
X85500000Y92000000D03*
D19*
X41401000Y9651500D03*
X44801000Y9651500D03*
X54610000Y11860000D03*
X54610000Y8460000D03*
X79375000Y8460000D03*
X79375000Y11860000D03*
M02*
