G04 #@! TF.FileFunction,Soldermask,Top*
%FSLAX46Y46*%
G04 Gerber Fmt 4.6, Leading zero omitted, Abs format (unit mm)*
G04 Created by KiCad (PCBNEW 4.0.1-stable) date 19/01/2016 21:52:03*
%MOMM*%
G01*
G04 APERTURE LIST*
%ADD10C,0.100000*%
%ADD11R,1.300000X1.700000*%
%ADD12R,1.500000X2.100000*%
%ADD13C,2.400000*%
%ADD14R,1.700000X1.300000*%
%ADD15C,2.100000*%
%ADD16R,1.300000X1.300000*%
%ADD17C,2.600000*%
%ADD18R,1.400000X1.400000*%
%ADD19R,2.100000X1.500000*%
%ADD20C,2.000000*%
%ADD21O,3.600000X2.000000*%
%ADD22R,1.600000X1.050000*%
%ADD23R,4.000000X2.600000*%
%ADD24R,0.950000X2.550000*%
%ADD25R,1.300000X1.600000*%
%ADD26R,1.300000X1.200000*%
%ADD27R,2.600000X1.000000*%
%ADD28R,0.850000X1.900000*%
%ADD29R,1.000000X2.600000*%
G04 APERTURE END LIST*
D10*
D11*
X70443000Y74676500D03*
X68243000Y74676500D03*
D12*
X67008000Y71628500D03*
X70408000Y71628500D03*
X89232000Y51308000D03*
X92632000Y51308000D03*
X89232000Y75438000D03*
X92632000Y75438000D03*
D13*
X59211000Y17145500D03*
X62711000Y17145500D03*
X71121000Y17145500D03*
X74621000Y17145500D03*
X28737500Y6350500D03*
X25237500Y6350500D03*
D11*
X28786000Y11557000D03*
X26586000Y11557000D03*
X59988000Y25527500D03*
X62188000Y25527500D03*
X71291000Y24130500D03*
X73491000Y24130500D03*
X28786000Y14478000D03*
X26586000Y14478000D03*
D13*
X59211000Y31115500D03*
X62711000Y31115500D03*
D11*
X28786000Y17526000D03*
X26586000Y17526000D03*
D13*
X71276000Y31115500D03*
X74776000Y31115500D03*
D14*
X53341000Y20531500D03*
X53341000Y18331500D03*
X50801000Y20531500D03*
X50801000Y18331500D03*
D11*
X20380400Y28520900D03*
X22580400Y28520900D03*
X20380400Y25980900D03*
X22580400Y25980900D03*
X20380400Y23440900D03*
X22580400Y23440900D03*
D15*
X44089000Y31242000D03*
X46589000Y31242000D03*
D11*
X44366000Y26860500D03*
X46566000Y26860500D03*
X15451000Y82245700D03*
X13251000Y82245700D03*
D15*
X23318200Y79090700D03*
X23318200Y81590700D03*
D16*
X31149000Y74930500D03*
X29249000Y74930500D03*
X31149000Y76835500D03*
X29249000Y76835500D03*
X31149000Y73025500D03*
X29249000Y73025500D03*
D14*
X38703300Y36350510D03*
X38703300Y34150510D03*
D15*
X36056300Y43251510D03*
X38556300Y43251510D03*
X48849000Y70124500D03*
X48849000Y72624500D03*
D16*
X36033400Y55194700D03*
X37933400Y55194700D03*
X36033400Y57734700D03*
X37933400Y57734700D03*
X36033400Y60274700D03*
X37933400Y60274700D03*
D14*
X43769000Y70274500D03*
X43769000Y72474500D03*
D11*
X15792000Y43053500D03*
X17992000Y43053500D03*
X15792000Y46355500D03*
X17992000Y46355500D03*
D14*
X12066000Y51900500D03*
X12066000Y49700500D03*
X43769000Y63330500D03*
X43769000Y61130500D03*
X20321000Y51900500D03*
X20321000Y49700500D03*
D11*
X9696000Y46355500D03*
X11896000Y46355500D03*
D15*
X48849000Y63480500D03*
X48849000Y60980500D03*
D14*
X31751000Y60155500D03*
X31751000Y57955500D03*
D11*
X58463000Y79883000D03*
X60663000Y79883000D03*
X60663000Y82169000D03*
X58463000Y82169000D03*
D13*
X85304000Y75311000D03*
X80304000Y75311000D03*
D17*
X85304000Y83820000D03*
X80304000Y83820000D03*
D13*
X85304000Y51308000D03*
X80304000Y51308000D03*
D17*
X85304000Y59944000D03*
X80304000Y59944000D03*
D14*
X67311000Y83078500D03*
X67311000Y80878500D03*
X67310000Y59393000D03*
X67310000Y57193000D03*
D11*
X70176000Y50927000D03*
X67976000Y50927000D03*
D14*
X75438000Y80094000D03*
X75438000Y77894000D03*
X75374500Y56345000D03*
X75374500Y54145000D03*
X62739000Y79926500D03*
X62739000Y82126500D03*
X62739000Y55923500D03*
X62739000Y58123500D03*
X37910500Y86721000D03*
X37910500Y88921000D03*
D11*
X41995000Y49340000D03*
X39795000Y49340000D03*
D14*
X40704500Y86721000D03*
X40704500Y88921000D03*
D11*
X41995000Y51943500D03*
X39795000Y51943500D03*
X52431500Y89345000D03*
X54631500Y89345000D03*
X53892000Y53213500D03*
X56092000Y53213500D03*
D14*
X43752500Y81133000D03*
X43752500Y83333000D03*
X45340000Y44747500D03*
X45340000Y46947500D03*
D18*
X27940000Y22430000D03*
X27940000Y25830000D03*
X50038000Y25605000D03*
X50038000Y29005000D03*
X10668000Y27608000D03*
X10668000Y24208000D03*
D19*
X21286200Y34063700D03*
X21286200Y37463700D03*
X30176200Y34063700D03*
X30176200Y37463700D03*
D14*
X58040000Y21887500D03*
X58040000Y24087500D03*
X76201000Y21760500D03*
X76201000Y23960500D03*
D11*
X13963200Y78435700D03*
X16163200Y78435700D03*
D14*
X36163300Y34150510D03*
X36163300Y36350510D03*
D20*
X59056000Y6350500D03*
D21*
X62231000Y6350500D03*
D20*
X71121000Y6350500D03*
D21*
X74296000Y6350500D03*
D20*
X45086000Y6350500D03*
D21*
X48261000Y6350500D03*
D20*
X34418000Y93980500D03*
X34418000Y96520500D03*
X30608000Y93980500D03*
X30608000Y96520500D03*
X26798000Y93980500D03*
X26798000Y96520500D03*
X22988000Y93980500D03*
X22988000Y96520500D03*
X19178000Y93980500D03*
X19178000Y96520500D03*
X15368000Y93980500D03*
X15368000Y96520500D03*
X11558000Y93980500D03*
X11558000Y96520500D03*
X9526000Y43180500D03*
X12066000Y43180500D03*
X11431000Y69850500D03*
X13971000Y69850500D03*
X11431000Y67310500D03*
X13971000Y67310500D03*
X11431000Y64770500D03*
X13971000Y64770500D03*
X11431000Y62230500D03*
X13971000Y62230500D03*
X11431000Y59690500D03*
X13971000Y59690500D03*
D14*
X64136000Y23960500D03*
X64136000Y21760500D03*
X69216000Y21760500D03*
X69216000Y23960500D03*
X16591000Y19760500D03*
X16591000Y17560500D03*
X16591000Y13115500D03*
X16591000Y15315500D03*
X39244000Y20404500D03*
X39244000Y18204500D03*
X39244000Y25484500D03*
X39244000Y23284500D03*
X34418000Y89070500D03*
X34418000Y91270500D03*
X18238200Y79367700D03*
X18238200Y81567700D03*
X30608000Y89070500D03*
X30608000Y91270500D03*
X26798000Y89070500D03*
X26798000Y91270500D03*
X22988000Y89070500D03*
X22988000Y91270500D03*
X19178000Y89070500D03*
X19178000Y91270500D03*
D11*
X36333300Y38425510D03*
X38533300Y38425510D03*
D14*
X15368000Y89070500D03*
X15368000Y91270500D03*
X11558000Y89070500D03*
X11558000Y91270500D03*
X9526000Y51900500D03*
X9526000Y49700500D03*
X23496000Y49700500D03*
X23496000Y51900500D03*
X20321000Y56345500D03*
X20321000Y54145500D03*
D11*
X19221000Y69850500D03*
X21421000Y69850500D03*
X23285000Y67310500D03*
X25485000Y67310500D03*
X23285000Y64770500D03*
X25485000Y64770500D03*
X23285000Y62230500D03*
X25485000Y62230500D03*
D14*
X21286200Y45753700D03*
X21286200Y43553700D03*
X18186400Y34069200D03*
X18186400Y31869200D03*
X27001200Y45499700D03*
X27001200Y43299700D03*
D11*
X30208400Y31953200D03*
X28008400Y31953200D03*
D12*
X72595000Y71628000D03*
X75995000Y71628000D03*
X68658000Y86233000D03*
X72058000Y86233000D03*
X72341000Y47752000D03*
X75741000Y47752000D03*
X68404000Y62484000D03*
X71804000Y62484000D03*
X72595000Y74422000D03*
X75995000Y74422000D03*
X74373000Y86233000D03*
X77773000Y86233000D03*
X72341000Y50673000D03*
X75741000Y50673000D03*
X74119000Y62484000D03*
X77519000Y62484000D03*
X68658000Y89408000D03*
X72058000Y89408000D03*
X66614000Y47752500D03*
X70014000Y47752500D03*
X68404000Y65532000D03*
X71804000Y65532000D03*
X62689000Y74549000D03*
X66089000Y74549000D03*
X62689000Y87630000D03*
X66089000Y87630000D03*
X62689000Y50673000D03*
X66089000Y50673000D03*
X62689000Y63754000D03*
X66089000Y63754000D03*
X58244000Y77470000D03*
X61644000Y77470000D03*
X59261000Y84582000D03*
X62661000Y84582000D03*
X59260000Y53467000D03*
X62660000Y53467000D03*
X59260000Y60579000D03*
X62660000Y60579000D03*
D19*
X37910500Y84441000D03*
X37910500Y81041000D03*
D12*
X43357000Y55499500D03*
X39957000Y55499500D03*
X49707000Y83185500D03*
X46307000Y83185500D03*
D19*
X53341000Y46941500D03*
X53341000Y50341500D03*
D22*
X23756200Y40589700D03*
X21356200Y41539700D03*
X21356200Y39639700D03*
X30233200Y40589700D03*
X27833200Y41539700D03*
X27833200Y39639700D03*
D23*
X21671000Y13605900D03*
D24*
X21671000Y19867000D03*
X19131000Y19867000D03*
X24211000Y19867000D03*
X22941000Y19867000D03*
X20401000Y19867000D03*
D23*
X45594000Y16789900D03*
D24*
X45594000Y23051000D03*
X43054000Y23051000D03*
X48134000Y23051000D03*
X46864000Y23051000D03*
X44324000Y23051000D03*
D25*
X17792000Y49415500D03*
D26*
X17792000Y51115500D03*
X15992000Y51115500D03*
X15992000Y49215500D03*
D27*
X43752500Y89091000D03*
X43752500Y87821000D03*
X43752500Y86551000D03*
X43752500Y85281000D03*
X48952500Y85281000D03*
X48952500Y86551000D03*
X48952500Y87821000D03*
X48952500Y89091000D03*
X45213000Y53213500D03*
X45213000Y51943500D03*
X45213000Y50673500D03*
X45213000Y49403500D03*
X50413000Y49403500D03*
X50413000Y50673500D03*
X50413000Y51943500D03*
X50413000Y53213500D03*
D28*
X40049000Y70250500D03*
X39399000Y70250500D03*
X38749000Y70250500D03*
X38099000Y70250500D03*
X37449000Y70250500D03*
X36799000Y70250500D03*
X36149000Y70250500D03*
X35499000Y70250500D03*
X34849000Y70250500D03*
X34199000Y70250500D03*
X33549000Y70250500D03*
X32899000Y70250500D03*
X32249000Y70250500D03*
X31599000Y70250500D03*
X31599000Y63500500D03*
X32249000Y63500500D03*
X32899000Y63500500D03*
X33549000Y63500500D03*
X34199000Y63500500D03*
X34849000Y63500500D03*
X35499000Y63500500D03*
X36149000Y63500500D03*
X36799000Y63500500D03*
X37449000Y63500500D03*
X38099000Y63500500D03*
X38749000Y63500500D03*
X39399000Y63500500D03*
X40049000Y63500500D03*
D29*
X69597000Y77866988D03*
X70867000Y77866988D03*
X72137000Y77866988D03*
X73407000Y77866988D03*
X73407000Y83066988D03*
X72137000Y83066988D03*
X70867000Y83066988D03*
X69597000Y83066988D03*
X69343000Y54145500D03*
X70613000Y54145500D03*
X71883000Y54145500D03*
X73153000Y54145500D03*
X73153000Y59345500D03*
X71883000Y59345500D03*
X70613000Y59345500D03*
X69343000Y59345500D03*
D15*
X52789500Y83249000D03*
X55289500Y83249000D03*
X56790000Y47752500D03*
X59290000Y47752500D03*
D16*
X39050000Y76200000D03*
X40950000Y76200000D03*
X39050000Y74000000D03*
X40950000Y74000000D03*
X39754500Y59563500D03*
X41654500Y59563500D03*
X39754500Y57658500D03*
X41654500Y57658500D03*
D11*
X92626000Y53848000D03*
X94826000Y53848000D03*
D19*
X88900000Y83742000D03*
X88900000Y80342000D03*
X88900000Y59866000D03*
X88900000Y56466000D03*
D20*
X26163000Y74676500D03*
X21083000Y74676500D03*
X23623000Y74676500D03*
D14*
X23623000Y72050500D03*
X23623000Y69850500D03*
X5080000Y23030000D03*
X5080000Y25230000D03*
X5080000Y20150000D03*
X5080000Y17950000D03*
D11*
X5886000Y36703500D03*
X8086000Y36703500D03*
X5886000Y39624500D03*
X8086000Y39624500D03*
X4403000Y70739500D03*
X2203000Y70739500D03*
X4403000Y74168500D03*
X2203000Y74168500D03*
D15*
X16027400Y28529600D03*
X16027400Y26029600D03*
D11*
X58590000Y55880000D03*
X60790000Y55880000D03*
X60790000Y58166000D03*
X58590000Y58166000D03*
D20*
X92583000Y71882000D03*
X95123000Y71882000D03*
X92710000Y47752000D03*
X95250000Y47752000D03*
D11*
X92626000Y77978000D03*
X94826000Y77978000D03*
X77808000Y89281000D03*
X75608000Y89281000D03*
X77808000Y91821000D03*
X75608000Y91821000D03*
M02*
