G04 #@! TF.FileFunction,Soldermask,Bot*
%FSLAX46Y46*%
G04 Gerber Fmt 4.6, Leading zero omitted, Abs format (unit mm)*
G04 Created by KiCad (PCBNEW 4.0.1-stable) date 19/01/2016 21:52:03*
%MOMM*%
G01*
G04 APERTURE LIST*
%ADD10C,0.100000*%
%ADD11C,2.400000*%
%ADD12R,1.300000X1.700000*%
%ADD13R,1.700000X1.300000*%
%ADD14C,2.100000*%
%ADD15C,2.600000*%
%ADD16R,1.500000X2.100000*%
%ADD17R,2.100000X1.500000*%
%ADD18R,2.900000X2.100000*%
%ADD19R,2.100000X2.900000*%
%ADD20R,1.400000X1.400000*%
%ADD21C,2.000000*%
%ADD22O,3.600000X2.000000*%
G04 APERTURE END LIST*
D10*
D11*
X59211000Y17145500D03*
X62711000Y17145500D03*
X71121000Y17145500D03*
X74621000Y17145500D03*
D12*
X59861000Y24130500D03*
X62061000Y24130500D03*
X71926000Y24130500D03*
X74126000Y24130500D03*
X59861000Y20955500D03*
X62061000Y20955500D03*
X71926000Y20955500D03*
X74126000Y20955500D03*
D13*
X32005000Y8933500D03*
X32005000Y11133500D03*
D12*
X59861000Y13335500D03*
X62061000Y13335500D03*
X71926000Y13335500D03*
X74126000Y13335500D03*
D11*
X28737500Y6350500D03*
X25237500Y6350500D03*
X59211000Y31115500D03*
X62711000Y31115500D03*
X71276000Y31115500D03*
X74776000Y31115500D03*
D12*
X59861000Y38100500D03*
X62061000Y38100500D03*
X71926000Y38100500D03*
X74126000Y38100500D03*
X59861000Y34925500D03*
X62061000Y34925500D03*
X71926000Y34925500D03*
X74126000Y34925500D03*
X59861000Y27940500D03*
X62061000Y27940500D03*
X71926000Y27940500D03*
X74126000Y27940500D03*
D14*
X44089000Y31242000D03*
X46589000Y31242000D03*
D12*
X44239000Y28067000D03*
X46439000Y28067000D03*
X44240000Y34417000D03*
X46440000Y34417000D03*
D14*
X23318200Y79090700D03*
X23318200Y81590700D03*
D13*
X20143200Y79367700D03*
X20143200Y81567700D03*
X26493200Y79367700D03*
X26493200Y81567700D03*
D14*
X36056300Y43251510D03*
X38556300Y43251510D03*
D12*
X36333300Y40330510D03*
X38533300Y40330510D03*
X36333300Y46680510D03*
X38533300Y46680510D03*
D14*
X48849000Y70124500D03*
X48849000Y72624500D03*
D13*
X51816000Y70274500D03*
X51816000Y72474500D03*
X45974000Y70274500D03*
X45974000Y72474500D03*
X45974000Y63330500D03*
X45974000Y61130500D03*
X51816000Y63330500D03*
X51816000Y61130500D03*
D14*
X48849000Y63480500D03*
X48849000Y60980500D03*
D11*
X85304000Y75311000D03*
X80304000Y75311000D03*
D15*
X85304000Y83820000D03*
X80304000Y83820000D03*
D11*
X85304000Y51308000D03*
X80304000Y51308000D03*
D15*
X85304000Y59944000D03*
X80304000Y59944000D03*
D16*
X65204600Y78537300D03*
X68604600Y78537300D03*
X65179200Y55093100D03*
X68579200Y55093100D03*
D12*
X65728400Y80696300D03*
X67928400Y80696300D03*
X65753800Y57150500D03*
X67953800Y57150500D03*
X65728400Y82753700D03*
X67928400Y82753700D03*
X65753800Y59055500D03*
X67953800Y59055500D03*
D17*
X59716400Y90426300D03*
X59716400Y93826300D03*
D16*
X49580000Y48514500D03*
X46180000Y48514500D03*
D13*
X56719200Y91178700D03*
X56719200Y93378700D03*
D12*
X48853000Y51181500D03*
X46653000Y51181500D03*
D13*
X54179200Y91170900D03*
X54179200Y93370900D03*
D12*
X48853000Y53594500D03*
X46653000Y53594500D03*
X52876000Y86487500D03*
X55076000Y86487500D03*
X56813000Y45339500D03*
X59013000Y45339500D03*
X52876000Y80074000D03*
X55076000Y80074000D03*
X56813000Y50292500D03*
X59013000Y50292500D03*
D18*
X41371000Y6350500D03*
X37371000Y6350500D03*
D19*
X54611000Y8160500D03*
X54611000Y12160500D03*
X79376000Y12160500D03*
X79376000Y8160500D03*
D20*
X44655000Y24892000D03*
X48055000Y24892000D03*
D12*
X34248000Y6350500D03*
X32048000Y6350500D03*
D21*
X59056000Y6350500D03*
D22*
X62231000Y6350500D03*
D21*
X71121000Y6350500D03*
D22*
X74296000Y6350500D03*
D21*
X45086000Y6350500D03*
D22*
X48261000Y6350500D03*
D21*
X34418000Y93980500D03*
X34418000Y96520500D03*
X30608000Y93980500D03*
X30608000Y96520500D03*
X26798000Y93980500D03*
X26798000Y96520500D03*
X22988000Y93980500D03*
X22988000Y96520500D03*
X19178000Y93980500D03*
X19178000Y96520500D03*
X15368000Y93980500D03*
X15368000Y96520500D03*
X11558000Y93980500D03*
X11558000Y96520500D03*
X9526000Y43180500D03*
X12066000Y43180500D03*
X11431000Y69850500D03*
X13971000Y69850500D03*
X11431000Y67310500D03*
X13971000Y67310500D03*
X11431000Y64770500D03*
X13971000Y64770500D03*
X11431000Y62230500D03*
X13971000Y62230500D03*
X11431000Y59690500D03*
X13971000Y59690500D03*
D12*
X34715000Y11176500D03*
X36915000Y11176500D03*
X18880000Y69850000D03*
X16680000Y69850000D03*
X18881000Y67310500D03*
X16681000Y67310500D03*
X18881000Y64770500D03*
X16681000Y64770500D03*
X18881000Y62230500D03*
X16681000Y62230500D03*
D14*
X52789500Y83249000D03*
X55289500Y83249000D03*
X56790000Y47752500D03*
X59290000Y47752500D03*
D21*
X26163000Y74676500D03*
X21083000Y74676500D03*
X23623000Y74676500D03*
D13*
X34427160Y85961400D03*
X34427160Y83761400D03*
D14*
X16027400Y28529600D03*
X16027400Y26029600D03*
D21*
X92583000Y71882000D03*
X95123000Y71882000D03*
X92710000Y47752000D03*
X95250000Y47752000D03*
D12*
X75522000Y62763208D03*
X73322000Y62763208D03*
X75522000Y60138208D03*
X73322000Y60138208D03*
X75268000Y71893884D03*
X73068000Y71893884D03*
X75014000Y50292000D03*
X72814000Y50292000D03*
X75268000Y74306884D03*
X73068000Y74306884D03*
X75014000Y47879000D03*
X72814000Y47879000D03*
D13*
X23622000Y69893000D03*
X23622000Y72093000D03*
M02*
