M48
;DRILL file {KiCad 4.0.1-stable} date 19/01/2016 21:52:06
;FORMAT={-:-/ absolute / metric / decimal}
FMAT,2
METRIC,TZ
T1C0.500
T2C0.800
T3C1.000
T4C3.000
%
G90
G05
M71
T1
X5.03Y75.807
X11.552Y87.664
X12.059Y48.401
X13.278Y46.343
X15.357Y87.664
X17.8Y47.969
X19.247Y46.343
X19.247Y43.066
X19.284Y87.664
X19.882Y39.637
X20.34Y48.35
X21.254Y68.34
X21.254Y66.053
X21.254Y63.514
X22.651Y21.857
X22.987Y87.664
X23.515Y48.35
X25.191Y11.57
X26.258Y39.637
X26.588Y16.015
X26.588Y13.031
X26.97Y87.664
X30.48Y70.231
X30.673Y87.664
X30.734Y71.755
X32.43Y68.466
X34.416Y87.664
X36.449Y65.278
X37.338Y61.722
X37.923Y59.005
X37.923Y56.465
X37.923Y53.925
X38.475Y51.956
X38.475Y49.366
X39.072Y66.777
X39.828Y61.672
X39.872Y71.997
X40.431Y46.724
X40.964Y77.56
X40.964Y72.708
X41.574Y69.046
X41.65Y60.872
X41.739Y64.542
X42.234Y72.505
X42.26Y76.188
X42.26Y74.004
X42.971Y57.646
X42.996Y59.576
X43.758Y73.775
X44.19Y59.576
X44.83Y69.025
X44.851Y66.79
X45.11Y64.555
X46.527Y25.159
X50.883Y66.79
T2
X2.331Y90.31
X2.331Y76.34
X2.331Y68.721
X2.331Y57.29
X2.331Y45.86
X2.331Y29.351
X2.331Y9.03
X3.03Y17.921
X5.061Y16.27
X7.22Y45.797
X7.284Y53.417
X7.411Y81.42
X8.745Y31.636
X8.935Y76.087
X8.998Y24.207
X9.526Y43.18
X9.697Y39.637
X9.697Y36.716
X9.931Y12.548
X9.951Y85.23
X9.951Y2.68
X10.649Y22.492
X11.221Y81.42
X11.431Y69.85
X11.431Y67.31
X11.431Y64.77
X11.431Y62.23
X11.431Y59.691
X11.558Y96.52
X11.558Y93.98
X12.046Y53.417
X12.066Y43.18
X13.634Y31.128
X13.971Y69.85
X13.971Y67.31
X13.971Y64.77
X13.971Y62.23
X13.971Y59.691
X14.777Y13.095
X15.368Y96.52
X15.368Y93.98
X16.027Y28.53
X16.027Y26.03
X16.364Y35.383
X16.555Y11.57
X18.015Y53.353
X18.142Y77.674
X18.523Y13.666
X19.178Y96.52
X19.178Y93.98
X19.73Y59.576
X21.083Y74.676
X21.381Y2.68
X21.635Y17.666
X21.635Y11.253
X21.671Y15.875
X22.988Y96.52
X22.988Y93.98
X23.318Y81.591
X23.318Y79.091
X23.476Y55.258
X23.623Y74.676
X23.667Y35.828
X24.238Y28.588
X24.238Y25.858
X24.302Y23.445
X24.429Y44.273
X24.746Y13.602
X25.237Y6.35
X25.953Y27.064
X26.163Y74.676
X26.798Y96.52
X26.798Y93.98
X26.842Y33.859
X27.223Y51.639
X27.54Y72.784
X27.604Y76.849
X27.604Y58.751
X28.737Y6.35
X28.81Y68.53
X28.81Y66.117
X28.81Y63.514
X29.064Y47.13
X29.89Y57.989
X30.608Y96.52
X30.608Y93.98
X31.287Y18.302
X31.287Y13.92
X31.541Y2.68
X31.731Y56.338
X33.002Y30.811
X33.509Y39.002
X33.573Y51.829
X33.827Y23.636
X34.418Y96.52
X34.418Y93.98
X36.056Y43.252
X36.875Y12.967
X37.338Y28.576
X37.383Y18.302
X37.891Y90.564
X38.526Y11.189
X38.556Y43.252
X39.161Y27.064
X39.161Y2.68
X39.288Y16.523
X39.478Y90.628
X40.609Y34.176
X41.764Y83.325
X42.59Y16.777
X43.479Y46.877
X43.733Y79.579
X44.089Y31.242
X45.384Y43.066
X45.511Y14.491
X45.593Y75.819
X45.638Y20.841
X45.638Y19.063
X46.589Y31.242
X47.289Y56.528
X47.416Y40.145
X48.178Y26.938
X48.559Y16.777
X48.849Y72.624
X48.849Y70.124
X48.849Y63.48
X48.849Y60.98
X49.829Y45.606
X49.956Y35.7
X50.845Y16.651
X51.861Y28.08
X52.07Y75.819
X52.43Y91.171
X52.789Y83.249
X53.385Y16.651
X53.9Y54.928
X54.401Y23.636
X54.401Y2.68
X54.655Y42.558
X55.163Y18.302
X55.245Y51.181
X55.289Y83.249
X55.671Y31.89
X55.957Y40.273
X56.306Y89.104
X56.306Y36.971
X56.388Y66.421
X56.769Y79.883
X56.79Y47.752
X57.023Y58.166
X57.023Y56.642
X57.531Y85.344
X59.055Y63.754
X59.211Y31.115
X59.211Y17.145
X59.29Y47.752
X60.96Y72.39
X62.711Y31.115
X62.711Y17.145
X62.865Y68.58
X64.847Y40.273
X65.561Y84.379
X65.561Y60.63
X66.06Y21.832
X66.695Y17.082
X66.745Y13.095
X66.796Y6.389
X66.872Y36.158
X66.898Y25.972
X66.923Y31.103
X66.929Y44.704
X67.101Y2.68
X67.482Y21.807
X70.149Y57.227
X70.212Y80.849
X71.121Y17.145
X71.276Y31.115
X72.771Y45.593
X73.025Y68.58
X74.041Y91.821
X74.041Y89.281
X74.295Y97.79
X74.621Y17.145
X74.776Y31.115
X74.93Y44.958
X75.356Y57.989
X75.356Y52.845
X75.419Y81.738
X75.419Y76.468
X77.343Y60.198
X77.343Y50.419
X77.47Y45.72
X77.47Y40.64
X77.47Y33.655
X77.47Y26.035
X77.808Y93.471
X77.808Y74.422
X78.105Y17.145
X79.801Y2.68
X80.304Y83.82
X80.304Y59.944
X81.915Y97.79
X82.677Y64.135
X82.677Y55.118
X85.304Y83.82
X85.304Y59.944
X85.725Y42.545
X85.725Y33.02
X85.725Y24.765
X85.725Y15.24
X85.725Y6.985
X88.265Y97.79
X88.265Y89.535
X89.535Y71.755
X89.535Y48.26
X91.231Y2.68
X92.583Y71.882
X92.71Y88.265
X92.71Y81.28
X92.71Y65.405
X92.71Y57.785
X92.71Y47.752
X92.71Y41.275
X92.71Y33.655
X92.71Y25.4
X92.71Y17.145
X92.71Y11.43
X94.742Y62.611
X94.869Y74.803
X94.869Y50.927
X94.996Y33.655
X94.996Y21.971
X94.996Y13.462
X95.123Y88.265
X95.123Y71.882
X95.25Y47.752
X96.52Y53.848
X96.774Y77.978
X97.581Y21.73
X97.581Y10.3
X97.79Y27.305
X97.917Y56.769
X98.044Y67.437
X98.171Y82.677
X98.171Y41.275
T3
X45.086Y6.35
X59.056Y6.35
X71.121Y6.35
X80.304Y75.311
X80.304Y51.308
X85.304Y75.311
X85.304Y51.308
T4
X5.001Y95.001
X5.001Y5.
X95.001Y95.001
X95.001Y5.
T3
X47.491Y6.35G85X49.031Y6.35
G05
X61.461Y6.35G85X63.001Y6.35
G05
X73.526Y6.35G85X75.066Y6.35
G05
T0
M30
