G04 #@! TF.FileFunction,Legend,Bot*
%FSLAX46Y46*%
G04 Gerber Fmt 4.6, Leading zero omitted, Abs format (unit mm)*
G04 Created by KiCad (PCBNEW 4.0.1-stable) date 19/01/2016 21:52:03*
%MOMM*%
G01*
G04 APERTURE LIST*
%ADD10C,0.100000*%
%ADD11C,0.150000*%
G04 APERTURE END LIST*
D10*
D11*
X60961000Y24765500D02*
X60427600Y24765500D01*
X60961000Y24765500D02*
X61494400Y24765500D01*
X60961000Y23495500D02*
X60427600Y23495500D01*
X60961000Y23495500D02*
X61494400Y23495500D01*
X73026000Y24765500D02*
X72492600Y24765500D01*
X73026000Y24765500D02*
X73559400Y24765500D01*
X73026000Y23495500D02*
X72492600Y23495500D01*
X73026000Y23495500D02*
X73559400Y23495500D01*
X60961000Y21590500D02*
X60427600Y21590500D01*
X60961000Y21590500D02*
X61494400Y21590500D01*
X60961000Y20320500D02*
X60427600Y20320500D01*
X60961000Y20320500D02*
X61494400Y20320500D01*
X73026000Y21590500D02*
X72492600Y21590500D01*
X73026000Y21590500D02*
X73559400Y21590500D01*
X73026000Y20320500D02*
X72492600Y20320500D01*
X73026000Y20320500D02*
X73559400Y20320500D01*
X31370000Y10033500D02*
X31370000Y9500100D01*
X31370000Y10033500D02*
X31370000Y10566900D01*
X32640000Y10033500D02*
X32640000Y9500100D01*
X32640000Y10033500D02*
X32640000Y10566900D01*
X60961000Y13970500D02*
X60427600Y13970500D01*
X60961000Y13970500D02*
X61494400Y13970500D01*
X60961000Y12700500D02*
X60427600Y12700500D01*
X60961000Y12700500D02*
X61494400Y12700500D01*
X73026000Y13970500D02*
X72492600Y13970500D01*
X73026000Y13970500D02*
X73559400Y13970500D01*
X73026000Y12700500D02*
X72492600Y12700500D01*
X73026000Y12700500D02*
X73559400Y12700500D01*
X60961000Y38735500D02*
X60427600Y38735500D01*
X60961000Y38735500D02*
X61494400Y38735500D01*
X60961000Y37465500D02*
X60427600Y37465500D01*
X60961000Y37465500D02*
X61494400Y37465500D01*
X73026000Y38735500D02*
X72492600Y38735500D01*
X73026000Y38735500D02*
X73559400Y38735500D01*
X73026000Y37465500D02*
X72492600Y37465500D01*
X73026000Y37465500D02*
X73559400Y37465500D01*
X60961000Y35560500D02*
X60427600Y35560500D01*
X60961000Y35560500D02*
X61494400Y35560500D01*
X60961000Y34290500D02*
X60427600Y34290500D01*
X60961000Y34290500D02*
X61494400Y34290500D01*
X73026000Y35560500D02*
X72492600Y35560500D01*
X73026000Y35560500D02*
X73559400Y35560500D01*
X73026000Y34290500D02*
X72492600Y34290500D01*
X73026000Y34290500D02*
X73559400Y34290500D01*
X60961000Y28575500D02*
X60427600Y28575500D01*
X60961000Y28575500D02*
X61494400Y28575500D01*
X60961000Y27305500D02*
X60427600Y27305500D01*
X60961000Y27305500D02*
X61494400Y27305500D01*
X73026000Y28575500D02*
X72492600Y28575500D01*
X73026000Y28575500D02*
X73559400Y28575500D01*
X73026000Y27305500D02*
X72492600Y27305500D01*
X73026000Y27305500D02*
X73559400Y27305500D01*
X45339000Y28702000D02*
X44805600Y28702000D01*
X45339000Y28702000D02*
X45872400Y28702000D01*
X45339000Y27432000D02*
X44805600Y27432000D01*
X45339000Y27432000D02*
X45872400Y27432000D01*
X45340000Y35052000D02*
X44806600Y35052000D01*
X45340000Y35052000D02*
X45873400Y35052000D01*
X45340000Y33782000D02*
X44806600Y33782000D01*
X45340000Y33782000D02*
X45873400Y33782000D01*
X19508200Y80467700D02*
X19508200Y79934300D01*
X19508200Y80467700D02*
X19508200Y81001100D01*
X20778200Y80467700D02*
X20778200Y79934300D01*
X20778200Y80467700D02*
X20778200Y81001100D01*
X25858200Y80467700D02*
X25858200Y79934300D01*
X25858200Y80467700D02*
X25858200Y81001100D01*
X27128200Y80467700D02*
X27128200Y79934300D01*
X27128200Y80467700D02*
X27128200Y81001100D01*
X37433300Y40965510D02*
X36899900Y40965510D01*
X37433300Y40965510D02*
X37966700Y40965510D01*
X37433300Y39695510D02*
X36899900Y39695510D01*
X37433300Y39695510D02*
X37966700Y39695510D01*
X37433300Y47315510D02*
X36899900Y47315510D01*
X37433300Y47315510D02*
X37966700Y47315510D01*
X37433300Y46045510D02*
X36899900Y46045510D01*
X37433300Y46045510D02*
X37966700Y46045510D01*
X51181000Y71374500D02*
X51181000Y70841100D01*
X51181000Y71374500D02*
X51181000Y71907900D01*
X52451000Y71374500D02*
X52451000Y70841100D01*
X52451000Y71374500D02*
X52451000Y71907900D01*
X45339000Y71374500D02*
X45339000Y70841100D01*
X45339000Y71374500D02*
X45339000Y71907900D01*
X46609000Y71374500D02*
X46609000Y70841100D01*
X46609000Y71374500D02*
X46609000Y71907900D01*
X46609000Y62230500D02*
X46609000Y62763900D01*
X46609000Y62230500D02*
X46609000Y61697100D01*
X45339000Y62230500D02*
X45339000Y62763900D01*
X45339000Y62230500D02*
X45339000Y61697100D01*
X52451000Y62230500D02*
X52451000Y62763900D01*
X52451000Y62230500D02*
X52451000Y61697100D01*
X51181000Y62230500D02*
X51181000Y62763900D01*
X51181000Y62230500D02*
X51181000Y61697100D01*
X66904600Y79350100D02*
X65888600Y79350100D01*
X66904600Y79350100D02*
X67920600Y79350100D01*
X66904600Y77724500D02*
X67920600Y77724500D01*
X66904600Y77724500D02*
X65888600Y77724500D01*
X66879200Y55905900D02*
X65863200Y55905900D01*
X66879200Y55905900D02*
X67895200Y55905900D01*
X66879200Y54280300D02*
X67895200Y54280300D01*
X66879200Y54280300D02*
X65863200Y54280300D01*
X66828400Y81331300D02*
X66295000Y81331300D01*
X66828400Y81331300D02*
X67361800Y81331300D01*
X66828400Y80061300D02*
X66295000Y80061300D01*
X66828400Y80061300D02*
X67361800Y80061300D01*
X66853800Y57785500D02*
X66320400Y57785500D01*
X66853800Y57785500D02*
X67387200Y57785500D01*
X66853800Y56515500D02*
X66320400Y56515500D01*
X66853800Y56515500D02*
X67387200Y56515500D01*
X66828400Y83388700D02*
X66295000Y83388700D01*
X66828400Y83388700D02*
X67361800Y83388700D01*
X66828400Y82118700D02*
X66295000Y82118700D01*
X66828400Y82118700D02*
X67361800Y82118700D01*
X66853800Y59690500D02*
X66320400Y59690500D01*
X66853800Y59690500D02*
X67387200Y59690500D01*
X66853800Y58420500D02*
X66320400Y58420500D01*
X66853800Y58420500D02*
X67387200Y58420500D01*
X58903600Y92126300D02*
X58903600Y91110300D01*
X58903600Y92126300D02*
X58903600Y93142300D01*
X60529200Y92126300D02*
X60529200Y93142300D01*
X60529200Y92126300D02*
X60529200Y91110300D01*
X47880000Y47701700D02*
X48896000Y47701700D01*
X47880000Y47701700D02*
X46864000Y47701700D01*
X47880000Y49327300D02*
X46864000Y49327300D01*
X47880000Y49327300D02*
X48896000Y49327300D01*
X56084200Y92278700D02*
X56084200Y91745300D01*
X56084200Y92278700D02*
X56084200Y92812100D01*
X57354200Y92278700D02*
X57354200Y91745300D01*
X57354200Y92278700D02*
X57354200Y92812100D01*
X47753000Y50546500D02*
X48286400Y50546500D01*
X47753000Y50546500D02*
X47219600Y50546500D01*
X47753000Y51816500D02*
X48286400Y51816500D01*
X47753000Y51816500D02*
X47219600Y51816500D01*
X53544200Y92270900D02*
X53544200Y91737500D01*
X53544200Y92270900D02*
X53544200Y92804300D01*
X54814200Y92270900D02*
X54814200Y91737500D01*
X54814200Y92270900D02*
X54814200Y92804300D01*
X47753000Y52959500D02*
X48286400Y52959500D01*
X47753000Y52959500D02*
X47219600Y52959500D01*
X47753000Y54229500D02*
X48286400Y54229500D01*
X47753000Y54229500D02*
X47219600Y54229500D01*
X53976000Y87122500D02*
X53442600Y87122500D01*
X53976000Y87122500D02*
X54509400Y87122500D01*
X53976000Y85852500D02*
X53442600Y85852500D01*
X53976000Y85852500D02*
X54509400Y85852500D01*
X57913000Y45974500D02*
X57379600Y45974500D01*
X57913000Y45974500D02*
X58446400Y45974500D01*
X57913000Y44704500D02*
X57379600Y44704500D01*
X57913000Y44704500D02*
X58446400Y44704500D01*
X53976000Y80709000D02*
X53442600Y80709000D01*
X53976000Y80709000D02*
X54509400Y80709000D01*
X53976000Y79439000D02*
X53442600Y79439000D01*
X53976000Y79439000D02*
X54509400Y79439000D01*
X57913000Y50927500D02*
X57379600Y50927500D01*
X57913000Y50927500D02*
X58446400Y50927500D01*
X57913000Y49657500D02*
X57379600Y49657500D01*
X57913000Y49657500D02*
X58446400Y49657500D01*
X39671000Y6350500D02*
X39771000Y6350500D01*
X39071000Y6350500D02*
X38971000Y6350500D01*
X35626902Y7550500D02*
G75*
G03X35626902Y7550500I-55902J0D01*
G01*
X39121000Y6850500D02*
X39121000Y5850500D01*
X39621000Y6850500D02*
X39121000Y6350500D01*
X39621000Y6850500D02*
X39621000Y5850500D01*
X39621000Y5850500D02*
X39121000Y6350500D01*
X39371000Y4950500D02*
X40171000Y4950500D01*
X39371000Y4950500D02*
X38571000Y4950500D01*
X39371000Y7750500D02*
X38571000Y7750500D01*
X39371000Y7750500D02*
X40171000Y7750500D01*
X54611000Y9860500D02*
X54611000Y9760500D01*
X54611000Y10460500D02*
X54611000Y10560500D01*
X55866902Y13960500D02*
G75*
G03X55866902Y13960500I-55902J0D01*
G01*
X55111000Y10410500D02*
X54111000Y10410500D01*
X55111000Y9910500D02*
X54611000Y10410500D01*
X55111000Y9910500D02*
X54111000Y9910500D01*
X54111000Y9910500D02*
X54611000Y10410500D01*
X53211000Y10160500D02*
X53211000Y9360500D01*
X53211000Y10160500D02*
X53211000Y10960500D01*
X56011000Y10160500D02*
X56011000Y10960500D01*
X56011000Y10160500D02*
X56011000Y9360500D01*
X79376000Y10460500D02*
X79376000Y10560500D01*
X79376000Y9860500D02*
X79376000Y9760500D01*
X78231902Y6360500D02*
G75*
G03X78231902Y6360500I-55902J0D01*
G01*
X78876000Y9910500D02*
X79876000Y9910500D01*
X78876000Y10410500D02*
X79376000Y9910500D01*
X78876000Y10410500D02*
X79876000Y10410500D01*
X79876000Y10410500D02*
X79376000Y9910500D01*
X80776000Y10160500D02*
X80776000Y10960500D01*
X80776000Y10160500D02*
X80776000Y9360500D01*
X77976000Y10160500D02*
X77976000Y9360500D01*
X77976000Y10160500D02*
X77976000Y10960500D01*
X45455000Y23992000D02*
X45455000Y25792000D01*
X46155000Y24892000D02*
X45755000Y24892000D01*
X46655000Y24892000D02*
X47055000Y24892000D01*
X46155000Y24492000D02*
X46155000Y25292000D01*
X46655000Y25292000D02*
X46255000Y24892000D01*
X46655000Y24492000D02*
X46655000Y25292000D01*
X46255000Y24892000D02*
X46655000Y24492000D01*
X47955000Y25792000D02*
X47955000Y25692000D01*
X44955000Y25792000D02*
X47955000Y25792000D01*
X44955000Y25692000D02*
X44955000Y25792000D01*
X47755000Y23992000D02*
X47755000Y24092000D01*
X46355000Y23992000D02*
X47755000Y23992000D01*
X44955000Y23992000D02*
X44955000Y24092000D01*
X46355000Y23992000D02*
X44955000Y23992000D01*
X33148000Y5715500D02*
X33681400Y5715500D01*
X33148000Y5715500D02*
X32614600Y5715500D01*
X33148000Y6985500D02*
X33681400Y6985500D01*
X33148000Y6985500D02*
X32614600Y6985500D01*
X35815000Y11811500D02*
X35281600Y11811500D01*
X35815000Y11811500D02*
X36348400Y11811500D01*
X35815000Y10541500D02*
X35281600Y10541500D01*
X35815000Y10541500D02*
X36348400Y10541500D01*
X17780000Y69215000D02*
X18313400Y69215000D01*
X17780000Y69215000D02*
X17246600Y69215000D01*
X17780000Y70485000D02*
X18313400Y70485000D01*
X17780000Y70485000D02*
X17246600Y70485000D01*
X17781000Y66675500D02*
X18314400Y66675500D01*
X17781000Y66675500D02*
X17247600Y66675500D01*
X17781000Y67945500D02*
X18314400Y67945500D01*
X17781000Y67945500D02*
X17247600Y67945500D01*
X17781000Y64135500D02*
X18314400Y64135500D01*
X17781000Y64135500D02*
X17247600Y64135500D01*
X17781000Y65405500D02*
X18314400Y65405500D01*
X17781000Y65405500D02*
X17247600Y65405500D01*
X17781000Y61595500D02*
X18314400Y61595500D01*
X17781000Y61595500D02*
X17247600Y61595500D01*
X17781000Y62865500D02*
X18314400Y62865500D01*
X17781000Y62865500D02*
X17247600Y62865500D01*
X35062160Y84861400D02*
X35062160Y85394800D01*
X35062160Y84861400D02*
X35062160Y84328000D01*
X33792160Y84861400D02*
X33792160Y85394800D01*
X33792160Y84861400D02*
X33792160Y84328000D01*
X74422000Y62128208D02*
X74955400Y62128208D01*
X74422000Y62128208D02*
X73888600Y62128208D01*
X74422000Y63398208D02*
X74955400Y63398208D01*
X74422000Y63398208D02*
X73888600Y63398208D01*
X74422000Y59503208D02*
X74955400Y59503208D01*
X74422000Y59503208D02*
X73888600Y59503208D01*
X74422000Y60773208D02*
X74955400Y60773208D01*
X74422000Y60773208D02*
X73888600Y60773208D01*
X74168000Y71258884D02*
X74701400Y71258884D01*
X74168000Y71258884D02*
X73634600Y71258884D01*
X74168000Y72528884D02*
X74701400Y72528884D01*
X74168000Y72528884D02*
X73634600Y72528884D01*
X73914000Y49657000D02*
X74447400Y49657000D01*
X73914000Y49657000D02*
X73380600Y49657000D01*
X73914000Y50927000D02*
X74447400Y50927000D01*
X73914000Y50927000D02*
X73380600Y50927000D01*
X74168000Y73671884D02*
X74701400Y73671884D01*
X74168000Y73671884D02*
X73634600Y73671884D01*
X74168000Y74941884D02*
X74701400Y74941884D01*
X74168000Y74941884D02*
X73634600Y74941884D01*
X73914000Y47244000D02*
X74447400Y47244000D01*
X73914000Y47244000D02*
X73380600Y47244000D01*
X73914000Y48514000D02*
X74447400Y48514000D01*
X73914000Y48514000D02*
X73380600Y48514000D01*
X22987000Y70993000D02*
X22987000Y70459600D01*
X22987000Y70993000D02*
X22987000Y71526400D01*
X24257000Y70993000D02*
X24257000Y70459600D01*
X24257000Y70993000D02*
X24257000Y71526400D01*
X58269047Y23645857D02*
X58316666Y23598238D01*
X58459523Y23550619D01*
X58554761Y23550619D01*
X58697619Y23598238D01*
X58792857Y23693476D01*
X58840476Y23788714D01*
X58888095Y23979190D01*
X58888095Y24122048D01*
X58840476Y24312524D01*
X58792857Y24407762D01*
X58697619Y24503000D01*
X58554761Y24550619D01*
X58459523Y24550619D01*
X58316666Y24503000D01*
X58269047Y24455381D01*
X57888095Y24455381D02*
X57840476Y24503000D01*
X57745238Y24550619D01*
X57507142Y24550619D01*
X57411904Y24503000D01*
X57364285Y24455381D01*
X57316666Y24360143D01*
X57316666Y24264905D01*
X57364285Y24122048D01*
X57935714Y23550619D01*
X57316666Y23550619D01*
X56697619Y24550619D02*
X56602380Y24550619D01*
X56507142Y24503000D01*
X56459523Y24455381D01*
X56411904Y24360143D01*
X56364285Y24169667D01*
X56364285Y23931571D01*
X56411904Y23741095D01*
X56459523Y23645857D01*
X56507142Y23598238D01*
X56602380Y23550619D01*
X56697619Y23550619D01*
X56792857Y23598238D01*
X56840476Y23645857D01*
X56888095Y23741095D01*
X56935714Y23931571D01*
X56935714Y24169667D01*
X56888095Y24360143D01*
X56840476Y24455381D01*
X56792857Y24503000D01*
X56697619Y24550619D01*
X56030952Y24550619D02*
X55411904Y24550619D01*
X55745238Y24169667D01*
X55602380Y24169667D01*
X55507142Y24122048D01*
X55459523Y24074429D01*
X55411904Y23979190D01*
X55411904Y23741095D01*
X55459523Y23645857D01*
X55507142Y23598238D01*
X55602380Y23550619D01*
X55888095Y23550619D01*
X55983333Y23598238D01*
X56030952Y23645857D01*
X77954047Y23645857D02*
X78001666Y23598238D01*
X78144523Y23550619D01*
X78239761Y23550619D01*
X78382619Y23598238D01*
X78477857Y23693476D01*
X78525476Y23788714D01*
X78573095Y23979190D01*
X78573095Y24122048D01*
X78525476Y24312524D01*
X78477857Y24407762D01*
X78382619Y24503000D01*
X78239761Y24550619D01*
X78144523Y24550619D01*
X78001666Y24503000D01*
X77954047Y24455381D01*
X77573095Y24455381D02*
X77525476Y24503000D01*
X77430238Y24550619D01*
X77192142Y24550619D01*
X77096904Y24503000D01*
X77049285Y24455381D01*
X77001666Y24360143D01*
X77001666Y24264905D01*
X77049285Y24122048D01*
X77620714Y23550619D01*
X77001666Y23550619D01*
X76382619Y24550619D02*
X76287380Y24550619D01*
X76192142Y24503000D01*
X76144523Y24455381D01*
X76096904Y24360143D01*
X76049285Y24169667D01*
X76049285Y23931571D01*
X76096904Y23741095D01*
X76144523Y23645857D01*
X76192142Y23598238D01*
X76287380Y23550619D01*
X76382619Y23550619D01*
X76477857Y23598238D01*
X76525476Y23645857D01*
X76573095Y23741095D01*
X76620714Y23931571D01*
X76620714Y24169667D01*
X76573095Y24360143D01*
X76525476Y24455381D01*
X76477857Y24503000D01*
X76382619Y24550619D01*
X75192142Y24217286D02*
X75192142Y23550619D01*
X75430238Y24598238D02*
X75668333Y23883952D01*
X75049285Y23883952D01*
X58269047Y20470857D02*
X58316666Y20423238D01*
X58459523Y20375619D01*
X58554761Y20375619D01*
X58697619Y20423238D01*
X58792857Y20518476D01*
X58840476Y20613714D01*
X58888095Y20804190D01*
X58888095Y20947048D01*
X58840476Y21137524D01*
X58792857Y21232762D01*
X58697619Y21328000D01*
X58554761Y21375619D01*
X58459523Y21375619D01*
X58316666Y21328000D01*
X58269047Y21280381D01*
X57888095Y21280381D02*
X57840476Y21328000D01*
X57745238Y21375619D01*
X57507142Y21375619D01*
X57411904Y21328000D01*
X57364285Y21280381D01*
X57316666Y21185143D01*
X57316666Y21089905D01*
X57364285Y20947048D01*
X57935714Y20375619D01*
X57316666Y20375619D01*
X56697619Y21375619D02*
X56602380Y21375619D01*
X56507142Y21328000D01*
X56459523Y21280381D01*
X56411904Y21185143D01*
X56364285Y20994667D01*
X56364285Y20756571D01*
X56411904Y20566095D01*
X56459523Y20470857D01*
X56507142Y20423238D01*
X56602380Y20375619D01*
X56697619Y20375619D01*
X56792857Y20423238D01*
X56840476Y20470857D01*
X56888095Y20566095D01*
X56935714Y20756571D01*
X56935714Y20994667D01*
X56888095Y21185143D01*
X56840476Y21280381D01*
X56792857Y21328000D01*
X56697619Y21375619D01*
X55459523Y21375619D02*
X55935714Y21375619D01*
X55983333Y20899429D01*
X55935714Y20947048D01*
X55840476Y20994667D01*
X55602380Y20994667D01*
X55507142Y20947048D01*
X55459523Y20899429D01*
X55411904Y20804190D01*
X55411904Y20566095D01*
X55459523Y20470857D01*
X55507142Y20423238D01*
X55602380Y20375619D01*
X55840476Y20375619D01*
X55935714Y20423238D01*
X55983333Y20470857D01*
X77954047Y20597857D02*
X78001666Y20550238D01*
X78144523Y20502619D01*
X78239761Y20502619D01*
X78382619Y20550238D01*
X78477857Y20645476D01*
X78525476Y20740714D01*
X78573095Y20931190D01*
X78573095Y21074048D01*
X78525476Y21264524D01*
X78477857Y21359762D01*
X78382619Y21455000D01*
X78239761Y21502619D01*
X78144523Y21502619D01*
X78001666Y21455000D01*
X77954047Y21407381D01*
X77573095Y21407381D02*
X77525476Y21455000D01*
X77430238Y21502619D01*
X77192142Y21502619D01*
X77096904Y21455000D01*
X77049285Y21407381D01*
X77001666Y21312143D01*
X77001666Y21216905D01*
X77049285Y21074048D01*
X77620714Y20502619D01*
X77001666Y20502619D01*
X76382619Y21502619D02*
X76287380Y21502619D01*
X76192142Y21455000D01*
X76144523Y21407381D01*
X76096904Y21312143D01*
X76049285Y21121667D01*
X76049285Y20883571D01*
X76096904Y20693095D01*
X76144523Y20597857D01*
X76192142Y20550238D01*
X76287380Y20502619D01*
X76382619Y20502619D01*
X76477857Y20550238D01*
X76525476Y20597857D01*
X76573095Y20693095D01*
X76620714Y20883571D01*
X76620714Y21121667D01*
X76573095Y21312143D01*
X76525476Y21407381D01*
X76477857Y21455000D01*
X76382619Y21502619D01*
X75192142Y21502619D02*
X75382619Y21502619D01*
X75477857Y21455000D01*
X75525476Y21407381D01*
X75620714Y21264524D01*
X75668333Y21074048D01*
X75668333Y20693095D01*
X75620714Y20597857D01*
X75573095Y20550238D01*
X75477857Y20502619D01*
X75287380Y20502619D01*
X75192142Y20550238D01*
X75144523Y20597857D01*
X75096904Y20693095D01*
X75096904Y20931190D01*
X75144523Y21026429D01*
X75192142Y21074048D01*
X75287380Y21121667D01*
X75477857Y21121667D01*
X75573095Y21074048D01*
X75620714Y21026429D01*
X75668333Y20931190D01*
X30583143Y11152047D02*
X30630762Y11199666D01*
X30678381Y11342523D01*
X30678381Y11437761D01*
X30630762Y11580619D01*
X30535524Y11675857D01*
X30440286Y11723476D01*
X30249810Y11771095D01*
X30106952Y11771095D01*
X29916476Y11723476D01*
X29821238Y11675857D01*
X29726000Y11580619D01*
X29678381Y11437761D01*
X29678381Y11342523D01*
X29726000Y11199666D01*
X29773619Y11152047D01*
X29773619Y10771095D02*
X29726000Y10723476D01*
X29678381Y10628238D01*
X29678381Y10390142D01*
X29726000Y10294904D01*
X29773619Y10247285D01*
X29868857Y10199666D01*
X29964095Y10199666D01*
X30106952Y10247285D01*
X30678381Y10818714D01*
X30678381Y10199666D01*
X29678381Y9580619D02*
X29678381Y9485380D01*
X29726000Y9390142D01*
X29773619Y9342523D01*
X29868857Y9294904D01*
X30059333Y9247285D01*
X30297429Y9247285D01*
X30487905Y9294904D01*
X30583143Y9342523D01*
X30630762Y9390142D01*
X30678381Y9485380D01*
X30678381Y9580619D01*
X30630762Y9675857D01*
X30583143Y9723476D01*
X30487905Y9771095D01*
X30297429Y9818714D01*
X30059333Y9818714D01*
X29868857Y9771095D01*
X29773619Y9723476D01*
X29726000Y9675857D01*
X29678381Y9580619D01*
X29678381Y8913952D02*
X29678381Y8247285D01*
X30678381Y8675857D01*
X62333047Y11326857D02*
X62380666Y11279238D01*
X62523523Y11231619D01*
X62618761Y11231619D01*
X62761619Y11279238D01*
X62856857Y11374476D01*
X62904476Y11469714D01*
X62952095Y11660190D01*
X62952095Y11803048D01*
X62904476Y11993524D01*
X62856857Y12088762D01*
X62761619Y12184000D01*
X62618761Y12231619D01*
X62523523Y12231619D01*
X62380666Y12184000D01*
X62333047Y12136381D01*
X61952095Y12136381D02*
X61904476Y12184000D01*
X61809238Y12231619D01*
X61571142Y12231619D01*
X61475904Y12184000D01*
X61428285Y12136381D01*
X61380666Y12041143D01*
X61380666Y11945905D01*
X61428285Y11803048D01*
X61999714Y11231619D01*
X61380666Y11231619D01*
X60761619Y12231619D02*
X60666380Y12231619D01*
X60571142Y12184000D01*
X60523523Y12136381D01*
X60475904Y12041143D01*
X60428285Y11850667D01*
X60428285Y11612571D01*
X60475904Y11422095D01*
X60523523Y11326857D01*
X60571142Y11279238D01*
X60666380Y11231619D01*
X60761619Y11231619D01*
X60856857Y11279238D01*
X60904476Y11326857D01*
X60952095Y11422095D01*
X60999714Y11612571D01*
X60999714Y11850667D01*
X60952095Y12041143D01*
X60904476Y12136381D01*
X60856857Y12184000D01*
X60761619Y12231619D01*
X59856857Y11803048D02*
X59952095Y11850667D01*
X59999714Y11898286D01*
X60047333Y11993524D01*
X60047333Y12041143D01*
X59999714Y12136381D01*
X59952095Y12184000D01*
X59856857Y12231619D01*
X59666380Y12231619D01*
X59571142Y12184000D01*
X59523523Y12136381D01*
X59475904Y12041143D01*
X59475904Y11993524D01*
X59523523Y11898286D01*
X59571142Y11850667D01*
X59666380Y11803048D01*
X59856857Y11803048D01*
X59952095Y11755429D01*
X59999714Y11707810D01*
X60047333Y11612571D01*
X60047333Y11422095D01*
X59999714Y11326857D01*
X59952095Y11279238D01*
X59856857Y11231619D01*
X59666380Y11231619D01*
X59571142Y11279238D01*
X59523523Y11326857D01*
X59475904Y11422095D01*
X59475904Y11612571D01*
X59523523Y11707810D01*
X59571142Y11755429D01*
X59666380Y11803048D01*
X74144047Y11199857D02*
X74191666Y11152238D01*
X74334523Y11104619D01*
X74429761Y11104619D01*
X74572619Y11152238D01*
X74667857Y11247476D01*
X74715476Y11342714D01*
X74763095Y11533190D01*
X74763095Y11676048D01*
X74715476Y11866524D01*
X74667857Y11961762D01*
X74572619Y12057000D01*
X74429761Y12104619D01*
X74334523Y12104619D01*
X74191666Y12057000D01*
X74144047Y12009381D01*
X73763095Y12009381D02*
X73715476Y12057000D01*
X73620238Y12104619D01*
X73382142Y12104619D01*
X73286904Y12057000D01*
X73239285Y12009381D01*
X73191666Y11914143D01*
X73191666Y11818905D01*
X73239285Y11676048D01*
X73810714Y11104619D01*
X73191666Y11104619D01*
X72572619Y12104619D02*
X72477380Y12104619D01*
X72382142Y12057000D01*
X72334523Y12009381D01*
X72286904Y11914143D01*
X72239285Y11723667D01*
X72239285Y11485571D01*
X72286904Y11295095D01*
X72334523Y11199857D01*
X72382142Y11152238D01*
X72477380Y11104619D01*
X72572619Y11104619D01*
X72667857Y11152238D01*
X72715476Y11199857D01*
X72763095Y11295095D01*
X72810714Y11485571D01*
X72810714Y11723667D01*
X72763095Y11914143D01*
X72715476Y12009381D01*
X72667857Y12057000D01*
X72572619Y12104619D01*
X71763095Y11104619D02*
X71572619Y11104619D01*
X71477380Y11152238D01*
X71429761Y11199857D01*
X71334523Y11342714D01*
X71286904Y11533190D01*
X71286904Y11914143D01*
X71334523Y12009381D01*
X71382142Y12057000D01*
X71477380Y12104619D01*
X71667857Y12104619D01*
X71763095Y12057000D01*
X71810714Y12009381D01*
X71858333Y11914143D01*
X71858333Y11676048D01*
X71810714Y11580810D01*
X71763095Y11533190D01*
X71667857Y11485571D01*
X71477380Y11485571D01*
X71382142Y11533190D01*
X71334523Y11580810D01*
X71286904Y11676048D01*
X62334047Y36219357D02*
X62381666Y36171738D01*
X62524523Y36124119D01*
X62619761Y36124119D01*
X62762619Y36171738D01*
X62857857Y36266976D01*
X62905476Y36362214D01*
X62953095Y36552690D01*
X62953095Y36695548D01*
X62905476Y36886024D01*
X62857857Y36981262D01*
X62762619Y37076500D01*
X62619761Y37124119D01*
X62524523Y37124119D01*
X62381666Y37076500D01*
X62334047Y37028881D01*
X61953095Y37028881D02*
X61905476Y37076500D01*
X61810238Y37124119D01*
X61572142Y37124119D01*
X61476904Y37076500D01*
X61429285Y37028881D01*
X61381666Y36933643D01*
X61381666Y36838405D01*
X61429285Y36695548D01*
X62000714Y36124119D01*
X61381666Y36124119D01*
X60429285Y36124119D02*
X61000714Y36124119D01*
X60715000Y36124119D02*
X60715000Y37124119D01*
X60810238Y36981262D01*
X60905476Y36886024D01*
X61000714Y36838405D01*
X59857857Y36695548D02*
X59953095Y36743167D01*
X60000714Y36790786D01*
X60048333Y36886024D01*
X60048333Y36933643D01*
X60000714Y37028881D01*
X59953095Y37076500D01*
X59857857Y37124119D01*
X59667380Y37124119D01*
X59572142Y37076500D01*
X59524523Y37028881D01*
X59476904Y36933643D01*
X59476904Y36886024D01*
X59524523Y36790786D01*
X59572142Y36743167D01*
X59667380Y36695548D01*
X59857857Y36695548D01*
X59953095Y36647929D01*
X60000714Y36600310D01*
X60048333Y36505071D01*
X60048333Y36314595D01*
X60000714Y36219357D01*
X59953095Y36171738D01*
X59857857Y36124119D01*
X59667380Y36124119D01*
X59572142Y36171738D01*
X59524523Y36219357D01*
X59476904Y36314595D01*
X59476904Y36505071D01*
X59524523Y36600310D01*
X59572142Y36647929D01*
X59667380Y36695548D01*
X74399047Y36219357D02*
X74446666Y36171738D01*
X74589523Y36124119D01*
X74684761Y36124119D01*
X74827619Y36171738D01*
X74922857Y36266976D01*
X74970476Y36362214D01*
X75018095Y36552690D01*
X75018095Y36695548D01*
X74970476Y36886024D01*
X74922857Y36981262D01*
X74827619Y37076500D01*
X74684761Y37124119D01*
X74589523Y37124119D01*
X74446666Y37076500D01*
X74399047Y37028881D01*
X74018095Y37028881D02*
X73970476Y37076500D01*
X73875238Y37124119D01*
X73637142Y37124119D01*
X73541904Y37076500D01*
X73494285Y37028881D01*
X73446666Y36933643D01*
X73446666Y36838405D01*
X73494285Y36695548D01*
X74065714Y36124119D01*
X73446666Y36124119D01*
X72494285Y36124119D02*
X73065714Y36124119D01*
X72780000Y36124119D02*
X72780000Y37124119D01*
X72875238Y36981262D01*
X72970476Y36886024D01*
X73065714Y36838405D01*
X72018095Y36124119D02*
X71827619Y36124119D01*
X71732380Y36171738D01*
X71684761Y36219357D01*
X71589523Y36362214D01*
X71541904Y36552690D01*
X71541904Y36933643D01*
X71589523Y37028881D01*
X71637142Y37076500D01*
X71732380Y37124119D01*
X71922857Y37124119D01*
X72018095Y37076500D01*
X72065714Y37028881D01*
X72113333Y36933643D01*
X72113333Y36695548D01*
X72065714Y36600310D01*
X72018095Y36552690D01*
X71922857Y36505071D01*
X71732380Y36505071D01*
X71637142Y36552690D01*
X71589523Y36600310D01*
X71541904Y36695548D01*
X62334047Y33044357D02*
X62381666Y32996738D01*
X62524523Y32949119D01*
X62619761Y32949119D01*
X62762619Y32996738D01*
X62857857Y33091976D01*
X62905476Y33187214D01*
X62953095Y33377690D01*
X62953095Y33520548D01*
X62905476Y33711024D01*
X62857857Y33806262D01*
X62762619Y33901500D01*
X62619761Y33949119D01*
X62524523Y33949119D01*
X62381666Y33901500D01*
X62334047Y33853881D01*
X61953095Y33853881D02*
X61905476Y33901500D01*
X61810238Y33949119D01*
X61572142Y33949119D01*
X61476904Y33901500D01*
X61429285Y33853881D01*
X61381666Y33758643D01*
X61381666Y33663405D01*
X61429285Y33520548D01*
X62000714Y32949119D01*
X61381666Y32949119D01*
X61000714Y33853881D02*
X60953095Y33901500D01*
X60857857Y33949119D01*
X60619761Y33949119D01*
X60524523Y33901500D01*
X60476904Y33853881D01*
X60429285Y33758643D01*
X60429285Y33663405D01*
X60476904Y33520548D01*
X61048333Y32949119D01*
X60429285Y32949119D01*
X59810238Y33949119D02*
X59714999Y33949119D01*
X59619761Y33901500D01*
X59572142Y33853881D01*
X59524523Y33758643D01*
X59476904Y33568167D01*
X59476904Y33330071D01*
X59524523Y33139595D01*
X59572142Y33044357D01*
X59619761Y32996738D01*
X59714999Y32949119D01*
X59810238Y32949119D01*
X59905476Y32996738D01*
X59953095Y33044357D01*
X60000714Y33139595D01*
X60048333Y33330071D01*
X60048333Y33568167D01*
X60000714Y33758643D01*
X59953095Y33853881D01*
X59905476Y33901500D01*
X59810238Y33949119D01*
X74399047Y33044357D02*
X74446666Y32996738D01*
X74589523Y32949119D01*
X74684761Y32949119D01*
X74827619Y32996738D01*
X74922857Y33091976D01*
X74970476Y33187214D01*
X75018095Y33377690D01*
X75018095Y33520548D01*
X74970476Y33711024D01*
X74922857Y33806262D01*
X74827619Y33901500D01*
X74684761Y33949119D01*
X74589523Y33949119D01*
X74446666Y33901500D01*
X74399047Y33853881D01*
X74018095Y33853881D02*
X73970476Y33901500D01*
X73875238Y33949119D01*
X73637142Y33949119D01*
X73541904Y33901500D01*
X73494285Y33853881D01*
X73446666Y33758643D01*
X73446666Y33663405D01*
X73494285Y33520548D01*
X74065714Y32949119D01*
X73446666Y32949119D01*
X73065714Y33853881D02*
X73018095Y33901500D01*
X72922857Y33949119D01*
X72684761Y33949119D01*
X72589523Y33901500D01*
X72541904Y33853881D01*
X72494285Y33758643D01*
X72494285Y33663405D01*
X72541904Y33520548D01*
X73113333Y32949119D01*
X72494285Y32949119D01*
X71541904Y32949119D02*
X72113333Y32949119D01*
X71827619Y32949119D02*
X71827619Y33949119D01*
X71922857Y33806262D01*
X72018095Y33711024D01*
X72113333Y33663405D01*
X58269047Y27455857D02*
X58316666Y27408238D01*
X58459523Y27360619D01*
X58554761Y27360619D01*
X58697619Y27408238D01*
X58792857Y27503476D01*
X58840476Y27598714D01*
X58888095Y27789190D01*
X58888095Y27932048D01*
X58840476Y28122524D01*
X58792857Y28217762D01*
X58697619Y28313000D01*
X58554761Y28360619D01*
X58459523Y28360619D01*
X58316666Y28313000D01*
X58269047Y28265381D01*
X57888095Y28265381D02*
X57840476Y28313000D01*
X57745238Y28360619D01*
X57507142Y28360619D01*
X57411904Y28313000D01*
X57364285Y28265381D01*
X57316666Y28170143D01*
X57316666Y28074905D01*
X57364285Y27932048D01*
X57935714Y27360619D01*
X57316666Y27360619D01*
X56935714Y28265381D02*
X56888095Y28313000D01*
X56792857Y28360619D01*
X56554761Y28360619D01*
X56459523Y28313000D01*
X56411904Y28265381D01*
X56364285Y28170143D01*
X56364285Y28074905D01*
X56411904Y27932048D01*
X56983333Y27360619D01*
X56364285Y27360619D01*
X55983333Y28265381D02*
X55935714Y28313000D01*
X55840476Y28360619D01*
X55602380Y28360619D01*
X55507142Y28313000D01*
X55459523Y28265381D01*
X55411904Y28170143D01*
X55411904Y28074905D01*
X55459523Y27932048D01*
X56030952Y27360619D01*
X55411904Y27360619D01*
X70334047Y27455857D02*
X70381666Y27408238D01*
X70524523Y27360619D01*
X70619761Y27360619D01*
X70762619Y27408238D01*
X70857857Y27503476D01*
X70905476Y27598714D01*
X70953095Y27789190D01*
X70953095Y27932048D01*
X70905476Y28122524D01*
X70857857Y28217762D01*
X70762619Y28313000D01*
X70619761Y28360619D01*
X70524523Y28360619D01*
X70381666Y28313000D01*
X70334047Y28265381D01*
X69953095Y28265381D02*
X69905476Y28313000D01*
X69810238Y28360619D01*
X69572142Y28360619D01*
X69476904Y28313000D01*
X69429285Y28265381D01*
X69381666Y28170143D01*
X69381666Y28074905D01*
X69429285Y27932048D01*
X70000714Y27360619D01*
X69381666Y27360619D01*
X69000714Y28265381D02*
X68953095Y28313000D01*
X68857857Y28360619D01*
X68619761Y28360619D01*
X68524523Y28313000D01*
X68476904Y28265381D01*
X68429285Y28170143D01*
X68429285Y28074905D01*
X68476904Y27932048D01*
X69048333Y27360619D01*
X68429285Y27360619D01*
X68095952Y28360619D02*
X67476904Y28360619D01*
X67810238Y27979667D01*
X67667380Y27979667D01*
X67572142Y27932048D01*
X67524523Y27884429D01*
X67476904Y27789190D01*
X67476904Y27551095D01*
X67524523Y27455857D01*
X67572142Y27408238D01*
X67667380Y27360619D01*
X67953095Y27360619D01*
X68048333Y27408238D01*
X68095952Y27455857D01*
X50395047Y28217857D02*
X50442666Y28170238D01*
X50585523Y28122619D01*
X50680761Y28122619D01*
X50823619Y28170238D01*
X50918857Y28265476D01*
X50966476Y28360714D01*
X51014095Y28551190D01*
X51014095Y28694048D01*
X50966476Y28884524D01*
X50918857Y28979762D01*
X50823619Y29075000D01*
X50680761Y29122619D01*
X50585523Y29122619D01*
X50442666Y29075000D01*
X50395047Y29027381D01*
X50014095Y29027381D02*
X49966476Y29075000D01*
X49871238Y29122619D01*
X49633142Y29122619D01*
X49537904Y29075000D01*
X49490285Y29027381D01*
X49442666Y28932143D01*
X49442666Y28836905D01*
X49490285Y28694048D01*
X50061714Y28122619D01*
X49442666Y28122619D01*
X49109333Y29122619D02*
X48490285Y29122619D01*
X48823619Y28741667D01*
X48680761Y28741667D01*
X48585523Y28694048D01*
X48537904Y28646429D01*
X48490285Y28551190D01*
X48490285Y28313095D01*
X48537904Y28217857D01*
X48585523Y28170238D01*
X48680761Y28122619D01*
X48966476Y28122619D01*
X49061714Y28170238D01*
X49109333Y28217857D01*
X48109333Y29027381D02*
X48061714Y29075000D01*
X47966476Y29122619D01*
X47728380Y29122619D01*
X47633142Y29075000D01*
X47585523Y29027381D01*
X47537904Y28932143D01*
X47537904Y28836905D01*
X47585523Y28694048D01*
X48156952Y28122619D01*
X47537904Y28122619D01*
X50522047Y33424857D02*
X50569666Y33377238D01*
X50712523Y33329619D01*
X50807761Y33329619D01*
X50950619Y33377238D01*
X51045857Y33472476D01*
X51093476Y33567714D01*
X51141095Y33758190D01*
X51141095Y33901048D01*
X51093476Y34091524D01*
X51045857Y34186762D01*
X50950619Y34282000D01*
X50807761Y34329619D01*
X50712523Y34329619D01*
X50569666Y34282000D01*
X50522047Y34234381D01*
X50141095Y34234381D02*
X50093476Y34282000D01*
X49998238Y34329619D01*
X49760142Y34329619D01*
X49664904Y34282000D01*
X49617285Y34234381D01*
X49569666Y34139143D01*
X49569666Y34043905D01*
X49617285Y33901048D01*
X50188714Y33329619D01*
X49569666Y33329619D01*
X49236333Y34329619D02*
X48617285Y34329619D01*
X48950619Y33948667D01*
X48807761Y33948667D01*
X48712523Y33901048D01*
X48664904Y33853429D01*
X48617285Y33758190D01*
X48617285Y33520095D01*
X48664904Y33424857D01*
X48712523Y33377238D01*
X48807761Y33329619D01*
X49093476Y33329619D01*
X49188714Y33377238D01*
X49236333Y33424857D01*
X48283952Y34329619D02*
X47664904Y34329619D01*
X47998238Y33948667D01*
X47855380Y33948667D01*
X47760142Y33901048D01*
X47712523Y33853429D01*
X47664904Y33758190D01*
X47664904Y33520095D01*
X47712523Y33424857D01*
X47760142Y33377238D01*
X47855380Y33329619D01*
X48141095Y33329619D01*
X48236333Y33377238D01*
X48283952Y33424857D01*
X18645143Y82018047D02*
X18692762Y82065666D01*
X18740381Y82208523D01*
X18740381Y82303761D01*
X18692762Y82446619D01*
X18597524Y82541857D01*
X18502286Y82589476D01*
X18311810Y82637095D01*
X18168952Y82637095D01*
X17978476Y82589476D01*
X17883238Y82541857D01*
X17788000Y82446619D01*
X17740381Y82303761D01*
X17740381Y82208523D01*
X17788000Y82065666D01*
X17835619Y82018047D01*
X17740381Y81684714D02*
X17740381Y81065666D01*
X18121333Y81399000D01*
X18121333Y81256142D01*
X18168952Y81160904D01*
X18216571Y81113285D01*
X18311810Y81065666D01*
X18549905Y81065666D01*
X18645143Y81113285D01*
X18692762Y81160904D01*
X18740381Y81256142D01*
X18740381Y81541857D01*
X18692762Y81637095D01*
X18645143Y81684714D01*
X17740381Y80446619D02*
X17740381Y80351380D01*
X17788000Y80256142D01*
X17835619Y80208523D01*
X17930857Y80160904D01*
X18121333Y80113285D01*
X18359429Y80113285D01*
X18549905Y80160904D01*
X18645143Y80208523D01*
X18692762Y80256142D01*
X18740381Y80351380D01*
X18740381Y80446619D01*
X18692762Y80541857D01*
X18645143Y80589476D01*
X18549905Y80637095D01*
X18359429Y80684714D01*
X18121333Y80684714D01*
X17930857Y80637095D01*
X17835619Y80589476D01*
X17788000Y80541857D01*
X17740381Y80446619D01*
X17740381Y79779952D02*
X17740381Y79160904D01*
X18121333Y79494238D01*
X18121333Y79351380D01*
X18168952Y79256142D01*
X18216571Y79208523D01*
X18311810Y79160904D01*
X18549905Y79160904D01*
X18645143Y79208523D01*
X18692762Y79256142D01*
X18740381Y79351380D01*
X18740381Y79637095D01*
X18692762Y79732333D01*
X18645143Y79779952D01*
X28678143Y81637047D02*
X28725762Y81684666D01*
X28773381Y81827523D01*
X28773381Y81922761D01*
X28725762Y82065619D01*
X28630524Y82160857D01*
X28535286Y82208476D01*
X28344810Y82256095D01*
X28201952Y82256095D01*
X28011476Y82208476D01*
X27916238Y82160857D01*
X27821000Y82065619D01*
X27773381Y81922761D01*
X27773381Y81827523D01*
X27821000Y81684666D01*
X27868619Y81637047D01*
X27773381Y81303714D02*
X27773381Y80684666D01*
X28154333Y81018000D01*
X28154333Y80875142D01*
X28201952Y80779904D01*
X28249571Y80732285D01*
X28344810Y80684666D01*
X28582905Y80684666D01*
X28678143Y80732285D01*
X28725762Y80779904D01*
X28773381Y80875142D01*
X28773381Y81160857D01*
X28725762Y81256095D01*
X28678143Y81303714D01*
X27773381Y80065619D02*
X27773381Y79970380D01*
X27821000Y79875142D01*
X27868619Y79827523D01*
X27963857Y79779904D01*
X28154333Y79732285D01*
X28392429Y79732285D01*
X28582905Y79779904D01*
X28678143Y79827523D01*
X28725762Y79875142D01*
X28773381Y79970380D01*
X28773381Y80065619D01*
X28725762Y80160857D01*
X28678143Y80208476D01*
X28582905Y80256095D01*
X28392429Y80303714D01*
X28154333Y80303714D01*
X27963857Y80256095D01*
X27868619Y80208476D01*
X27821000Y80160857D01*
X27773381Y80065619D01*
X28106714Y78875142D02*
X28773381Y78875142D01*
X27725762Y79113238D02*
X28440048Y79351333D01*
X28440048Y78732285D01*
X42521047Y39901857D02*
X42568666Y39854238D01*
X42711523Y39806619D01*
X42806761Y39806619D01*
X42949619Y39854238D01*
X43044857Y39949476D01*
X43092476Y40044714D01*
X43140095Y40235190D01*
X43140095Y40378048D01*
X43092476Y40568524D01*
X43044857Y40663762D01*
X42949619Y40759000D01*
X42806761Y40806619D01*
X42711523Y40806619D01*
X42568666Y40759000D01*
X42521047Y40711381D01*
X42187714Y40806619D02*
X41568666Y40806619D01*
X41902000Y40425667D01*
X41759142Y40425667D01*
X41663904Y40378048D01*
X41616285Y40330429D01*
X41568666Y40235190D01*
X41568666Y39997095D01*
X41616285Y39901857D01*
X41663904Y39854238D01*
X41759142Y39806619D01*
X42044857Y39806619D01*
X42140095Y39854238D01*
X42187714Y39901857D01*
X40616285Y39806619D02*
X41187714Y39806619D01*
X40902000Y39806619D02*
X40902000Y40806619D01*
X40997238Y40663762D01*
X41092476Y40568524D01*
X41187714Y40520905D01*
X39997238Y40806619D02*
X39901999Y40806619D01*
X39806761Y40759000D01*
X39759142Y40711381D01*
X39711523Y40616143D01*
X39663904Y40425667D01*
X39663904Y40187571D01*
X39711523Y39997095D01*
X39759142Y39901857D01*
X39806761Y39854238D01*
X39901999Y39806619D01*
X39997238Y39806619D01*
X40092476Y39854238D01*
X40140095Y39901857D01*
X40187714Y39997095D01*
X40235333Y40187571D01*
X40235333Y40425667D01*
X40187714Y40616143D01*
X40140095Y40711381D01*
X40092476Y40759000D01*
X39997238Y40806619D01*
X34647047Y46251857D02*
X34694666Y46204238D01*
X34837523Y46156619D01*
X34932761Y46156619D01*
X35075619Y46204238D01*
X35170857Y46299476D01*
X35218476Y46394714D01*
X35266095Y46585190D01*
X35266095Y46728048D01*
X35218476Y46918524D01*
X35170857Y47013762D01*
X35075619Y47109000D01*
X34932761Y47156619D01*
X34837523Y47156619D01*
X34694666Y47109000D01*
X34647047Y47061381D01*
X34313714Y47156619D02*
X33694666Y47156619D01*
X34028000Y46775667D01*
X33885142Y46775667D01*
X33789904Y46728048D01*
X33742285Y46680429D01*
X33694666Y46585190D01*
X33694666Y46347095D01*
X33742285Y46251857D01*
X33789904Y46204238D01*
X33885142Y46156619D01*
X34170857Y46156619D01*
X34266095Y46204238D01*
X34313714Y46251857D01*
X32742285Y46156619D02*
X33313714Y46156619D01*
X33028000Y46156619D02*
X33028000Y47156619D01*
X33123238Y47013762D01*
X33218476Y46918524D01*
X33313714Y46870905D01*
X31789904Y46156619D02*
X32361333Y46156619D01*
X32075619Y46156619D02*
X32075619Y47156619D01*
X32170857Y47013762D01*
X32266095Y46918524D01*
X32361333Y46870905D01*
X53824143Y72747547D02*
X53871762Y72795166D01*
X53919381Y72938023D01*
X53919381Y73033261D01*
X53871762Y73176119D01*
X53776524Y73271357D01*
X53681286Y73318976D01*
X53490810Y73366595D01*
X53347952Y73366595D01*
X53157476Y73318976D01*
X53062238Y73271357D01*
X52967000Y73176119D01*
X52919381Y73033261D01*
X52919381Y72938023D01*
X52967000Y72795166D01*
X53014619Y72747547D01*
X52919381Y72414214D02*
X52919381Y71795166D01*
X53300333Y72128500D01*
X53300333Y71985642D01*
X53347952Y71890404D01*
X53395571Y71842785D01*
X53490810Y71795166D01*
X53728905Y71795166D01*
X53824143Y71842785D01*
X53871762Y71890404D01*
X53919381Y71985642D01*
X53919381Y72271357D01*
X53871762Y72366595D01*
X53824143Y72414214D01*
X53919381Y70842785D02*
X53919381Y71414214D01*
X53919381Y71128500D02*
X52919381Y71128500D01*
X53062238Y71223738D01*
X53157476Y71318976D01*
X53205095Y71414214D01*
X52919381Y69938023D02*
X52919381Y70414214D01*
X53395571Y70461833D01*
X53347952Y70414214D01*
X53300333Y70318976D01*
X53300333Y70080880D01*
X53347952Y69985642D01*
X53395571Y69938023D01*
X53490810Y69890404D01*
X53728905Y69890404D01*
X53824143Y69938023D01*
X53871762Y69985642D01*
X53919381Y70080880D01*
X53919381Y70318976D01*
X53871762Y70414214D01*
X53824143Y70461833D01*
X44680143Y72620047D02*
X44727762Y72667666D01*
X44775381Y72810523D01*
X44775381Y72905761D01*
X44727762Y73048619D01*
X44632524Y73143857D01*
X44537286Y73191476D01*
X44346810Y73239095D01*
X44203952Y73239095D01*
X44013476Y73191476D01*
X43918238Y73143857D01*
X43823000Y73048619D01*
X43775381Y72905761D01*
X43775381Y72810523D01*
X43823000Y72667666D01*
X43870619Y72620047D01*
X43775381Y72286714D02*
X43775381Y71667666D01*
X44156333Y72001000D01*
X44156333Y71858142D01*
X44203952Y71762904D01*
X44251571Y71715285D01*
X44346810Y71667666D01*
X44584905Y71667666D01*
X44680143Y71715285D01*
X44727762Y71762904D01*
X44775381Y71858142D01*
X44775381Y72143857D01*
X44727762Y72239095D01*
X44680143Y72286714D01*
X44775381Y70715285D02*
X44775381Y71286714D01*
X44775381Y71001000D02*
X43775381Y71001000D01*
X43918238Y71096238D01*
X44013476Y71191476D01*
X44061095Y71286714D01*
X44775381Y70239095D02*
X44775381Y70048619D01*
X44727762Y69953380D01*
X44680143Y69905761D01*
X44537286Y69810523D01*
X44346810Y69762904D01*
X43965857Y69762904D01*
X43870619Y69810523D01*
X43823000Y69858142D01*
X43775381Y69953380D01*
X43775381Y70143857D01*
X43823000Y70239095D01*
X43870619Y70286714D01*
X43965857Y70334333D01*
X44203952Y70334333D01*
X44299190Y70286714D01*
X44346810Y70239095D01*
X44394429Y70143857D01*
X44394429Y69953380D01*
X44346810Y69858142D01*
X44299190Y69810523D01*
X44203952Y69762904D01*
X44680143Y63095547D02*
X44727762Y63143166D01*
X44775381Y63286023D01*
X44775381Y63381261D01*
X44727762Y63524119D01*
X44632524Y63619357D01*
X44537286Y63666976D01*
X44346810Y63714595D01*
X44203952Y63714595D01*
X44013476Y63666976D01*
X43918238Y63619357D01*
X43823000Y63524119D01*
X43775381Y63381261D01*
X43775381Y63286023D01*
X43823000Y63143166D01*
X43870619Y63095547D01*
X43775381Y62762214D02*
X43775381Y62143166D01*
X44156333Y62476500D01*
X44156333Y62333642D01*
X44203952Y62238404D01*
X44251571Y62190785D01*
X44346810Y62143166D01*
X44584905Y62143166D01*
X44680143Y62190785D01*
X44727762Y62238404D01*
X44775381Y62333642D01*
X44775381Y62619357D01*
X44727762Y62714595D01*
X44680143Y62762214D01*
X43870619Y61762214D02*
X43823000Y61714595D01*
X43775381Y61619357D01*
X43775381Y61381261D01*
X43823000Y61286023D01*
X43870619Y61238404D01*
X43965857Y61190785D01*
X44061095Y61190785D01*
X44203952Y61238404D01*
X44775381Y61809833D01*
X44775381Y61190785D01*
X43775381Y60333642D02*
X43775381Y60524119D01*
X43823000Y60619357D01*
X43870619Y60666976D01*
X44013476Y60762214D01*
X44203952Y60809833D01*
X44584905Y60809833D01*
X44680143Y60762214D01*
X44727762Y60714595D01*
X44775381Y60619357D01*
X44775381Y60428880D01*
X44727762Y60333642D01*
X44680143Y60286023D01*
X44584905Y60238404D01*
X44346810Y60238404D01*
X44251571Y60286023D01*
X44203952Y60333642D01*
X44156333Y60428880D01*
X44156333Y60619357D01*
X44203952Y60714595D01*
X44251571Y60762214D01*
X44346810Y60809833D01*
X53824143Y63476047D02*
X53871762Y63523666D01*
X53919381Y63666523D01*
X53919381Y63761761D01*
X53871762Y63904619D01*
X53776524Y63999857D01*
X53681286Y64047476D01*
X53490810Y64095095D01*
X53347952Y64095095D01*
X53157476Y64047476D01*
X53062238Y63999857D01*
X52967000Y63904619D01*
X52919381Y63761761D01*
X52919381Y63666523D01*
X52967000Y63523666D01*
X53014619Y63476047D01*
X52919381Y63142714D02*
X52919381Y62523666D01*
X53300333Y62857000D01*
X53300333Y62714142D01*
X53347952Y62618904D01*
X53395571Y62571285D01*
X53490810Y62523666D01*
X53728905Y62523666D01*
X53824143Y62571285D01*
X53871762Y62618904D01*
X53919381Y62714142D01*
X53919381Y62999857D01*
X53871762Y63095095D01*
X53824143Y63142714D01*
X53014619Y62142714D02*
X52967000Y62095095D01*
X52919381Y61999857D01*
X52919381Y61761761D01*
X52967000Y61666523D01*
X53014619Y61618904D01*
X53109857Y61571285D01*
X53205095Y61571285D01*
X53347952Y61618904D01*
X53919381Y62190333D01*
X53919381Y61571285D01*
X53919381Y61095095D02*
X53919381Y60904619D01*
X53871762Y60809380D01*
X53824143Y60761761D01*
X53681286Y60666523D01*
X53490810Y60618904D01*
X53109857Y60618904D01*
X53014619Y60666523D01*
X52967000Y60714142D01*
X52919381Y60809380D01*
X52919381Y60999857D01*
X52967000Y61095095D01*
X53014619Y61142714D01*
X53109857Y61190333D01*
X53347952Y61190333D01*
X53443190Y61142714D01*
X53490810Y61095095D01*
X53538429Y60999857D01*
X53538429Y60809380D01*
X53490810Y60714142D01*
X53443190Y60666523D01*
X53347952Y60618904D01*
X68023647Y76223857D02*
X68071266Y76176238D01*
X68214123Y76128619D01*
X68309361Y76128619D01*
X68452219Y76176238D01*
X68547457Y76271476D01*
X68595076Y76366714D01*
X68642695Y76557190D01*
X68642695Y76700048D01*
X68595076Y76890524D01*
X68547457Y76985762D01*
X68452219Y77081000D01*
X68309361Y77128619D01*
X68214123Y77128619D01*
X68071266Y77081000D01*
X68023647Y77033381D01*
X67166504Y76795286D02*
X67166504Y76128619D01*
X67404600Y77176238D02*
X67642695Y76461952D01*
X67023647Y76461952D01*
X66118885Y76128619D02*
X66690314Y76128619D01*
X66404600Y76128619D02*
X66404600Y77128619D01*
X66499838Y76985762D01*
X66595076Y76890524D01*
X66690314Y76842905D01*
X65642695Y76128619D02*
X65452219Y76128619D01*
X65356980Y76176238D01*
X65309361Y76223857D01*
X65214123Y76366714D01*
X65166504Y76557190D01*
X65166504Y76938143D01*
X65214123Y77033381D01*
X65261742Y77081000D01*
X65356980Y77128619D01*
X65547457Y77128619D01*
X65642695Y77081000D01*
X65690314Y77033381D01*
X65737933Y76938143D01*
X65737933Y76700048D01*
X65690314Y76604810D01*
X65642695Y76557190D01*
X65547457Y76509571D01*
X65356980Y76509571D01*
X65261742Y76557190D01*
X65214123Y76604810D01*
X65166504Y76700048D01*
X67998247Y53085957D02*
X68045866Y53038338D01*
X68188723Y52990719D01*
X68283961Y52990719D01*
X68426819Y53038338D01*
X68522057Y53133576D01*
X68569676Y53228814D01*
X68617295Y53419290D01*
X68617295Y53562148D01*
X68569676Y53752624D01*
X68522057Y53847862D01*
X68426819Y53943100D01*
X68283961Y53990719D01*
X68188723Y53990719D01*
X68045866Y53943100D01*
X67998247Y53895481D01*
X67141104Y53657386D02*
X67141104Y52990719D01*
X67379200Y54038338D02*
X67617295Y53324052D01*
X66998247Y53324052D01*
X66664914Y53895481D02*
X66617295Y53943100D01*
X66522057Y53990719D01*
X66283961Y53990719D01*
X66188723Y53943100D01*
X66141104Y53895481D01*
X66093485Y53800243D01*
X66093485Y53705005D01*
X66141104Y53562148D01*
X66712533Y52990719D01*
X66093485Y52990719D01*
X65474438Y53990719D02*
X65379199Y53990719D01*
X65283961Y53943100D01*
X65236342Y53895481D01*
X65188723Y53800243D01*
X65141104Y53609767D01*
X65141104Y53371671D01*
X65188723Y53181195D01*
X65236342Y53085957D01*
X65283961Y53038338D01*
X65379199Y52990719D01*
X65474438Y52990719D01*
X65569676Y53038338D01*
X65617295Y53085957D01*
X65664914Y53181195D01*
X65712533Y53371671D01*
X65712533Y53609767D01*
X65664914Y53800243D01*
X65617295Y53895481D01*
X65569676Y53943100D01*
X65474438Y53990719D01*
X64238047Y80287857D02*
X64285666Y80240238D01*
X64428523Y80192619D01*
X64523761Y80192619D01*
X64666619Y80240238D01*
X64761857Y80335476D01*
X64809476Y80430714D01*
X64857095Y80621190D01*
X64857095Y80764048D01*
X64809476Y80954524D01*
X64761857Y81049762D01*
X64666619Y81145000D01*
X64523761Y81192619D01*
X64428523Y81192619D01*
X64285666Y81145000D01*
X64238047Y81097381D01*
X63380904Y80859286D02*
X63380904Y80192619D01*
X63619000Y81240238D02*
X63857095Y80525952D01*
X63238047Y80525952D01*
X62904714Y81097381D02*
X62857095Y81145000D01*
X62761857Y81192619D01*
X62523761Y81192619D01*
X62428523Y81145000D01*
X62380904Y81097381D01*
X62333285Y81002143D01*
X62333285Y80906905D01*
X62380904Y80764048D01*
X62952333Y80192619D01*
X62333285Y80192619D01*
X61380904Y80192619D02*
X61952333Y80192619D01*
X61666619Y80192619D02*
X61666619Y81192619D01*
X61761857Y81049762D01*
X61857095Y80954524D01*
X61952333Y80906905D01*
X64238047Y56792857D02*
X64285666Y56745238D01*
X64428523Y56697619D01*
X64523761Y56697619D01*
X64666619Y56745238D01*
X64761857Y56840476D01*
X64809476Y56935714D01*
X64857095Y57126190D01*
X64857095Y57269048D01*
X64809476Y57459524D01*
X64761857Y57554762D01*
X64666619Y57650000D01*
X64523761Y57697619D01*
X64428523Y57697619D01*
X64285666Y57650000D01*
X64238047Y57602381D01*
X63380904Y57364286D02*
X63380904Y56697619D01*
X63619000Y57745238D02*
X63857095Y57030952D01*
X63238047Y57030952D01*
X62904714Y57602381D02*
X62857095Y57650000D01*
X62761857Y57697619D01*
X62523761Y57697619D01*
X62428523Y57650000D01*
X62380904Y57602381D01*
X62333285Y57507143D01*
X62333285Y57411905D01*
X62380904Y57269048D01*
X62952333Y56697619D01*
X62333285Y56697619D01*
X61952333Y57602381D02*
X61904714Y57650000D01*
X61809476Y57697619D01*
X61571380Y57697619D01*
X61476142Y57650000D01*
X61428523Y57602381D01*
X61380904Y57507143D01*
X61380904Y57411905D01*
X61428523Y57269048D01*
X61999952Y56697619D01*
X61380904Y56697619D01*
X71731047Y82319857D02*
X71778666Y82272238D01*
X71921523Y82224619D01*
X72016761Y82224619D01*
X72159619Y82272238D01*
X72254857Y82367476D01*
X72302476Y82462714D01*
X72350095Y82653190D01*
X72350095Y82796048D01*
X72302476Y82986524D01*
X72254857Y83081762D01*
X72159619Y83177000D01*
X72016761Y83224619D01*
X71921523Y83224619D01*
X71778666Y83177000D01*
X71731047Y83129381D01*
X70873904Y82891286D02*
X70873904Y82224619D01*
X71112000Y83272238D02*
X71350095Y82557952D01*
X70731047Y82557952D01*
X70397714Y83129381D02*
X70350095Y83177000D01*
X70254857Y83224619D01*
X70016761Y83224619D01*
X69921523Y83177000D01*
X69873904Y83129381D01*
X69826285Y83034143D01*
X69826285Y82938905D01*
X69873904Y82796048D01*
X70445333Y82224619D01*
X69826285Y82224619D01*
X69492952Y83224619D02*
X68873904Y83224619D01*
X69207238Y82843667D01*
X69064380Y82843667D01*
X68969142Y82796048D01*
X68921523Y82748429D01*
X68873904Y82653190D01*
X68873904Y82415095D01*
X68921523Y82319857D01*
X68969142Y82272238D01*
X69064380Y82224619D01*
X69350095Y82224619D01*
X69445333Y82272238D01*
X69492952Y82319857D01*
X71667547Y58634357D02*
X71715166Y58586738D01*
X71858023Y58539119D01*
X71953261Y58539119D01*
X72096119Y58586738D01*
X72191357Y58681976D01*
X72238976Y58777214D01*
X72286595Y58967690D01*
X72286595Y59110548D01*
X72238976Y59301024D01*
X72191357Y59396262D01*
X72096119Y59491500D01*
X71953261Y59539119D01*
X71858023Y59539119D01*
X71715166Y59491500D01*
X71667547Y59443881D01*
X70810404Y59205786D02*
X70810404Y58539119D01*
X71048500Y59586738D02*
X71286595Y58872452D01*
X70667547Y58872452D01*
X70334214Y59443881D02*
X70286595Y59491500D01*
X70191357Y59539119D01*
X69953261Y59539119D01*
X69858023Y59491500D01*
X69810404Y59443881D01*
X69762785Y59348643D01*
X69762785Y59253405D01*
X69810404Y59110548D01*
X70381833Y58539119D01*
X69762785Y58539119D01*
X68905642Y59205786D02*
X68905642Y58539119D01*
X69143738Y59586738D02*
X69381833Y58872452D01*
X68762785Y58872452D01*
X62079143Y93245347D02*
X62126762Y93292966D01*
X62174381Y93435823D01*
X62174381Y93531061D01*
X62126762Y93673919D01*
X62031524Y93769157D01*
X61936286Y93816776D01*
X61745810Y93864395D01*
X61602952Y93864395D01*
X61412476Y93816776D01*
X61317238Y93769157D01*
X61222000Y93673919D01*
X61174381Y93531061D01*
X61174381Y93435823D01*
X61222000Y93292966D01*
X61269619Y93245347D01*
X61507714Y92388204D02*
X62174381Y92388204D01*
X61126762Y92626300D02*
X61841048Y92864395D01*
X61841048Y92245347D01*
X61174381Y91959633D02*
X61174381Y91340585D01*
X61555333Y91673919D01*
X61555333Y91531061D01*
X61602952Y91435823D01*
X61650571Y91388204D01*
X61745810Y91340585D01*
X61983905Y91340585D01*
X62079143Y91388204D01*
X62126762Y91435823D01*
X62174381Y91531061D01*
X62174381Y91816776D01*
X62126762Y91912014D01*
X62079143Y91959633D01*
X61174381Y90435823D02*
X61174381Y90912014D01*
X61650571Y90959633D01*
X61602952Y90912014D01*
X61555333Y90816776D01*
X61555333Y90578680D01*
X61602952Y90483442D01*
X61650571Y90435823D01*
X61745810Y90388204D01*
X61983905Y90388204D01*
X62079143Y90435823D01*
X62126762Y90483442D01*
X62174381Y90578680D01*
X62174381Y90816776D01*
X62126762Y90912014D01*
X62079143Y90959633D01*
X44553047Y48029857D02*
X44600666Y47982238D01*
X44743523Y47934619D01*
X44838761Y47934619D01*
X44981619Y47982238D01*
X45076857Y48077476D01*
X45124476Y48172714D01*
X45172095Y48363190D01*
X45172095Y48506048D01*
X45124476Y48696524D01*
X45076857Y48791762D01*
X44981619Y48887000D01*
X44838761Y48934619D01*
X44743523Y48934619D01*
X44600666Y48887000D01*
X44553047Y48839381D01*
X43695904Y48601286D02*
X43695904Y47934619D01*
X43934000Y48982238D02*
X44172095Y48267952D01*
X43553047Y48267952D01*
X43267333Y48934619D02*
X42648285Y48934619D01*
X42981619Y48553667D01*
X42838761Y48553667D01*
X42743523Y48506048D01*
X42695904Y48458429D01*
X42648285Y48363190D01*
X42648285Y48125095D01*
X42695904Y48029857D01*
X42743523Y47982238D01*
X42838761Y47934619D01*
X43124476Y47934619D01*
X43219714Y47982238D01*
X43267333Y48029857D01*
X41791142Y48934619D02*
X41981619Y48934619D01*
X42076857Y48887000D01*
X42124476Y48839381D01*
X42219714Y48696524D01*
X42267333Y48506048D01*
X42267333Y48125095D01*
X42219714Y48029857D01*
X42172095Y47982238D01*
X42076857Y47934619D01*
X41886380Y47934619D01*
X41791142Y47982238D01*
X41743523Y48029857D01*
X41695904Y48125095D01*
X41695904Y48363190D01*
X41743523Y48458429D01*
X41791142Y48506048D01*
X41886380Y48553667D01*
X42076857Y48553667D01*
X42172095Y48506048D01*
X42219714Y48458429D01*
X42267333Y48363190D01*
X57126143Y97258047D02*
X57173762Y97305666D01*
X57221381Y97448523D01*
X57221381Y97543761D01*
X57173762Y97686619D01*
X57078524Y97781857D01*
X56983286Y97829476D01*
X56792810Y97877095D01*
X56649952Y97877095D01*
X56459476Y97829476D01*
X56364238Y97781857D01*
X56269000Y97686619D01*
X56221381Y97543761D01*
X56221381Y97448523D01*
X56269000Y97305666D01*
X56316619Y97258047D01*
X56554714Y96400904D02*
X57221381Y96400904D01*
X56173762Y96639000D02*
X56888048Y96877095D01*
X56888048Y96258047D01*
X56221381Y95972333D02*
X56221381Y95353285D01*
X56602333Y95686619D01*
X56602333Y95543761D01*
X56649952Y95448523D01*
X56697571Y95400904D01*
X56792810Y95353285D01*
X57030905Y95353285D01*
X57126143Y95400904D01*
X57173762Y95448523D01*
X57221381Y95543761D01*
X57221381Y95829476D01*
X57173762Y95924714D01*
X57126143Y95972333D01*
X56221381Y95019952D02*
X56221381Y94353285D01*
X57221381Y94781857D01*
X45061047Y50823857D02*
X45108666Y50776238D01*
X45251523Y50728619D01*
X45346761Y50728619D01*
X45489619Y50776238D01*
X45584857Y50871476D01*
X45632476Y50966714D01*
X45680095Y51157190D01*
X45680095Y51300048D01*
X45632476Y51490524D01*
X45584857Y51585762D01*
X45489619Y51681000D01*
X45346761Y51728619D01*
X45251523Y51728619D01*
X45108666Y51681000D01*
X45061047Y51633381D01*
X44203904Y51395286D02*
X44203904Y50728619D01*
X44442000Y51776238D02*
X44680095Y51061952D01*
X44061047Y51061952D01*
X43775333Y51728619D02*
X43156285Y51728619D01*
X43489619Y51347667D01*
X43346761Y51347667D01*
X43251523Y51300048D01*
X43203904Y51252429D01*
X43156285Y51157190D01*
X43156285Y50919095D01*
X43203904Y50823857D01*
X43251523Y50776238D01*
X43346761Y50728619D01*
X43632476Y50728619D01*
X43727714Y50776238D01*
X43775333Y50823857D01*
X42584857Y51300048D02*
X42680095Y51347667D01*
X42727714Y51395286D01*
X42775333Y51490524D01*
X42775333Y51538143D01*
X42727714Y51633381D01*
X42680095Y51681000D01*
X42584857Y51728619D01*
X42394380Y51728619D01*
X42299142Y51681000D01*
X42251523Y51633381D01*
X42203904Y51538143D01*
X42203904Y51490524D01*
X42251523Y51395286D01*
X42299142Y51347667D01*
X42394380Y51300048D01*
X42584857Y51300048D01*
X42680095Y51252429D01*
X42727714Y51204810D01*
X42775333Y51109571D01*
X42775333Y50919095D01*
X42727714Y50823857D01*
X42680095Y50776238D01*
X42584857Y50728619D01*
X42394380Y50728619D01*
X42299142Y50776238D01*
X42251523Y50823857D01*
X42203904Y50919095D01*
X42203904Y51109571D01*
X42251523Y51204810D01*
X42299142Y51252429D01*
X42394380Y51300048D01*
X52935143Y94972047D02*
X52982762Y95019666D01*
X53030381Y95162523D01*
X53030381Y95257761D01*
X52982762Y95400619D01*
X52887524Y95495857D01*
X52792286Y95543476D01*
X52601810Y95591095D01*
X52458952Y95591095D01*
X52268476Y95543476D01*
X52173238Y95495857D01*
X52078000Y95400619D01*
X52030381Y95257761D01*
X52030381Y95162523D01*
X52078000Y95019666D01*
X52125619Y94972047D01*
X52363714Y94114904D02*
X53030381Y94114904D01*
X51982762Y94353000D02*
X52697048Y94591095D01*
X52697048Y93972047D01*
X52030381Y93686333D02*
X52030381Y93067285D01*
X52411333Y93400619D01*
X52411333Y93257761D01*
X52458952Y93162523D01*
X52506571Y93114904D01*
X52601810Y93067285D01*
X52839905Y93067285D01*
X52935143Y93114904D01*
X52982762Y93162523D01*
X53030381Y93257761D01*
X53030381Y93543476D01*
X52982762Y93638714D01*
X52935143Y93686333D01*
X53030381Y92591095D02*
X53030381Y92400619D01*
X52982762Y92305380D01*
X52935143Y92257761D01*
X52792286Y92162523D01*
X52601810Y92114904D01*
X52220857Y92114904D01*
X52125619Y92162523D01*
X52078000Y92210142D01*
X52030381Y92305380D01*
X52030381Y92495857D01*
X52078000Y92591095D01*
X52125619Y92638714D01*
X52220857Y92686333D01*
X52458952Y92686333D01*
X52554190Y92638714D01*
X52601810Y92591095D01*
X52649429Y92495857D01*
X52649429Y92305380D01*
X52601810Y92210142D01*
X52554190Y92162523D01*
X52458952Y92114904D01*
X45061047Y53109857D02*
X45108666Y53062238D01*
X45251523Y53014619D01*
X45346761Y53014619D01*
X45489619Y53062238D01*
X45584857Y53157476D01*
X45632476Y53252714D01*
X45680095Y53443190D01*
X45680095Y53586048D01*
X45632476Y53776524D01*
X45584857Y53871762D01*
X45489619Y53967000D01*
X45346761Y54014619D01*
X45251523Y54014619D01*
X45108666Y53967000D01*
X45061047Y53919381D01*
X44203904Y53681286D02*
X44203904Y53014619D01*
X44442000Y54062238D02*
X44680095Y53347952D01*
X44061047Y53347952D01*
X43251523Y53681286D02*
X43251523Y53014619D01*
X43489619Y54062238D02*
X43727714Y53347952D01*
X43108666Y53347952D01*
X42537238Y54014619D02*
X42441999Y54014619D01*
X42346761Y53967000D01*
X42299142Y53919381D01*
X42251523Y53824143D01*
X42203904Y53633667D01*
X42203904Y53395571D01*
X42251523Y53205095D01*
X42299142Y53109857D01*
X42346761Y53062238D01*
X42441999Y53014619D01*
X42537238Y53014619D01*
X42632476Y53062238D01*
X42680095Y53109857D01*
X42727714Y53205095D01*
X42775333Y53395571D01*
X42775333Y53633667D01*
X42727714Y53824143D01*
X42680095Y53919381D01*
X42632476Y53967000D01*
X42537238Y54014619D01*
X51284047Y86129857D02*
X51331666Y86082238D01*
X51474523Y86034619D01*
X51569761Y86034619D01*
X51712619Y86082238D01*
X51807857Y86177476D01*
X51855476Y86272714D01*
X51903095Y86463190D01*
X51903095Y86606048D01*
X51855476Y86796524D01*
X51807857Y86891762D01*
X51712619Y86987000D01*
X51569761Y87034619D01*
X51474523Y87034619D01*
X51331666Y86987000D01*
X51284047Y86939381D01*
X50426904Y86701286D02*
X50426904Y86034619D01*
X50665000Y87082238D02*
X50903095Y86367952D01*
X50284047Y86367952D01*
X49474523Y86701286D02*
X49474523Y86034619D01*
X49712619Y87082238D02*
X49950714Y86367952D01*
X49331666Y86367952D01*
X48426904Y86034619D02*
X48998333Y86034619D01*
X48712619Y86034619D02*
X48712619Y87034619D01*
X48807857Y86891762D01*
X48903095Y86796524D01*
X48998333Y86748905D01*
X59031047Y43394357D02*
X59078666Y43346738D01*
X59221523Y43299119D01*
X59316761Y43299119D01*
X59459619Y43346738D01*
X59554857Y43441976D01*
X59602476Y43537214D01*
X59650095Y43727690D01*
X59650095Y43870548D01*
X59602476Y44061024D01*
X59554857Y44156262D01*
X59459619Y44251500D01*
X59316761Y44299119D01*
X59221523Y44299119D01*
X59078666Y44251500D01*
X59031047Y44203881D01*
X58173904Y43965786D02*
X58173904Y43299119D01*
X58412000Y44346738D02*
X58650095Y43632452D01*
X58031047Y43632452D01*
X57221523Y43965786D02*
X57221523Y43299119D01*
X57459619Y44346738D02*
X57697714Y43632452D01*
X57078666Y43632452D01*
X56745333Y44203881D02*
X56697714Y44251500D01*
X56602476Y44299119D01*
X56364380Y44299119D01*
X56269142Y44251500D01*
X56221523Y44203881D01*
X56173904Y44108643D01*
X56173904Y44013405D01*
X56221523Y43870548D01*
X56792952Y43299119D01*
X56173904Y43299119D01*
X51157047Y79652857D02*
X51204666Y79605238D01*
X51347523Y79557619D01*
X51442761Y79557619D01*
X51585619Y79605238D01*
X51680857Y79700476D01*
X51728476Y79795714D01*
X51776095Y79986190D01*
X51776095Y80129048D01*
X51728476Y80319524D01*
X51680857Y80414762D01*
X51585619Y80510000D01*
X51442761Y80557619D01*
X51347523Y80557619D01*
X51204666Y80510000D01*
X51157047Y80462381D01*
X50299904Y80224286D02*
X50299904Y79557619D01*
X50538000Y80605238D02*
X50776095Y79890952D01*
X50157047Y79890952D01*
X49347523Y80224286D02*
X49347523Y79557619D01*
X49585619Y80605238D02*
X49823714Y79890952D01*
X49204666Y79890952D01*
X48918952Y80557619D02*
X48299904Y80557619D01*
X48633238Y80176667D01*
X48490380Y80176667D01*
X48395142Y80129048D01*
X48347523Y80081429D01*
X48299904Y79986190D01*
X48299904Y79748095D01*
X48347523Y79652857D01*
X48395142Y79605238D01*
X48490380Y79557619D01*
X48776095Y79557619D01*
X48871333Y79605238D01*
X48918952Y79652857D01*
X62968047Y49934857D02*
X63015666Y49887238D01*
X63158523Y49839619D01*
X63253761Y49839619D01*
X63396619Y49887238D01*
X63491857Y49982476D01*
X63539476Y50077714D01*
X63587095Y50268190D01*
X63587095Y50411048D01*
X63539476Y50601524D01*
X63491857Y50696762D01*
X63396619Y50792000D01*
X63253761Y50839619D01*
X63158523Y50839619D01*
X63015666Y50792000D01*
X62968047Y50744381D01*
X62110904Y50506286D02*
X62110904Y49839619D01*
X62349000Y50887238D02*
X62587095Y50172952D01*
X61968047Y50172952D01*
X61158523Y50506286D02*
X61158523Y49839619D01*
X61396619Y50887238D02*
X61634714Y50172952D01*
X61015666Y50172952D01*
X60206142Y50506286D02*
X60206142Y49839619D01*
X60444238Y50887238D02*
X60682333Y50172952D01*
X60063285Y50172952D01*
X41061476Y8098119D02*
X41061476Y9098119D01*
X40823381Y9098119D01*
X40680523Y9050500D01*
X40585285Y8955262D01*
X40537666Y8860024D01*
X40490047Y8669548D01*
X40490047Y8526690D01*
X40537666Y8336214D01*
X40585285Y8240976D01*
X40680523Y8145738D01*
X40823381Y8098119D01*
X41061476Y8098119D01*
X40109095Y9002881D02*
X40061476Y9050500D01*
X39966238Y9098119D01*
X39728142Y9098119D01*
X39632904Y9050500D01*
X39585285Y9002881D01*
X39537666Y8907643D01*
X39537666Y8812405D01*
X39585285Y8669548D01*
X40156714Y8098119D01*
X39537666Y8098119D01*
X38918619Y9098119D02*
X38823380Y9098119D01*
X38728142Y9050500D01*
X38680523Y9002881D01*
X38632904Y8907643D01*
X38585285Y8717167D01*
X38585285Y8479071D01*
X38632904Y8288595D01*
X38680523Y8193357D01*
X38728142Y8145738D01*
X38823380Y8098119D01*
X38918619Y8098119D01*
X39013857Y8145738D01*
X39061476Y8193357D01*
X39109095Y8288595D01*
X39156714Y8479071D01*
X39156714Y8717167D01*
X39109095Y8907643D01*
X39061476Y9002881D01*
X39013857Y9050500D01*
X38918619Y9098119D01*
X37632904Y8098119D02*
X38204333Y8098119D01*
X37918619Y8098119D02*
X37918619Y9098119D01*
X38013857Y8955262D01*
X38109095Y8860024D01*
X38204333Y8812405D01*
X35632905Y5898119D02*
X35632905Y6898119D01*
X35061476Y5898119D02*
X35490048Y6469548D01*
X35061476Y6898119D02*
X35632905Y6326690D01*
X43609095Y6183833D02*
X43132904Y6183833D01*
X43704333Y5898119D02*
X43371000Y6898119D01*
X43037666Y5898119D01*
X57263381Y11850976D02*
X56263381Y11850976D01*
X56263381Y11612881D01*
X56311000Y11470023D01*
X56406238Y11374785D01*
X56501476Y11327166D01*
X56691952Y11279547D01*
X56834810Y11279547D01*
X57025286Y11327166D01*
X57120524Y11374785D01*
X57215762Y11470023D01*
X57263381Y11612881D01*
X57263381Y11850976D01*
X56358619Y10898595D02*
X56311000Y10850976D01*
X56263381Y10755738D01*
X56263381Y10517642D01*
X56311000Y10422404D01*
X56358619Y10374785D01*
X56453857Y10327166D01*
X56549095Y10327166D01*
X56691952Y10374785D01*
X57263381Y10946214D01*
X57263381Y10327166D01*
X56263381Y9708119D02*
X56263381Y9612880D01*
X56311000Y9517642D01*
X56358619Y9470023D01*
X56453857Y9422404D01*
X56644333Y9374785D01*
X56882429Y9374785D01*
X57072905Y9422404D01*
X57168143Y9470023D01*
X57215762Y9517642D01*
X57263381Y9612880D01*
X57263381Y9708119D01*
X57215762Y9803357D01*
X57168143Y9850976D01*
X57072905Y9898595D01*
X56882429Y9946214D01*
X56644333Y9946214D01*
X56453857Y9898595D01*
X56358619Y9850976D01*
X56311000Y9803357D01*
X56263381Y9708119D01*
X56358619Y8993833D02*
X56311000Y8946214D01*
X56263381Y8850976D01*
X56263381Y8612880D01*
X56311000Y8517642D01*
X56358619Y8470023D01*
X56453857Y8422404D01*
X56549095Y8422404D01*
X56691952Y8470023D01*
X57263381Y9041452D01*
X57263381Y8422404D01*
X55063381Y14422405D02*
X54063381Y14422405D01*
X55063381Y13850976D02*
X54491952Y14279548D01*
X54063381Y13850976D02*
X54634810Y14422405D01*
X54777667Y6398595D02*
X54777667Y5922404D01*
X55063381Y6493833D02*
X54063381Y6160500D01*
X55063381Y5827166D01*
X77628381Y11850976D02*
X76628381Y11850976D01*
X76628381Y11612881D01*
X76676000Y11470023D01*
X76771238Y11374785D01*
X76866476Y11327166D01*
X77056952Y11279547D01*
X77199810Y11279547D01*
X77390286Y11327166D01*
X77485524Y11374785D01*
X77580762Y11470023D01*
X77628381Y11612881D01*
X77628381Y11850976D01*
X76723619Y10898595D02*
X76676000Y10850976D01*
X76628381Y10755738D01*
X76628381Y10517642D01*
X76676000Y10422404D01*
X76723619Y10374785D01*
X76818857Y10327166D01*
X76914095Y10327166D01*
X77056952Y10374785D01*
X77628381Y10946214D01*
X77628381Y10327166D01*
X76628381Y9708119D02*
X76628381Y9612880D01*
X76676000Y9517642D01*
X76723619Y9470023D01*
X76818857Y9422404D01*
X77009333Y9374785D01*
X77247429Y9374785D01*
X77437905Y9422404D01*
X77533143Y9470023D01*
X77580762Y9517642D01*
X77628381Y9612880D01*
X77628381Y9708119D01*
X77580762Y9803357D01*
X77533143Y9850976D01*
X77437905Y9898595D01*
X77247429Y9946214D01*
X77009333Y9946214D01*
X76818857Y9898595D01*
X76723619Y9850976D01*
X76676000Y9803357D01*
X76628381Y9708119D01*
X76628381Y9041452D02*
X76628381Y8422404D01*
X77009333Y8755738D01*
X77009333Y8612880D01*
X77056952Y8517642D01*
X77104571Y8470023D01*
X77199810Y8422404D01*
X77437905Y8422404D01*
X77533143Y8470023D01*
X77580762Y8517642D01*
X77628381Y8612880D01*
X77628381Y8898595D01*
X77580762Y8993833D01*
X77533143Y9041452D01*
X79828381Y6422405D02*
X78828381Y6422405D01*
X79828381Y5850976D02*
X79256952Y6279548D01*
X78828381Y5850976D02*
X79399810Y6422405D01*
X79542667Y14398595D02*
X79542667Y13922404D01*
X79828381Y14493833D02*
X78828381Y14160500D01*
X79828381Y13827166D01*
X48045476Y22739619D02*
X48045476Y23739619D01*
X47807381Y23739619D01*
X47664523Y23692000D01*
X47569285Y23596762D01*
X47521666Y23501524D01*
X47474047Y23311048D01*
X47474047Y23168190D01*
X47521666Y22977714D01*
X47569285Y22882476D01*
X47664523Y22787238D01*
X47807381Y22739619D01*
X48045476Y22739619D01*
X47093095Y23644381D02*
X47045476Y23692000D01*
X46950238Y23739619D01*
X46712142Y23739619D01*
X46616904Y23692000D01*
X46569285Y23644381D01*
X46521666Y23549143D01*
X46521666Y23453905D01*
X46569285Y23311048D01*
X47140714Y22739619D01*
X46521666Y22739619D01*
X45902619Y23739619D02*
X45807380Y23739619D01*
X45712142Y23692000D01*
X45664523Y23644381D01*
X45616904Y23549143D01*
X45569285Y23358667D01*
X45569285Y23120571D01*
X45616904Y22930095D01*
X45664523Y22834857D01*
X45712142Y22787238D01*
X45807380Y22739619D01*
X45902619Y22739619D01*
X45997857Y22787238D01*
X46045476Y22834857D01*
X46093095Y22930095D01*
X46140714Y23120571D01*
X46140714Y23358667D01*
X46093095Y23549143D01*
X46045476Y23644381D01*
X45997857Y23692000D01*
X45902619Y23739619D01*
X45235952Y23739619D02*
X44569285Y23739619D01*
X44997857Y22739619D01*
X43616905Y24439619D02*
X43616905Y25439619D01*
X43045476Y24439619D02*
X43474048Y25011048D01*
X43045476Y25439619D02*
X43616905Y24868190D01*
X49593095Y24725333D02*
X49116904Y24725333D01*
X49688333Y24439619D02*
X49355000Y25439619D01*
X49021666Y24439619D01*
X34266047Y4246619D02*
X34742238Y4246619D01*
X34742238Y5246619D01*
X33980333Y5151381D02*
X33932714Y5199000D01*
X33837476Y5246619D01*
X33599380Y5246619D01*
X33504142Y5199000D01*
X33456523Y5151381D01*
X33408904Y5056143D01*
X33408904Y4960905D01*
X33456523Y4818048D01*
X34027952Y4246619D01*
X33408904Y4246619D01*
X32789857Y5246619D02*
X32694618Y5246619D01*
X32599380Y5199000D01*
X32551761Y5151381D01*
X32504142Y5056143D01*
X32456523Y4865667D01*
X32456523Y4627571D01*
X32504142Y4437095D01*
X32551761Y4341857D01*
X32599380Y4294238D01*
X32694618Y4246619D01*
X32789857Y4246619D01*
X32885095Y4294238D01*
X32932714Y4341857D01*
X32980333Y4437095D01*
X33027952Y4627571D01*
X33027952Y4865667D01*
X32980333Y5056143D01*
X32932714Y5151381D01*
X32885095Y5199000D01*
X32789857Y5246619D01*
X31504142Y4246619D02*
X32075571Y4246619D01*
X31789857Y4246619D02*
X31789857Y5246619D01*
X31885095Y5103762D01*
X31980333Y5008524D01*
X32075571Y4960905D01*
X35155047Y12374619D02*
X35488381Y12850810D01*
X35726476Y12374619D02*
X35726476Y13374619D01*
X35345523Y13374619D01*
X35250285Y13327000D01*
X35202666Y13279381D01*
X35155047Y13184143D01*
X35155047Y13041286D01*
X35202666Y12946048D01*
X35250285Y12898429D01*
X35345523Y12850810D01*
X35726476Y12850810D01*
X34774095Y13279381D02*
X34726476Y13327000D01*
X34631238Y13374619D01*
X34393142Y13374619D01*
X34297904Y13327000D01*
X34250285Y13279381D01*
X34202666Y13184143D01*
X34202666Y13088905D01*
X34250285Y12946048D01*
X34821714Y12374619D01*
X34202666Y12374619D01*
X33583619Y13374619D02*
X33488380Y13374619D01*
X33393142Y13327000D01*
X33345523Y13279381D01*
X33297904Y13184143D01*
X33250285Y12993667D01*
X33250285Y12755571D01*
X33297904Y12565095D01*
X33345523Y12469857D01*
X33393142Y12422238D01*
X33488380Y12374619D01*
X33583619Y12374619D01*
X33678857Y12422238D01*
X33726476Y12469857D01*
X33774095Y12565095D01*
X33821714Y12755571D01*
X33821714Y12993667D01*
X33774095Y13184143D01*
X33726476Y13279381D01*
X33678857Y13327000D01*
X33583619Y13374619D01*
X32297904Y12374619D02*
X32869333Y12374619D01*
X32583619Y12374619D02*
X32583619Y13374619D01*
X32678857Y13231762D01*
X32774095Y13136524D01*
X32869333Y13088905D01*
X18645047Y70921619D02*
X18978381Y71397810D01*
X19216476Y70921619D02*
X19216476Y71921619D01*
X18835523Y71921619D01*
X18740285Y71874000D01*
X18692666Y71826381D01*
X18645047Y71731143D01*
X18645047Y71588286D01*
X18692666Y71493048D01*
X18740285Y71445429D01*
X18835523Y71397810D01*
X19216476Y71397810D01*
X18311714Y71921619D02*
X17692666Y71921619D01*
X18026000Y71540667D01*
X17883142Y71540667D01*
X17787904Y71493048D01*
X17740285Y71445429D01*
X17692666Y71350190D01*
X17692666Y71112095D01*
X17740285Y71016857D01*
X17787904Y70969238D01*
X17883142Y70921619D01*
X18168857Y70921619D01*
X18264095Y70969238D01*
X18311714Y71016857D01*
X16740285Y70921619D02*
X17311714Y70921619D01*
X17026000Y70921619D02*
X17026000Y71921619D01*
X17121238Y71778762D01*
X17216476Y71683524D01*
X17311714Y71635905D01*
X16406952Y71921619D02*
X15740285Y71921619D01*
X16168857Y70921619D01*
X22709047Y66730619D02*
X23042381Y67206810D01*
X23280476Y66730619D02*
X23280476Y67730619D01*
X22899523Y67730619D01*
X22804285Y67683000D01*
X22756666Y67635381D01*
X22709047Y67540143D01*
X22709047Y67397286D01*
X22756666Y67302048D01*
X22804285Y67254429D01*
X22899523Y67206810D01*
X23280476Y67206810D01*
X22375714Y67730619D02*
X21756666Y67730619D01*
X22090000Y67349667D01*
X21947142Y67349667D01*
X21851904Y67302048D01*
X21804285Y67254429D01*
X21756666Y67159190D01*
X21756666Y66921095D01*
X21804285Y66825857D01*
X21851904Y66778238D01*
X21947142Y66730619D01*
X22232857Y66730619D01*
X22328095Y66778238D01*
X22375714Y66825857D01*
X20804285Y66730619D02*
X21375714Y66730619D01*
X21090000Y66730619D02*
X21090000Y67730619D01*
X21185238Y67587762D01*
X21280476Y67492524D01*
X21375714Y67444905D01*
X20232857Y67302048D02*
X20328095Y67349667D01*
X20375714Y67397286D01*
X20423333Y67492524D01*
X20423333Y67540143D01*
X20375714Y67635381D01*
X20328095Y67683000D01*
X20232857Y67730619D01*
X20042380Y67730619D01*
X19947142Y67683000D01*
X19899523Y67635381D01*
X19851904Y67540143D01*
X19851904Y67492524D01*
X19899523Y67397286D01*
X19947142Y67349667D01*
X20042380Y67302048D01*
X20232857Y67302048D01*
X20328095Y67254429D01*
X20375714Y67206810D01*
X20423333Y67111571D01*
X20423333Y66921095D01*
X20375714Y66825857D01*
X20328095Y66778238D01*
X20232857Y66730619D01*
X20042380Y66730619D01*
X19947142Y66778238D01*
X19899523Y66825857D01*
X19851904Y66921095D01*
X19851904Y67111571D01*
X19899523Y67206810D01*
X19947142Y67254429D01*
X20042380Y67302048D01*
X22709047Y64317619D02*
X23042381Y64793810D01*
X23280476Y64317619D02*
X23280476Y65317619D01*
X22899523Y65317619D01*
X22804285Y65270000D01*
X22756666Y65222381D01*
X22709047Y65127143D01*
X22709047Y64984286D01*
X22756666Y64889048D01*
X22804285Y64841429D01*
X22899523Y64793810D01*
X23280476Y64793810D01*
X22375714Y65317619D02*
X21756666Y65317619D01*
X22090000Y64936667D01*
X21947142Y64936667D01*
X21851904Y64889048D01*
X21804285Y64841429D01*
X21756666Y64746190D01*
X21756666Y64508095D01*
X21804285Y64412857D01*
X21851904Y64365238D01*
X21947142Y64317619D01*
X22232857Y64317619D01*
X22328095Y64365238D01*
X22375714Y64412857D01*
X20804285Y64317619D02*
X21375714Y64317619D01*
X21090000Y64317619D02*
X21090000Y65317619D01*
X21185238Y65174762D01*
X21280476Y65079524D01*
X21375714Y65031905D01*
X20328095Y64317619D02*
X20137619Y64317619D01*
X20042380Y64365238D01*
X19994761Y64412857D01*
X19899523Y64555714D01*
X19851904Y64746190D01*
X19851904Y65127143D01*
X19899523Y65222381D01*
X19947142Y65270000D01*
X20042380Y65317619D01*
X20232857Y65317619D01*
X20328095Y65270000D01*
X20375714Y65222381D01*
X20423333Y65127143D01*
X20423333Y64889048D01*
X20375714Y64793810D01*
X20328095Y64746190D01*
X20232857Y64698571D01*
X20042380Y64698571D01*
X19947142Y64746190D01*
X19899523Y64793810D01*
X19851904Y64889048D01*
X22709047Y61777619D02*
X23042381Y62253810D01*
X23280476Y61777619D02*
X23280476Y62777619D01*
X22899523Y62777619D01*
X22804285Y62730000D01*
X22756666Y62682381D01*
X22709047Y62587143D01*
X22709047Y62444286D01*
X22756666Y62349048D01*
X22804285Y62301429D01*
X22899523Y62253810D01*
X23280476Y62253810D01*
X22375714Y62777619D02*
X21756666Y62777619D01*
X22090000Y62396667D01*
X21947142Y62396667D01*
X21851904Y62349048D01*
X21804285Y62301429D01*
X21756666Y62206190D01*
X21756666Y61968095D01*
X21804285Y61872857D01*
X21851904Y61825238D01*
X21947142Y61777619D01*
X22232857Y61777619D01*
X22328095Y61825238D01*
X22375714Y61872857D01*
X21375714Y62682381D02*
X21328095Y62730000D01*
X21232857Y62777619D01*
X20994761Y62777619D01*
X20899523Y62730000D01*
X20851904Y62682381D01*
X20804285Y62587143D01*
X20804285Y62491905D01*
X20851904Y62349048D01*
X21423333Y61777619D01*
X20804285Y61777619D01*
X20185238Y62777619D02*
X20089999Y62777619D01*
X19994761Y62730000D01*
X19947142Y62682381D01*
X19899523Y62587143D01*
X19851904Y62396667D01*
X19851904Y62158571D01*
X19899523Y61968095D01*
X19947142Y61872857D01*
X19994761Y61825238D01*
X20089999Y61777619D01*
X20185238Y61777619D01*
X20280476Y61825238D01*
X20328095Y61872857D01*
X20375714Y61968095D01*
X20423333Y62158571D01*
X20423333Y62396667D01*
X20375714Y62587143D01*
X20328095Y62682381D01*
X20280476Y62730000D01*
X20185238Y62777619D01*
X33123143Y85955047D02*
X33170762Y86002666D01*
X33218381Y86145523D01*
X33218381Y86240761D01*
X33170762Y86383619D01*
X33075524Y86478857D01*
X32980286Y86526476D01*
X32789810Y86574095D01*
X32646952Y86574095D01*
X32456476Y86526476D01*
X32361238Y86478857D01*
X32266000Y86383619D01*
X32218381Y86240761D01*
X32218381Y86145523D01*
X32266000Y86002666D01*
X32313619Y85955047D01*
X32313619Y85574095D02*
X32266000Y85526476D01*
X32218381Y85431238D01*
X32218381Y85193142D01*
X32266000Y85097904D01*
X32313619Y85050285D01*
X32408857Y85002666D01*
X32504095Y85002666D01*
X32646952Y85050285D01*
X33218381Y85621714D01*
X33218381Y85002666D01*
X32218381Y84669333D02*
X32218381Y84050285D01*
X32599333Y84383619D01*
X32599333Y84240761D01*
X32646952Y84145523D01*
X32694571Y84097904D01*
X32789810Y84050285D01*
X33027905Y84050285D01*
X33123143Y84097904D01*
X33170762Y84145523D01*
X33218381Y84240761D01*
X33218381Y84526476D01*
X33170762Y84621714D01*
X33123143Y84669333D01*
X32218381Y83716952D02*
X32218381Y83050285D01*
X33218381Y83478857D01*
X75287047Y63930065D02*
X75334666Y63882446D01*
X75477523Y63834827D01*
X75572761Y63834827D01*
X75715619Y63882446D01*
X75810857Y63977684D01*
X75858476Y64072922D01*
X75906095Y64263398D01*
X75906095Y64406256D01*
X75858476Y64596732D01*
X75810857Y64691970D01*
X75715619Y64787208D01*
X75572761Y64834827D01*
X75477523Y64834827D01*
X75334666Y64787208D01*
X75287047Y64739589D01*
X74429904Y64501494D02*
X74429904Y63834827D01*
X74668000Y64882446D02*
X74906095Y64168160D01*
X74287047Y64168160D01*
X73382285Y63834827D02*
X73953714Y63834827D01*
X73668000Y63834827D02*
X73668000Y64834827D01*
X73763238Y64691970D01*
X73858476Y64596732D01*
X73953714Y64549113D01*
X72763238Y64834827D02*
X72667999Y64834827D01*
X72572761Y64787208D01*
X72525142Y64739589D01*
X72477523Y64644351D01*
X72429904Y64453875D01*
X72429904Y64215779D01*
X72477523Y64025303D01*
X72525142Y63930065D01*
X72572761Y63882446D01*
X72667999Y63834827D01*
X72763238Y63834827D01*
X72858476Y63882446D01*
X72906095Y63930065D01*
X72953714Y64025303D01*
X73001333Y64215779D01*
X73001333Y64453875D01*
X72953714Y64644351D01*
X72906095Y64739589D01*
X72858476Y64787208D01*
X72763238Y64834827D01*
X79160547Y61555357D02*
X79208166Y61507738D01*
X79351023Y61460119D01*
X79446261Y61460119D01*
X79589119Y61507738D01*
X79684357Y61602976D01*
X79731976Y61698214D01*
X79779595Y61888690D01*
X79779595Y62031548D01*
X79731976Y62222024D01*
X79684357Y62317262D01*
X79589119Y62412500D01*
X79446261Y62460119D01*
X79351023Y62460119D01*
X79208166Y62412500D01*
X79160547Y62364881D01*
X78303404Y62126786D02*
X78303404Y61460119D01*
X78541500Y62507738D02*
X78779595Y61793452D01*
X78160547Y61793452D01*
X77255785Y61460119D02*
X77827214Y61460119D01*
X77541500Y61460119D02*
X77541500Y62460119D01*
X77636738Y62317262D01*
X77731976Y62222024D01*
X77827214Y62174405D01*
X76398642Y62460119D02*
X76589119Y62460119D01*
X76684357Y62412500D01*
X76731976Y62364881D01*
X76827214Y62222024D01*
X76874833Y62031548D01*
X76874833Y61650595D01*
X76827214Y61555357D01*
X76779595Y61507738D01*
X76684357Y61460119D01*
X76493880Y61460119D01*
X76398642Y61507738D01*
X76351023Y61555357D01*
X76303404Y61650595D01*
X76303404Y61888690D01*
X76351023Y61983929D01*
X76398642Y62031548D01*
X76493880Y62079167D01*
X76684357Y62079167D01*
X76779595Y62031548D01*
X76827214Y61983929D01*
X76874833Y61888690D01*
X71096047Y71524857D02*
X71143666Y71477238D01*
X71286523Y71429619D01*
X71381761Y71429619D01*
X71524619Y71477238D01*
X71619857Y71572476D01*
X71667476Y71667714D01*
X71715095Y71858190D01*
X71715095Y72001048D01*
X71667476Y72191524D01*
X71619857Y72286762D01*
X71524619Y72382000D01*
X71381761Y72429619D01*
X71286523Y72429619D01*
X71143666Y72382000D01*
X71096047Y72334381D01*
X70238904Y72096286D02*
X70238904Y71429619D01*
X70477000Y72477238D02*
X70715095Y71762952D01*
X70096047Y71762952D01*
X69286523Y72096286D02*
X69286523Y71429619D01*
X69524619Y72477238D02*
X69762714Y71762952D01*
X69143666Y71762952D01*
X68715095Y71429619D02*
X68524619Y71429619D01*
X68429380Y71477238D01*
X68381761Y71524857D01*
X68286523Y71667714D01*
X68238904Y71858190D01*
X68238904Y72239143D01*
X68286523Y72334381D01*
X68334142Y72382000D01*
X68429380Y72429619D01*
X68619857Y72429619D01*
X68715095Y72382000D01*
X68762714Y72334381D01*
X68810333Y72239143D01*
X68810333Y72001048D01*
X68762714Y71905810D01*
X68715095Y71858190D01*
X68619857Y71810571D01*
X68429380Y71810571D01*
X68334142Y71858190D01*
X68286523Y71905810D01*
X68238904Y72001048D01*
X71032547Y49934857D02*
X71080166Y49887238D01*
X71223023Y49839619D01*
X71318261Y49839619D01*
X71461119Y49887238D01*
X71556357Y49982476D01*
X71603976Y50077714D01*
X71651595Y50268190D01*
X71651595Y50411048D01*
X71603976Y50601524D01*
X71556357Y50696762D01*
X71461119Y50792000D01*
X71318261Y50839619D01*
X71223023Y50839619D01*
X71080166Y50792000D01*
X71032547Y50744381D01*
X70175404Y50506286D02*
X70175404Y49839619D01*
X70413500Y50887238D02*
X70651595Y50172952D01*
X70032547Y50172952D01*
X69175404Y50839619D02*
X69651595Y50839619D01*
X69699214Y50363429D01*
X69651595Y50411048D01*
X69556357Y50458667D01*
X69318261Y50458667D01*
X69223023Y50411048D01*
X69175404Y50363429D01*
X69127785Y50268190D01*
X69127785Y50030095D01*
X69175404Y49934857D01*
X69223023Y49887238D01*
X69318261Y49839619D01*
X69556357Y49839619D01*
X69651595Y49887238D01*
X69699214Y49934857D01*
X68508738Y50839619D02*
X68413499Y50839619D01*
X68318261Y50792000D01*
X68270642Y50744381D01*
X68223023Y50649143D01*
X68175404Y50458667D01*
X68175404Y50220571D01*
X68223023Y50030095D01*
X68270642Y49934857D01*
X68318261Y49887238D01*
X68413499Y49839619D01*
X68508738Y49839619D01*
X68603976Y49887238D01*
X68651595Y49934857D01*
X68699214Y50030095D01*
X68746833Y50220571D01*
X68746833Y50458667D01*
X68699214Y50649143D01*
X68651595Y50744381D01*
X68603976Y50792000D01*
X68508738Y50839619D01*
X70969047Y73937857D02*
X71016666Y73890238D01*
X71159523Y73842619D01*
X71254761Y73842619D01*
X71397619Y73890238D01*
X71492857Y73985476D01*
X71540476Y74080714D01*
X71588095Y74271190D01*
X71588095Y74414048D01*
X71540476Y74604524D01*
X71492857Y74699762D01*
X71397619Y74795000D01*
X71254761Y74842619D01*
X71159523Y74842619D01*
X71016666Y74795000D01*
X70969047Y74747381D01*
X70111904Y74509286D02*
X70111904Y73842619D01*
X70350000Y74890238D02*
X70588095Y74175952D01*
X69969047Y74175952D01*
X69111904Y74842619D02*
X69588095Y74842619D01*
X69635714Y74366429D01*
X69588095Y74414048D01*
X69492857Y74461667D01*
X69254761Y74461667D01*
X69159523Y74414048D01*
X69111904Y74366429D01*
X69064285Y74271190D01*
X69064285Y74033095D01*
X69111904Y73937857D01*
X69159523Y73890238D01*
X69254761Y73842619D01*
X69492857Y73842619D01*
X69588095Y73890238D01*
X69635714Y73937857D01*
X68111904Y73842619D02*
X68683333Y73842619D01*
X68397619Y73842619D02*
X68397619Y74842619D01*
X68492857Y74699762D01*
X68588095Y74604524D01*
X68683333Y74556905D01*
X70969047Y47521857D02*
X71016666Y47474238D01*
X71159523Y47426619D01*
X71254761Y47426619D01*
X71397619Y47474238D01*
X71492857Y47569476D01*
X71540476Y47664714D01*
X71588095Y47855190D01*
X71588095Y47998048D01*
X71540476Y48188524D01*
X71492857Y48283762D01*
X71397619Y48379000D01*
X71254761Y48426619D01*
X71159523Y48426619D01*
X71016666Y48379000D01*
X70969047Y48331381D01*
X70111904Y48093286D02*
X70111904Y47426619D01*
X70350000Y48474238D02*
X70588095Y47759952D01*
X69969047Y47759952D01*
X69111904Y48426619D02*
X69588095Y48426619D01*
X69635714Y47950429D01*
X69588095Y47998048D01*
X69492857Y48045667D01*
X69254761Y48045667D01*
X69159523Y47998048D01*
X69111904Y47950429D01*
X69064285Y47855190D01*
X69064285Y47617095D01*
X69111904Y47521857D01*
X69159523Y47474238D01*
X69254761Y47426619D01*
X69492857Y47426619D01*
X69588095Y47474238D01*
X69635714Y47521857D01*
X68683333Y48331381D02*
X68635714Y48379000D01*
X68540476Y48426619D01*
X68302380Y48426619D01*
X68207142Y48379000D01*
X68159523Y48331381D01*
X68111904Y48236143D01*
X68111904Y48140905D01*
X68159523Y47998048D01*
X68730952Y47426619D01*
X68111904Y47426619D01*
X25852381Y72366047D02*
X25376190Y72699381D01*
X25852381Y72937476D02*
X24852381Y72937476D01*
X24852381Y72556523D01*
X24900000Y72461285D01*
X24947619Y72413666D01*
X25042857Y72366047D01*
X25185714Y72366047D01*
X25280952Y72413666D01*
X25328571Y72461285D01*
X25376190Y72556523D01*
X25376190Y72937476D01*
X24852381Y72032714D02*
X24852381Y71413666D01*
X25233333Y71747000D01*
X25233333Y71604142D01*
X25280952Y71508904D01*
X25328571Y71461285D01*
X25423810Y71413666D01*
X25661905Y71413666D01*
X25757143Y71461285D01*
X25804762Y71508904D01*
X25852381Y71604142D01*
X25852381Y71889857D01*
X25804762Y71985095D01*
X25757143Y72032714D01*
X25852381Y70461285D02*
X25852381Y71032714D01*
X25852381Y70747000D02*
X24852381Y70747000D01*
X24995238Y70842238D01*
X25090476Y70937476D01*
X25138095Y71032714D01*
X24852381Y69842238D02*
X24852381Y69746999D01*
X24900000Y69651761D01*
X24947619Y69604142D01*
X25042857Y69556523D01*
X25233333Y69508904D01*
X25471429Y69508904D01*
X25661905Y69556523D01*
X25757143Y69604142D01*
X25804762Y69651761D01*
X25852381Y69746999D01*
X25852381Y69842238D01*
X25804762Y69937476D01*
X25757143Y69985095D01*
X25661905Y70032714D01*
X25471429Y70080333D01*
X25233333Y70080333D01*
X25042857Y70032714D01*
X24947619Y69985095D01*
X24900000Y69937476D01*
X24852381Y69842238D01*
M02*
